G04 #@! TF.FileFunction,Soldermask,Top*
%FSLAX46Y46*%
G04 Gerber Fmt 4.6, Leading zero omitted, Abs format (unit mm)*
G04 Created by KiCad (PCBNEW 4.0.7) date 06/15/18 16:22:59*
%MOMM*%
%LPD*%
G01*
G04 APERTURE LIST*
%ADD10C,0.100000*%
%ADD11R,1.900000X1.000000*%
%ADD12R,1.600000X1.600000*%
%ADD13R,1.100000X1.700000*%
%ADD14R,1.000000X1.950000*%
%ADD15R,0.800000X1.050000*%
%ADD16R,1.700000X1.950000*%
%ADD17R,1.400000X1.650000*%
G04 APERTURE END LIST*
D10*
D11*
X131920000Y-95885000D03*
X131920000Y-97155000D03*
X131920000Y-98425000D03*
X131920000Y-99695000D03*
X131920000Y-100965000D03*
X131920000Y-102235000D03*
X131920000Y-103505000D03*
X131920000Y-104775000D03*
X137320000Y-104775000D03*
X137320000Y-103505000D03*
X137320000Y-102235000D03*
X137320000Y-100965000D03*
X137320000Y-99695000D03*
X137320000Y-98425000D03*
X137320000Y-97155000D03*
X137320000Y-95885000D03*
D12*
X143510000Y-83650000D03*
X143510000Y-81450000D03*
D10*
G36*
X150326106Y-85964956D02*
X148847899Y-85352663D01*
X149460192Y-83874456D01*
X150938399Y-84486749D01*
X150326106Y-85964956D01*
X150326106Y-85964956D01*
G37*
G36*
X151168010Y-83932422D02*
X149689803Y-83320129D01*
X150302096Y-81841922D01*
X151780303Y-82454215D01*
X151168010Y-83932422D01*
X151168010Y-83932422D01*
G37*
G36*
X155304523Y-89666848D02*
X154173152Y-88535477D01*
X155304523Y-87404106D01*
X156435894Y-88535477D01*
X155304523Y-89666848D01*
X155304523Y-89666848D01*
G37*
G36*
X156860157Y-88111214D02*
X155728786Y-86979843D01*
X156860157Y-85848472D01*
X157991528Y-86979843D01*
X156860157Y-88111214D01*
X156860157Y-88111214D01*
G37*
G36*
X158487337Y-94992101D02*
X157875044Y-93513894D01*
X159353251Y-92901601D01*
X159965544Y-94379808D01*
X158487337Y-94992101D01*
X158487337Y-94992101D01*
G37*
G36*
X160519871Y-94150197D02*
X159907578Y-92671990D01*
X161385785Y-92059697D01*
X161998078Y-93537904D01*
X160519871Y-94150197D01*
X160519871Y-94150197D01*
G37*
D12*
X160190000Y-100330000D03*
X162390000Y-100330000D03*
D10*
G36*
X157875044Y-107146106D02*
X158487337Y-105667899D01*
X159965544Y-106280192D01*
X159353251Y-107758399D01*
X157875044Y-107146106D01*
X157875044Y-107146106D01*
G37*
G36*
X159907578Y-107988010D02*
X160519871Y-106509803D01*
X161998078Y-107122096D01*
X161385785Y-108600303D01*
X159907578Y-107988010D01*
X159907578Y-107988010D01*
G37*
G36*
X154173152Y-112124523D02*
X155304523Y-110993152D01*
X156435894Y-112124523D01*
X155304523Y-113255894D01*
X154173152Y-112124523D01*
X154173152Y-112124523D01*
G37*
G36*
X155728786Y-113680157D02*
X156860157Y-112548786D01*
X157991528Y-113680157D01*
X156860157Y-114811528D01*
X155728786Y-113680157D01*
X155728786Y-113680157D01*
G37*
G36*
X148847899Y-115307337D02*
X150326106Y-114695044D01*
X150938399Y-116173251D01*
X149460192Y-116785544D01*
X148847899Y-115307337D01*
X148847899Y-115307337D01*
G37*
G36*
X149689803Y-117339871D02*
X151168010Y-116727578D01*
X151780303Y-118205785D01*
X150302096Y-118818078D01*
X149689803Y-117339871D01*
X149689803Y-117339871D01*
G37*
D12*
X143510000Y-117010000D03*
X143510000Y-119210000D03*
D10*
G36*
X136693894Y-114695044D02*
X138172101Y-115307337D01*
X137559808Y-116785544D01*
X136081601Y-116173251D01*
X136693894Y-114695044D01*
X136693894Y-114695044D01*
G37*
G36*
X135851990Y-116727578D02*
X137330197Y-117339871D01*
X136717904Y-118818078D01*
X135239697Y-118205785D01*
X135851990Y-116727578D01*
X135851990Y-116727578D01*
G37*
G36*
X131715477Y-110993152D02*
X132846848Y-112124523D01*
X131715477Y-113255894D01*
X130584106Y-112124523D01*
X131715477Y-110993152D01*
X131715477Y-110993152D01*
G37*
G36*
X130159843Y-112548786D02*
X131291214Y-113680157D01*
X130159843Y-114811528D01*
X129028472Y-113680157D01*
X130159843Y-112548786D01*
X130159843Y-112548786D01*
G37*
G36*
X128532663Y-105667899D02*
X129144956Y-107146106D01*
X127666749Y-107758399D01*
X127054456Y-106280192D01*
X128532663Y-105667899D01*
X128532663Y-105667899D01*
G37*
G36*
X126500129Y-106509803D02*
X127112422Y-107988010D01*
X125634215Y-108600303D01*
X125021922Y-107122096D01*
X126500129Y-106509803D01*
X126500129Y-106509803D01*
G37*
D12*
X126830000Y-100330000D03*
X124630000Y-100330000D03*
D10*
G36*
X129144956Y-93513894D02*
X128532663Y-94992101D01*
X127054456Y-94379808D01*
X127666749Y-92901601D01*
X129144956Y-93513894D01*
X129144956Y-93513894D01*
G37*
G36*
X127112422Y-92671990D02*
X126500129Y-94150197D01*
X125021922Y-93537904D01*
X125634215Y-92059697D01*
X127112422Y-92671990D01*
X127112422Y-92671990D01*
G37*
G36*
X132846848Y-88535477D02*
X131715477Y-89666848D01*
X130584106Y-88535477D01*
X131715477Y-87404106D01*
X132846848Y-88535477D01*
X132846848Y-88535477D01*
G37*
G36*
X131291214Y-86979843D02*
X130159843Y-88111214D01*
X129028472Y-86979843D01*
X130159843Y-85848472D01*
X131291214Y-86979843D01*
X131291214Y-86979843D01*
G37*
G36*
X138172101Y-85352663D02*
X136693894Y-85964956D01*
X136081601Y-84486749D01*
X137559808Y-83874456D01*
X138172101Y-85352663D01*
X138172101Y-85352663D01*
G37*
G36*
X137330197Y-83320129D02*
X135851990Y-83932422D01*
X135239697Y-82454215D01*
X136717904Y-81841922D01*
X137330197Y-83320129D01*
X137330197Y-83320129D01*
G37*
D13*
X142560000Y-86995000D03*
X144460000Y-86995000D03*
D14*
X141605000Y-113190000D03*
X142875000Y-113190000D03*
X144145000Y-113190000D03*
X145415000Y-113190000D03*
X145415000Y-107790000D03*
X144145000Y-107790000D03*
X142875000Y-107790000D03*
X141605000Y-107790000D03*
D15*
X142860000Y-91755000D03*
X144160000Y-91755000D03*
X143510000Y-91755000D03*
X144160000Y-89855000D03*
X142860000Y-89855000D03*
D11*
X149700000Y-95885000D03*
X149700000Y-97155000D03*
X149700000Y-98425000D03*
X149700000Y-99695000D03*
X149700000Y-100965000D03*
X149700000Y-102235000D03*
X149700000Y-103505000D03*
X149700000Y-104775000D03*
X155100000Y-104775000D03*
X155100000Y-103505000D03*
X155100000Y-102235000D03*
X155100000Y-100965000D03*
X155100000Y-99695000D03*
X155100000Y-98425000D03*
X155100000Y-97155000D03*
X155100000Y-95885000D03*
D16*
X145760000Y-104310000D03*
X141260000Y-104310000D03*
X141260000Y-96350000D03*
X145760000Y-96350000D03*
D17*
X135525000Y-111760000D03*
X137525000Y-111760000D03*
X149495000Y-111760000D03*
X151495000Y-111760000D03*
D13*
X133670000Y-107950000D03*
X135570000Y-107950000D03*
X151450000Y-107950000D03*
X153350000Y-107950000D03*
M02*
