G04 #@! TF.FileFunction,Copper,L1,Top,Signal*
%FSLAX46Y46*%
G04 Gerber Fmt 4.6, Leading zero omitted, Abs format (unit mm)*
G04 Created by KiCad (PCBNEW 4.0.7) date 06/15/18 16:22:59*
%MOMM*%
%LPD*%
G01*
G04 APERTURE LIST*
%ADD10C,0.100000*%
%ADD11R,1.500000X0.600000*%
%ADD12R,1.200000X1.200000*%
%ADD13R,0.700000X1.300000*%
%ADD14R,0.600000X1.550000*%
%ADD15R,0.400000X0.650000*%
%ADD16R,1.300000X1.550000*%
%ADD17R,1.000000X1.250000*%
%ADD18C,0.800000*%
%ADD19C,0.254000*%
G04 APERTURE END LIST*
D10*
D11*
X131920000Y-95885000D03*
X131920000Y-97155000D03*
X131920000Y-98425000D03*
X131920000Y-99695000D03*
X131920000Y-100965000D03*
X131920000Y-102235000D03*
X131920000Y-103505000D03*
X131920000Y-104775000D03*
X137320000Y-104775000D03*
X137320000Y-103505000D03*
X137320000Y-102235000D03*
X137320000Y-100965000D03*
X137320000Y-99695000D03*
X137320000Y-98425000D03*
X137320000Y-97155000D03*
X137320000Y-95885000D03*
D12*
X143510000Y-83650000D03*
X143510000Y-81450000D03*
D10*
G36*
X150217867Y-85703644D02*
X149109211Y-85244424D01*
X149568431Y-84135768D01*
X150677087Y-84594988D01*
X150217867Y-85703644D01*
X150217867Y-85703644D01*
G37*
G36*
X151059771Y-83671110D02*
X149951115Y-83211890D01*
X150410335Y-82103234D01*
X151518991Y-82562454D01*
X151059771Y-83671110D01*
X151059771Y-83671110D01*
G37*
G36*
X155304523Y-89384005D02*
X154455995Y-88535477D01*
X155304523Y-87686949D01*
X156153051Y-88535477D01*
X155304523Y-89384005D01*
X155304523Y-89384005D01*
G37*
G36*
X156860157Y-87828371D02*
X156011629Y-86979843D01*
X156860157Y-86131315D01*
X157708685Y-86979843D01*
X156860157Y-87828371D01*
X156860157Y-87828371D01*
G37*
G36*
X158595576Y-94730789D02*
X158136356Y-93622133D01*
X159245012Y-93162913D01*
X159704232Y-94271569D01*
X158595576Y-94730789D01*
X158595576Y-94730789D01*
G37*
G36*
X160628110Y-93888885D02*
X160168890Y-92780229D01*
X161277546Y-92321009D01*
X161736766Y-93429665D01*
X160628110Y-93888885D01*
X160628110Y-93888885D01*
G37*
D12*
X160190000Y-100330000D03*
X162390000Y-100330000D03*
D10*
G36*
X158136356Y-107037867D02*
X158595576Y-105929211D01*
X159704232Y-106388431D01*
X159245012Y-107497087D01*
X158136356Y-107037867D01*
X158136356Y-107037867D01*
G37*
G36*
X160168890Y-107879771D02*
X160628110Y-106771115D01*
X161736766Y-107230335D01*
X161277546Y-108338991D01*
X160168890Y-107879771D01*
X160168890Y-107879771D01*
G37*
G36*
X154455995Y-112124523D02*
X155304523Y-111275995D01*
X156153051Y-112124523D01*
X155304523Y-112973051D01*
X154455995Y-112124523D01*
X154455995Y-112124523D01*
G37*
G36*
X156011629Y-113680157D02*
X156860157Y-112831629D01*
X157708685Y-113680157D01*
X156860157Y-114528685D01*
X156011629Y-113680157D01*
X156011629Y-113680157D01*
G37*
G36*
X149109211Y-115415576D02*
X150217867Y-114956356D01*
X150677087Y-116065012D01*
X149568431Y-116524232D01*
X149109211Y-115415576D01*
X149109211Y-115415576D01*
G37*
G36*
X149951115Y-117448110D02*
X151059771Y-116988890D01*
X151518991Y-118097546D01*
X150410335Y-118556766D01*
X149951115Y-117448110D01*
X149951115Y-117448110D01*
G37*
D12*
X143510000Y-117010000D03*
X143510000Y-119210000D03*
D10*
G36*
X136802133Y-114956356D02*
X137910789Y-115415576D01*
X137451569Y-116524232D01*
X136342913Y-116065012D01*
X136802133Y-114956356D01*
X136802133Y-114956356D01*
G37*
G36*
X135960229Y-116988890D02*
X137068885Y-117448110D01*
X136609665Y-118556766D01*
X135501009Y-118097546D01*
X135960229Y-116988890D01*
X135960229Y-116988890D01*
G37*
G36*
X131715477Y-111275995D02*
X132564005Y-112124523D01*
X131715477Y-112973051D01*
X130866949Y-112124523D01*
X131715477Y-111275995D01*
X131715477Y-111275995D01*
G37*
G36*
X130159843Y-112831629D02*
X131008371Y-113680157D01*
X130159843Y-114528685D01*
X129311315Y-113680157D01*
X130159843Y-112831629D01*
X130159843Y-112831629D01*
G37*
G36*
X128424424Y-105929211D02*
X128883644Y-107037867D01*
X127774988Y-107497087D01*
X127315768Y-106388431D01*
X128424424Y-105929211D01*
X128424424Y-105929211D01*
G37*
G36*
X126391890Y-106771115D02*
X126851110Y-107879771D01*
X125742454Y-108338991D01*
X125283234Y-107230335D01*
X126391890Y-106771115D01*
X126391890Y-106771115D01*
G37*
D12*
X126830000Y-100330000D03*
X124630000Y-100330000D03*
D10*
G36*
X128883644Y-93622133D02*
X128424424Y-94730789D01*
X127315768Y-94271569D01*
X127774988Y-93162913D01*
X128883644Y-93622133D01*
X128883644Y-93622133D01*
G37*
G36*
X126851110Y-92780229D02*
X126391890Y-93888885D01*
X125283234Y-93429665D01*
X125742454Y-92321009D01*
X126851110Y-92780229D01*
X126851110Y-92780229D01*
G37*
G36*
X132564005Y-88535477D02*
X131715477Y-89384005D01*
X130866949Y-88535477D01*
X131715477Y-87686949D01*
X132564005Y-88535477D01*
X132564005Y-88535477D01*
G37*
G36*
X131008371Y-86979843D02*
X130159843Y-87828371D01*
X129311315Y-86979843D01*
X130159843Y-86131315D01*
X131008371Y-86979843D01*
X131008371Y-86979843D01*
G37*
G36*
X137910789Y-85244424D02*
X136802133Y-85703644D01*
X136342913Y-84594988D01*
X137451569Y-84135768D01*
X137910789Y-85244424D01*
X137910789Y-85244424D01*
G37*
G36*
X137068885Y-83211890D02*
X135960229Y-83671110D01*
X135501009Y-82562454D01*
X136609665Y-82103234D01*
X137068885Y-83211890D01*
X137068885Y-83211890D01*
G37*
D13*
X142560000Y-86995000D03*
X144460000Y-86995000D03*
D14*
X141605000Y-113190000D03*
X142875000Y-113190000D03*
X144145000Y-113190000D03*
X145415000Y-113190000D03*
X145415000Y-107790000D03*
X144145000Y-107790000D03*
X142875000Y-107790000D03*
X141605000Y-107790000D03*
D15*
X142860000Y-91755000D03*
X144160000Y-91755000D03*
X143510000Y-91755000D03*
X144160000Y-89855000D03*
X142860000Y-89855000D03*
D11*
X149700000Y-95885000D03*
X149700000Y-97155000D03*
X149700000Y-98425000D03*
X149700000Y-99695000D03*
X149700000Y-100965000D03*
X149700000Y-102235000D03*
X149700000Y-103505000D03*
X149700000Y-104775000D03*
X155100000Y-104775000D03*
X155100000Y-103505000D03*
X155100000Y-102235000D03*
X155100000Y-100965000D03*
X155100000Y-99695000D03*
X155100000Y-98425000D03*
X155100000Y-97155000D03*
X155100000Y-95885000D03*
D16*
X145760000Y-104310000D03*
X141260000Y-104310000D03*
X141260000Y-96350000D03*
X145760000Y-96350000D03*
D17*
X135525000Y-111760000D03*
X137525000Y-111760000D03*
X149495000Y-111760000D03*
X151495000Y-111760000D03*
D13*
X133670000Y-107950000D03*
X135570000Y-107950000D03*
X151450000Y-107950000D03*
X153350000Y-107950000D03*
D18*
X146685000Y-88900000D03*
X156210000Y-93980000D03*
X151130000Y-106045000D03*
X153035000Y-113665000D03*
X139065000Y-111760000D03*
X141605000Y-114935000D03*
X133985000Y-105410000D03*
X146050000Y-91440000D03*
X146050000Y-86995000D03*
X147955000Y-98425000D03*
X139700000Y-98425000D03*
X152400000Y-97790000D03*
X151765000Y-102235000D03*
X157480000Y-105410000D03*
X150495000Y-93980000D03*
X148590000Y-114300000D03*
X154940000Y-109855000D03*
X132715000Y-106045000D03*
X130175000Y-97155000D03*
X130175000Y-106045000D03*
X127635000Y-103505000D03*
X127000000Y-97790000D03*
X134620000Y-104140000D03*
X146050000Y-93345000D03*
X158115000Y-96520000D03*
X144145000Y-111760000D03*
X143510000Y-102870000D03*
X143510000Y-97790000D03*
X144145000Y-94615000D03*
X142240000Y-93345000D03*
X153670000Y-93980000D03*
X135255000Y-98425000D03*
X137160000Y-93980000D03*
X156845000Y-97155000D03*
X139065000Y-100330000D03*
X143510000Y-104140000D03*
X153670000Y-109855000D03*
X147955000Y-111125000D03*
X140335000Y-109855000D03*
X142875000Y-109855000D03*
X149860000Y-106680000D03*
X147955000Y-108585000D03*
X137160000Y-107950000D03*
X145415000Y-106045000D03*
D19*
X155100000Y-95885000D02*
X155100000Y-94455000D01*
X147320000Y-89535000D02*
X147320000Y-90170000D01*
X146685000Y-88900000D02*
X147320000Y-89535000D01*
X155100000Y-94455000D02*
X156210000Y-93980000D01*
X144145000Y-110490000D02*
X143510000Y-111125000D01*
X145415000Y-111760000D02*
X145415000Y-110490000D01*
X142875000Y-111125000D02*
X141605000Y-111125000D01*
X145415000Y-110490000D02*
X144145000Y-110490000D01*
X141605000Y-111125000D02*
X141605000Y-107790000D01*
X143510000Y-111125000D02*
X142875000Y-111125000D01*
X133670000Y-107950000D02*
X133670000Y-106995000D01*
X134620000Y-106045000D02*
X141605000Y-106045000D01*
X133670000Y-106995000D02*
X134620000Y-106045000D01*
X145415000Y-113190000D02*
X145415000Y-111760000D01*
X145415000Y-111760000D02*
X145415000Y-111760000D01*
X142860000Y-89855000D02*
X142860000Y-90790000D01*
X147320000Y-95250000D02*
X146220000Y-96350000D01*
X147320000Y-90170000D02*
X147320000Y-92075000D01*
X147320000Y-92075000D02*
X147320000Y-95250000D01*
X145415000Y-90170000D02*
X147320000Y-90170000D01*
X144780000Y-90805000D02*
X145415000Y-90170000D01*
X142875000Y-90805000D02*
X144780000Y-90805000D01*
X142860000Y-90790000D02*
X142875000Y-90805000D01*
X146220000Y-96350000D02*
X145760000Y-96350000D01*
X145760000Y-96350000D02*
X146220000Y-96350000D01*
X145760000Y-96350000D02*
X143975000Y-96350000D01*
X138590000Y-94615000D02*
X137320000Y-95885000D01*
X142240000Y-94615000D02*
X138590000Y-94615000D01*
X143975000Y-96350000D02*
X143510000Y-95885000D01*
X143510000Y-95885000D02*
X142240000Y-94615000D01*
X145760000Y-96350000D02*
X145760000Y-104310000D01*
X145760000Y-104310000D02*
X144780000Y-105410000D01*
X144780000Y-105410000D02*
X142875000Y-105410000D01*
X142875000Y-105410000D02*
X141605000Y-106045000D01*
X141605000Y-106045000D02*
X141605000Y-107790000D01*
X149700000Y-104775000D02*
X151130000Y-104775000D01*
X151130000Y-104775000D02*
X151130000Y-106045000D01*
X151495000Y-111760000D02*
X151495000Y-112125000D01*
X151495000Y-112125000D02*
X153035000Y-113665000D01*
X137525000Y-111760000D02*
X139065000Y-111760000D01*
X141605000Y-113190000D02*
X141605000Y-114935000D01*
X131920000Y-104775000D02*
X133350000Y-104775000D01*
X133350000Y-104775000D02*
X133350000Y-103505000D01*
X135255000Y-99695000D02*
X137320000Y-99695000D01*
X135255000Y-102235000D02*
X135255000Y-99695000D01*
X134620000Y-102870000D02*
X135255000Y-102235000D01*
X133985000Y-102870000D02*
X134620000Y-102870000D01*
X133350000Y-103505000D02*
X133985000Y-102870000D01*
X133350000Y-104775000D02*
X133985000Y-105410000D01*
X144160000Y-91755000D02*
X145735000Y-91755000D01*
X145735000Y-91755000D02*
X146050000Y-91440000D01*
X144460000Y-86995000D02*
X145415000Y-86995000D01*
X145415000Y-86995000D02*
X146050000Y-86995000D01*
X137320000Y-97155000D02*
X138430000Y-97155000D01*
X147955000Y-98425000D02*
X149700000Y-98425000D01*
X138430000Y-97155000D02*
X139700000Y-98425000D01*
X137320000Y-97155000D02*
X135890000Y-97155000D01*
X141775000Y-83650000D02*
X143510000Y-83650000D01*
X137160000Y-88265000D02*
X141775000Y-83650000D01*
X137160000Y-90170000D02*
X137160000Y-88265000D01*
X135890000Y-92075000D02*
X137160000Y-90170000D01*
X135890000Y-97155000D02*
X135890000Y-92075000D01*
X151032881Y-118110000D02*
X150735053Y-117772828D01*
X150735053Y-117772828D02*
X150735053Y-117869947D01*
X150735053Y-82887172D02*
X150735053Y-82790053D01*
X130159843Y-86979843D02*
X130190157Y-86979843D01*
X130159843Y-87010157D02*
X130159843Y-86979843D01*
X136284947Y-82887172D02*
X136284947Y-82790053D01*
X156860157Y-113680157D02*
X156829843Y-113680157D01*
X156860157Y-113680157D02*
X156860157Y-113680157D01*
X143340000Y-119380000D02*
X143510000Y-119210000D01*
X156860157Y-86979843D02*
X156829843Y-86979843D01*
X156860157Y-87049501D02*
X156860157Y-86979843D01*
X136284947Y-117772828D02*
X136284947Y-117869947D01*
X149700000Y-97155000D02*
X147955000Y-97155000D01*
X149893149Y-86961851D02*
X149893149Y-84919706D01*
X147955000Y-88900000D02*
X149893149Y-86961851D01*
X147955000Y-97155000D02*
X147955000Y-92075000D01*
X147955000Y-92075000D02*
X147955000Y-88900000D01*
X149700000Y-99695000D02*
X151130000Y-99695000D01*
X151765000Y-92710000D02*
X151765000Y-92075000D01*
X151765000Y-92075000D02*
X155304523Y-88535477D01*
X151130000Y-99695000D02*
X151130000Y-96520000D01*
X151130000Y-96520000D02*
X151765000Y-95885000D01*
X151765000Y-95885000D02*
X151765000Y-92710000D01*
X149700000Y-103505000D02*
X150495000Y-103505000D01*
X152400000Y-93345000D02*
X153035000Y-92676851D01*
X153035000Y-92676851D02*
X156845000Y-92676851D01*
X156845000Y-92676851D02*
X157480000Y-93946851D01*
X157480000Y-93946851D02*
X158920294Y-93946851D01*
X152366851Y-93378149D02*
X152400000Y-93345000D01*
X152400000Y-97155000D02*
X152366851Y-93378149D01*
X152400000Y-97790000D02*
X152400000Y-97155000D01*
X150495000Y-103505000D02*
X151765000Y-102235000D01*
X155100000Y-103505000D02*
X157015000Y-103505000D01*
X157015000Y-103505000D02*
X160190000Y-100330000D01*
X150495000Y-93980000D02*
X150495000Y-95250000D01*
X149700000Y-95885000D02*
X150495000Y-95250000D01*
X157480000Y-105410000D02*
X158783149Y-106713149D01*
X158783149Y-106713149D02*
X158920294Y-106713149D01*
X149700000Y-100965000D02*
X153035000Y-100965000D01*
X152400000Y-109855000D02*
X154669523Y-112124523D01*
X153035000Y-100965000D02*
X153035000Y-104775000D01*
X153035000Y-104775000D02*
X152400000Y-105410000D01*
X152400000Y-105410000D02*
X152400000Y-109855000D01*
X154669523Y-112124523D02*
X155304523Y-112124523D01*
X149700000Y-102235000D02*
X147955000Y-102235000D01*
X149893149Y-114266851D02*
X149893149Y-115740294D01*
X150495000Y-113665000D02*
X149893149Y-114266851D01*
X150495000Y-109855000D02*
X150495000Y-113665000D01*
X149225000Y-109855000D02*
X150495000Y-109855000D01*
X149225000Y-107950000D02*
X149225000Y-109855000D01*
X147955000Y-106680000D02*
X149225000Y-107950000D01*
X147955000Y-102235000D02*
X147955000Y-106680000D01*
X149893149Y-115536851D02*
X149893149Y-115740294D01*
X155100000Y-104775000D02*
X155100000Y-109695000D01*
X145880000Y-117010000D02*
X143510000Y-117010000D01*
X148590000Y-114300000D02*
X145880000Y-117010000D01*
X155100000Y-109695000D02*
X154940000Y-109855000D01*
X143340000Y-116840000D02*
X143510000Y-117010000D01*
X131920000Y-97155000D02*
X130175000Y-97155000D01*
X133985000Y-112598443D02*
X137126851Y-115740294D01*
X133985000Y-111760000D02*
X133985000Y-112598443D01*
X132715000Y-110490000D02*
X133985000Y-111760000D01*
X132715000Y-106045000D02*
X132715000Y-110490000D01*
X137320000Y-115547145D02*
X137126851Y-115740294D01*
X131920000Y-99695000D02*
X130175000Y-99695000D01*
X131715477Y-107585477D02*
X131715477Y-112124523D01*
X130175000Y-106045000D02*
X131715477Y-107585477D01*
X127635000Y-102235000D02*
X127635000Y-103505000D01*
X130175000Y-99695000D02*
X127635000Y-102235000D01*
X131920000Y-103505000D02*
X130175000Y-103505000D01*
X128099706Y-105580294D02*
X128099706Y-106713149D01*
X130175000Y-103505000D02*
X128099706Y-105580294D01*
X137320000Y-103505000D02*
X135255000Y-103505000D01*
X135255000Y-103505000D02*
X134620000Y-104140000D01*
X127000000Y-97790000D02*
X127000000Y-99292702D01*
X127000000Y-99292702D02*
X127000000Y-99292702D01*
X127000000Y-99292702D02*
X127000000Y-99292702D01*
X127000000Y-99292702D02*
X126830000Y-99865000D01*
X126830000Y-99865000D02*
X126830000Y-100330000D01*
X131920000Y-95885000D02*
X130037855Y-95885000D01*
X130037855Y-95885000D02*
X128099706Y-93946851D01*
X131920000Y-100965000D02*
X133350000Y-100965000D01*
X133350000Y-90170000D02*
X131715477Y-88535477D01*
X133350000Y-100965000D02*
X133350000Y-90170000D01*
X131920000Y-102235000D02*
X133985000Y-102235000D01*
X135890000Y-86156557D02*
X137126851Y-84919706D01*
X135890000Y-88265000D02*
X135890000Y-86156557D01*
X133985000Y-90170000D02*
X135890000Y-88265000D01*
X133985000Y-102235000D02*
X133985000Y-90170000D01*
X155100000Y-98425000D02*
X157480000Y-98425000D01*
X146050000Y-93345000D02*
X143510000Y-93345000D01*
X158115000Y-97790000D02*
X158115000Y-96520000D01*
X157480000Y-98425000D02*
X158115000Y-97790000D01*
X143510000Y-91755000D02*
X143510000Y-93345000D01*
X143510000Y-93345000D02*
X143510000Y-93980000D01*
X144145000Y-111760000D02*
X144145000Y-113190000D01*
X144145000Y-111760000D02*
X144145000Y-111760000D01*
X143510000Y-97790000D02*
X143510000Y-102870000D01*
X143510000Y-93980000D02*
X144145000Y-94615000D01*
X153670000Y-99695000D02*
X153670000Y-99060000D01*
X142860000Y-92725000D02*
X142860000Y-91755000D01*
X142240000Y-93345000D02*
X142860000Y-92725000D01*
X153670000Y-99060000D02*
X153670000Y-96520000D01*
X153670000Y-96520000D02*
X153670000Y-93980000D01*
X155100000Y-102235000D02*
X153670000Y-102235000D01*
X153670000Y-99695000D02*
X155100000Y-99695000D01*
X153670000Y-102235000D02*
X153670000Y-99695000D01*
X144160000Y-89855000D02*
X144160000Y-88915000D01*
X135255000Y-98425000D02*
X137320000Y-98425000D01*
X142240000Y-88900000D02*
X137160000Y-93980000D01*
X144145000Y-88900000D02*
X142240000Y-88900000D01*
X144160000Y-88915000D02*
X144145000Y-88900000D01*
X137320000Y-104775000D02*
X139065000Y-104775000D01*
X156845000Y-97155000D02*
X155100000Y-97155000D01*
X139065000Y-104775000D02*
X139065000Y-100330000D01*
X143045000Y-104310000D02*
X141260000Y-104310000D01*
X143510000Y-104140000D02*
X143045000Y-104310000D01*
X141260000Y-96350000D02*
X141260000Y-104310000D01*
X141260000Y-104310000D02*
X141430000Y-104140000D01*
X144145000Y-109220000D02*
X145415000Y-109220000D01*
X145415000Y-109220000D02*
X146685000Y-111125000D01*
X146685000Y-111125000D02*
X146685000Y-111125000D01*
X153670000Y-109855000D02*
X153670000Y-108585000D01*
X146685000Y-111125000D02*
X147955000Y-111125000D01*
X153670000Y-108585000D02*
X153350000Y-108265000D01*
X153350000Y-108265000D02*
X153350000Y-107950000D01*
X142875000Y-113190000D02*
X142875000Y-111760000D01*
X140335000Y-111760000D02*
X140335000Y-109855000D01*
X142875000Y-111760000D02*
X140335000Y-111760000D01*
X144145000Y-107790000D02*
X144145000Y-109220000D01*
X135525000Y-110855000D02*
X135525000Y-111760000D01*
X136525000Y-109855000D02*
X135525000Y-110855000D01*
X140335000Y-109855000D02*
X136525000Y-109855000D01*
X143510000Y-109855000D02*
X142875000Y-109855000D01*
X144145000Y-109220000D02*
X143510000Y-109855000D01*
X145415000Y-107790000D02*
X145415000Y-107950000D01*
X145415000Y-107950000D02*
X147320000Y-109855000D01*
X147320000Y-109855000D02*
X147955000Y-109855000D01*
X147955000Y-109855000D02*
X149495000Y-111395000D01*
X149495000Y-111395000D02*
X149495000Y-111760000D01*
X145415000Y-106045000D02*
X147955000Y-108585000D01*
X149860000Y-106680000D02*
X151130000Y-107950000D01*
X151130000Y-107950000D02*
X151450000Y-107950000D01*
X142875000Y-107790000D02*
X142875000Y-106680000D01*
X137160000Y-107950000D02*
X135570000Y-107950000D01*
X143510000Y-106045000D02*
X145415000Y-106045000D01*
X142875000Y-106680000D02*
X143510000Y-106045000D01*
G36*
X147564949Y-79850995D02*
X151465451Y-81028627D01*
X155062931Y-82941440D01*
X158220366Y-85516582D01*
X160817482Y-88655956D01*
X162755363Y-92239993D01*
X163960195Y-96132173D01*
X164389604Y-100217721D01*
X164389879Y-100296519D01*
X163989005Y-104384949D01*
X162811372Y-108285454D01*
X160898560Y-111882931D01*
X158323418Y-115040366D01*
X155184044Y-117637482D01*
X151600010Y-119575362D01*
X147707822Y-120780196D01*
X143622279Y-121209604D01*
X143543481Y-121209879D01*
X139455051Y-120809005D01*
X135554546Y-119631372D01*
X135299479Y-119495750D01*
X142275000Y-119495750D01*
X142275000Y-119872542D01*
X142299403Y-119995223D01*
X142347270Y-120110785D01*
X142416763Y-120214789D01*
X142505211Y-120303237D01*
X142609215Y-120372730D01*
X142724777Y-120420597D01*
X142847458Y-120445000D01*
X143224250Y-120445000D01*
X143383000Y-120286250D01*
X143383000Y-119337000D01*
X143637000Y-119337000D01*
X143637000Y-120286250D01*
X143795750Y-120445000D01*
X144172542Y-120445000D01*
X144295223Y-120420597D01*
X144410785Y-120372730D01*
X144514789Y-120303237D01*
X144603237Y-120214789D01*
X144672730Y-120110785D01*
X144720597Y-119995223D01*
X144745000Y-119872542D01*
X144745000Y-119495750D01*
X144586250Y-119337000D01*
X143637000Y-119337000D01*
X143383000Y-119337000D01*
X142433750Y-119337000D01*
X142275000Y-119495750D01*
X135299479Y-119495750D01*
X134020592Y-118815754D01*
X135990417Y-118815754D01*
X136076332Y-119023171D01*
X136308879Y-119119495D01*
X136424442Y-119167363D01*
X136547123Y-119191766D01*
X136672206Y-119191766D01*
X136794887Y-119167363D01*
X136910450Y-119119496D01*
X137014454Y-119050002D01*
X137102901Y-118961555D01*
X137172394Y-118857551D01*
X137316586Y-118509441D01*
X137230672Y-118302024D01*
X136353679Y-117938761D01*
X135990417Y-118815754D01*
X134020592Y-118815754D01*
X132552214Y-118035004D01*
X134866009Y-118035004D01*
X134866009Y-118160087D01*
X134890412Y-118282768D01*
X134938279Y-118398331D01*
X135007773Y-118502335D01*
X135096220Y-118590782D01*
X135200224Y-118660275D01*
X135315787Y-118708143D01*
X135548334Y-118804467D01*
X135755751Y-118718553D01*
X136119014Y-117841560D01*
X135242021Y-117478298D01*
X135034604Y-117564213D01*
X134890412Y-117912323D01*
X134866009Y-118035004D01*
X132552214Y-118035004D01*
X131957069Y-117718560D01*
X128799634Y-115143418D01*
X128292985Y-114530983D01*
X129488622Y-114530983D01*
X129488622Y-114755490D01*
X129755054Y-115021922D01*
X129859058Y-115091415D01*
X129974620Y-115139282D01*
X130097301Y-115163685D01*
X130222385Y-115163685D01*
X130345066Y-115139282D01*
X130460628Y-115091415D01*
X130564632Y-115021922D01*
X130831064Y-114755490D01*
X130831064Y-114530983D01*
X130159843Y-113859762D01*
X129488622Y-114530983D01*
X128292985Y-114530983D01*
X127537381Y-113617615D01*
X128676315Y-113617615D01*
X128676315Y-113742699D01*
X128700718Y-113865380D01*
X128748585Y-113980942D01*
X128818078Y-114084946D01*
X129084510Y-114351378D01*
X129309017Y-114351378D01*
X129980238Y-113680157D01*
X129309017Y-113008936D01*
X129084510Y-113008936D01*
X128818078Y-113275368D01*
X128748585Y-113379372D01*
X128700718Y-113494934D01*
X128676315Y-113617615D01*
X127537381Y-113617615D01*
X126202518Y-112004044D01*
X124264638Y-108420010D01*
X124224909Y-108291666D01*
X125035533Y-108291666D01*
X125131857Y-108524213D01*
X125179725Y-108639776D01*
X125249218Y-108743780D01*
X125337665Y-108832227D01*
X125441669Y-108901721D01*
X125557232Y-108949588D01*
X125679913Y-108973991D01*
X125804996Y-108973991D01*
X125927677Y-108949588D01*
X126275787Y-108805396D01*
X126361702Y-108597979D01*
X125998440Y-107720986D01*
X125121447Y-108084249D01*
X125035533Y-108291666D01*
X124224909Y-108291666D01*
X123877013Y-107167794D01*
X124648234Y-107167794D01*
X124648234Y-107292877D01*
X124672637Y-107415558D01*
X124720505Y-107531121D01*
X124816829Y-107763668D01*
X125024246Y-107849583D01*
X125901239Y-107486321D01*
X125537976Y-106609328D01*
X125330559Y-106523414D01*
X124982449Y-106667606D01*
X124878445Y-106737099D01*
X124789998Y-106825546D01*
X124720504Y-106929550D01*
X124672637Y-107045113D01*
X124648234Y-107167794D01*
X123877013Y-107167794D01*
X123059804Y-104527822D01*
X122648629Y-100615750D01*
X123395000Y-100615750D01*
X123395000Y-100992542D01*
X123419403Y-101115223D01*
X123467270Y-101230785D01*
X123536763Y-101334789D01*
X123625211Y-101423237D01*
X123729215Y-101492730D01*
X123844777Y-101540597D01*
X123967458Y-101565000D01*
X124344250Y-101565000D01*
X124503000Y-101406250D01*
X124503000Y-100457000D01*
X123553750Y-100457000D01*
X123395000Y-100615750D01*
X122648629Y-100615750D01*
X122630396Y-100442279D01*
X122630121Y-100363481D01*
X122698366Y-99667458D01*
X123395000Y-99667458D01*
X123395000Y-100044250D01*
X123553750Y-100203000D01*
X124503000Y-100203000D01*
X124503000Y-99253750D01*
X124757000Y-99253750D01*
X124757000Y-100203000D01*
X124777000Y-100203000D01*
X124777000Y-100457000D01*
X124757000Y-100457000D01*
X124757000Y-101406250D01*
X124915750Y-101565000D01*
X125292542Y-101565000D01*
X125415223Y-101540597D01*
X125530785Y-101492730D01*
X125634789Y-101423237D01*
X125723237Y-101334789D01*
X125731773Y-101322015D01*
X125751900Y-101352559D01*
X125888550Y-101469025D01*
X126052237Y-101542810D01*
X126230000Y-101568072D01*
X127224298Y-101568072D01*
X127096185Y-101696185D01*
X127051488Y-101750599D01*
X127006264Y-101804495D01*
X127004336Y-101808003D01*
X127001789Y-101811103D01*
X126968510Y-101873169D01*
X126934619Y-101934816D01*
X126933407Y-101938636D01*
X126931514Y-101942167D01*
X126910939Y-102009464D01*
X126889652Y-102076571D01*
X126889205Y-102080554D01*
X126888034Y-102084385D01*
X126880925Y-102154373D01*
X126873074Y-102224361D01*
X126873019Y-102232197D01*
X126873005Y-102232340D01*
X126873018Y-102232473D01*
X126873000Y-102235000D01*
X126873000Y-102802523D01*
X126838308Y-102836496D01*
X126723634Y-103003972D01*
X126643674Y-103190533D01*
X126601473Y-103389071D01*
X126598639Y-103592026D01*
X126635280Y-103791665D01*
X126710000Y-103980386D01*
X126819953Y-104150999D01*
X126960950Y-104297006D01*
X127127622Y-104412846D01*
X127313620Y-104494106D01*
X127511859Y-104537692D01*
X127714788Y-104541943D01*
X127914679Y-104506697D01*
X128103916Y-104433296D01*
X128275293Y-104324537D01*
X128328522Y-104273848D01*
X127560891Y-105041479D01*
X127516194Y-105095893D01*
X127470970Y-105149789D01*
X127469042Y-105153297D01*
X127466495Y-105156397D01*
X127433216Y-105218463D01*
X127399325Y-105280110D01*
X127398113Y-105283930D01*
X127396220Y-105287461D01*
X127375645Y-105354758D01*
X127354358Y-105421865D01*
X127353911Y-105425848D01*
X127352740Y-105429679D01*
X127345631Y-105499667D01*
X127337780Y-105569655D01*
X127337725Y-105577491D01*
X127337711Y-105577634D01*
X127337724Y-105577767D01*
X127337706Y-105580294D01*
X127337706Y-105688700D01*
X127071589Y-105798929D01*
X126981250Y-105845077D01*
X126843119Y-105959783D01*
X126742413Y-106108430D01*
X126706960Y-106217930D01*
X126692675Y-106208385D01*
X126577112Y-106160518D01*
X126454431Y-106136115D01*
X126329348Y-106136115D01*
X126206667Y-106160518D01*
X125858557Y-106304710D01*
X125772642Y-106512127D01*
X126135904Y-107389120D01*
X126154382Y-107381466D01*
X126251583Y-107616131D01*
X126233105Y-107623785D01*
X126596368Y-108500778D01*
X126803785Y-108586692D01*
X127151895Y-108442500D01*
X127255899Y-108373007D01*
X127344346Y-108284560D01*
X127413840Y-108180556D01*
X127461707Y-108064993D01*
X127464704Y-108049926D01*
X127494987Y-108070442D01*
X127665805Y-108125748D01*
X127845269Y-108131277D01*
X128019167Y-108086589D01*
X129127823Y-107627369D01*
X129218162Y-107581221D01*
X129356293Y-107466515D01*
X129456999Y-107317868D01*
X129512305Y-107147050D01*
X129517834Y-106967586D01*
X129478232Y-106813481D01*
X129500950Y-106837006D01*
X129667622Y-106952846D01*
X129853620Y-107034106D01*
X130051859Y-107077692D01*
X130131735Y-107079365D01*
X130953477Y-107901108D01*
X130953477Y-111135625D01*
X130415764Y-111673338D01*
X130349962Y-111750544D01*
X130266242Y-111909379D01*
X130230087Y-112085249D01*
X130239236Y-112199981D01*
X130222385Y-112196629D01*
X130097301Y-112196629D01*
X129974620Y-112221032D01*
X129859058Y-112268899D01*
X129755054Y-112338392D01*
X129488622Y-112604824D01*
X129488622Y-112829331D01*
X130159843Y-113500552D01*
X130173986Y-113486410D01*
X130353591Y-113666015D01*
X130339448Y-113680157D01*
X131010669Y-114351378D01*
X131235176Y-114351378D01*
X131501608Y-114084946D01*
X131571101Y-113980942D01*
X131618968Y-113865380D01*
X131643371Y-113742699D01*
X131643371Y-113617615D01*
X131640374Y-113602547D01*
X131676203Y-113609913D01*
X131855184Y-113595641D01*
X132023102Y-113532070D01*
X132166662Y-113424236D01*
X133015190Y-112575708D01*
X133080992Y-112498502D01*
X133164712Y-112339667D01*
X133200867Y-112163797D01*
X133191310Y-112043940D01*
X133223000Y-112075631D01*
X133223000Y-112598443D01*
X133229875Y-112668557D01*
X133236004Y-112738613D01*
X133237120Y-112742456D01*
X133237512Y-112746450D01*
X133257877Y-112813903D01*
X133277494Y-112881425D01*
X133279337Y-112884981D01*
X133280496Y-112888819D01*
X133313556Y-112950996D01*
X133345933Y-113013457D01*
X133348432Y-113016587D01*
X133350314Y-113020127D01*
X133394801Y-113074674D01*
X133438714Y-113129683D01*
X133444212Y-113135258D01*
X133444307Y-113135374D01*
X133444415Y-113135463D01*
X133446185Y-113137258D01*
X135863641Y-115554715D01*
X135753411Y-115820833D01*
X135722164Y-115917342D01*
X135705600Y-116096125D01*
X135739500Y-116272445D01*
X135791858Y-116374941D01*
X135775007Y-116378293D01*
X135659444Y-116426160D01*
X135555440Y-116495654D01*
X135466993Y-116584101D01*
X135397500Y-116688105D01*
X135253308Y-117036215D01*
X135339222Y-117243632D01*
X136216215Y-117606895D01*
X136223869Y-117588417D01*
X136458534Y-117685618D01*
X136450880Y-117704096D01*
X137327873Y-118067358D01*
X137535290Y-117981443D01*
X137679482Y-117633333D01*
X137703885Y-117510652D01*
X137703885Y-117385569D01*
X137679482Y-117262888D01*
X137631615Y-117147325D01*
X137623080Y-117134552D01*
X137659002Y-117127645D01*
X137818896Y-117045966D01*
X137949705Y-116922975D01*
X138041071Y-116768411D01*
X138500291Y-115659755D01*
X138531538Y-115563246D01*
X138548102Y-115384463D01*
X138514202Y-115208143D01*
X138432523Y-115048249D01*
X138309532Y-114917440D01*
X138154968Y-114826074D01*
X137046312Y-114366854D01*
X136949803Y-114335607D01*
X136784478Y-114320290D01*
X135487259Y-113023072D01*
X136025000Y-113023072D01*
X136126121Y-113015008D01*
X136297634Y-112961894D01*
X136447559Y-112863100D01*
X136524225Y-112773148D01*
X136546900Y-112807559D01*
X136683550Y-112924025D01*
X136847237Y-112997810D01*
X137025000Y-113023072D01*
X138025000Y-113023072D01*
X138126121Y-113015008D01*
X138297634Y-112961894D01*
X138447559Y-112863100D01*
X138564025Y-112726450D01*
X138585042Y-112679825D01*
X138743620Y-112749106D01*
X138941859Y-112792692D01*
X139144788Y-112796943D01*
X139344679Y-112761697D01*
X139533916Y-112688296D01*
X139705293Y-112579537D01*
X139852281Y-112439563D01*
X139894218Y-112380113D01*
X139904495Y-112388736D01*
X139906834Y-112390022D01*
X139908895Y-112391727D01*
X139972036Y-112425867D01*
X140034816Y-112460381D01*
X140037361Y-112461188D01*
X140039713Y-112462460D01*
X140108238Y-112483672D01*
X140176571Y-112505348D01*
X140179226Y-112505646D01*
X140181779Y-112506436D01*
X140253053Y-112513927D01*
X140324361Y-112521926D01*
X140329497Y-112521962D01*
X140329680Y-112521981D01*
X140329864Y-112521964D01*
X140335000Y-112522000D01*
X140666928Y-112522000D01*
X140666928Y-113965000D01*
X140674992Y-114066121D01*
X140728106Y-114237634D01*
X140777130Y-114312030D01*
X140693634Y-114433972D01*
X140613674Y-114620533D01*
X140571473Y-114819071D01*
X140568639Y-115022026D01*
X140605280Y-115221665D01*
X140680000Y-115410386D01*
X140789953Y-115580999D01*
X140930950Y-115727006D01*
X141097622Y-115842846D01*
X141283620Y-115924106D01*
X141481859Y-115967692D01*
X141684788Y-115971943D01*
X141884679Y-115936697D01*
X142073916Y-115863296D01*
X142245293Y-115754537D01*
X142392281Y-115614563D01*
X142509282Y-115448703D01*
X142591839Y-115263278D01*
X142636807Y-115065348D01*
X142640044Y-114833513D01*
X142600620Y-114634405D01*
X142587706Y-114603072D01*
X143175000Y-114603072D01*
X143276121Y-114595008D01*
X143447634Y-114541894D01*
X143504472Y-114504440D01*
X143667237Y-114577810D01*
X143845000Y-114603072D01*
X144445000Y-114603072D01*
X144546121Y-114595008D01*
X144717634Y-114541894D01*
X144774472Y-114504440D01*
X144937237Y-114577810D01*
X145115000Y-114603072D01*
X145715000Y-114603072D01*
X145816121Y-114595008D01*
X145987634Y-114541894D01*
X146137559Y-114443100D01*
X146254025Y-114306450D01*
X146327810Y-114142763D01*
X146353072Y-113965000D01*
X146353072Y-112415000D01*
X146345008Y-112313879D01*
X146291894Y-112142366D01*
X146193100Y-111992441D01*
X146177000Y-111978719D01*
X146177000Y-111689044D01*
X146200061Y-111708061D01*
X146254495Y-111753736D01*
X146257362Y-111755312D01*
X146259889Y-111757396D01*
X146322535Y-111791142D01*
X146384816Y-111825381D01*
X146387934Y-111826370D01*
X146390817Y-111827923D01*
X146458808Y-111848852D01*
X146526571Y-111870348D01*
X146529823Y-111870713D01*
X146532952Y-111871676D01*
X146603691Y-111878999D01*
X146674361Y-111886926D01*
X146680695Y-111886970D01*
X146680878Y-111886989D01*
X146681056Y-111886973D01*
X146685000Y-111887000D01*
X147251974Y-111887000D01*
X147280950Y-111917006D01*
X147447622Y-112032846D01*
X147633620Y-112114106D01*
X147831859Y-112157692D01*
X148034788Y-112161943D01*
X148234679Y-112126697D01*
X148356928Y-112079279D01*
X148356928Y-112385000D01*
X148364992Y-112486121D01*
X148418106Y-112657634D01*
X148516900Y-112807559D01*
X148653550Y-112924025D01*
X148817237Y-112997810D01*
X148995000Y-113023072D01*
X149733000Y-113023072D01*
X149733000Y-113349370D01*
X149413407Y-113668963D01*
X149395948Y-113642684D01*
X149252926Y-113498660D01*
X149084653Y-113385158D01*
X148897539Y-113306503D01*
X148698710Y-113265689D01*
X148495741Y-113264272D01*
X148296363Y-113302306D01*
X148108168Y-113378341D01*
X147938327Y-113489482D01*
X147793308Y-113631496D01*
X147678634Y-113798972D01*
X147598674Y-113985533D01*
X147556473Y-114184071D01*
X147555456Y-114256913D01*
X145564370Y-116248000D01*
X144721155Y-116248000D01*
X144686894Y-116137366D01*
X144588100Y-115987441D01*
X144451450Y-115870975D01*
X144287763Y-115797190D01*
X144110000Y-115771928D01*
X142910000Y-115771928D01*
X142808879Y-115779992D01*
X142637366Y-115833106D01*
X142487441Y-115931900D01*
X142370975Y-116068550D01*
X142297190Y-116232237D01*
X142271928Y-116410000D01*
X142271928Y-117610000D01*
X142279992Y-117711121D01*
X142333106Y-117882634D01*
X142431900Y-118032559D01*
X142519497Y-118107217D01*
X142505211Y-118116763D01*
X142416763Y-118205211D01*
X142347270Y-118309215D01*
X142299403Y-118424777D01*
X142275000Y-118547458D01*
X142275000Y-118924250D01*
X142433750Y-119083000D01*
X143383000Y-119083000D01*
X143383000Y-119063000D01*
X143637000Y-119063000D01*
X143637000Y-119083000D01*
X144586250Y-119083000D01*
X144745000Y-118924250D01*
X144745000Y-118547458D01*
X144737438Y-118509441D01*
X149703414Y-118509441D01*
X149847606Y-118857551D01*
X149917099Y-118961555D01*
X150005546Y-119050002D01*
X150109550Y-119119496D01*
X150225113Y-119167363D01*
X150347794Y-119191766D01*
X150472877Y-119191766D01*
X150595558Y-119167363D01*
X150711121Y-119119495D01*
X150943668Y-119023171D01*
X151029583Y-118815754D01*
X150666321Y-117938761D01*
X149789328Y-118302024D01*
X149703414Y-118509441D01*
X144737438Y-118509441D01*
X144720597Y-118424777D01*
X144672730Y-118309215D01*
X144603237Y-118205211D01*
X144514789Y-118116763D01*
X144502015Y-118108227D01*
X144532559Y-118088100D01*
X144649025Y-117951450D01*
X144722810Y-117787763D01*
X144725050Y-117772000D01*
X145880000Y-117772000D01*
X145950114Y-117765125D01*
X146020170Y-117758996D01*
X146024013Y-117757880D01*
X146028007Y-117757488D01*
X146095460Y-117737123D01*
X146162982Y-117717506D01*
X146166538Y-117715663D01*
X146170376Y-117714504D01*
X146232553Y-117681444D01*
X146295014Y-117649067D01*
X146298144Y-117646568D01*
X146301684Y-117644686D01*
X146356231Y-117600199D01*
X146411240Y-117556286D01*
X146416815Y-117550788D01*
X146416931Y-117550693D01*
X146417020Y-117550585D01*
X146418815Y-117548815D01*
X148476402Y-115491229D01*
X148519709Y-115659755D01*
X148978929Y-116768411D01*
X149025077Y-116858750D01*
X149139783Y-116996881D01*
X149288430Y-117097587D01*
X149397930Y-117133040D01*
X149388385Y-117147325D01*
X149340518Y-117262888D01*
X149316115Y-117385569D01*
X149316115Y-117510652D01*
X149340518Y-117633333D01*
X149484710Y-117981443D01*
X149692127Y-118067358D01*
X150237252Y-117841560D01*
X150900986Y-117841560D01*
X151264249Y-118718553D01*
X151471666Y-118804467D01*
X151704213Y-118708143D01*
X151819776Y-118660275D01*
X151923780Y-118590782D01*
X152012227Y-118502335D01*
X152081721Y-118398331D01*
X152129588Y-118282768D01*
X152153991Y-118160087D01*
X152153991Y-118035004D01*
X152129588Y-117912323D01*
X151985396Y-117564213D01*
X151777979Y-117478298D01*
X150900986Y-117841560D01*
X150237252Y-117841560D01*
X150569120Y-117704096D01*
X150561466Y-117685618D01*
X150796131Y-117588417D01*
X150803785Y-117606895D01*
X151680778Y-117243632D01*
X151766692Y-117036215D01*
X151622500Y-116688105D01*
X151553007Y-116584101D01*
X151464560Y-116495654D01*
X151360556Y-116426160D01*
X151244993Y-116378293D01*
X151229926Y-116375296D01*
X151250442Y-116345013D01*
X151305748Y-116174195D01*
X151311277Y-115994731D01*
X151266589Y-115820833D01*
X150807369Y-114712177D01*
X150761221Y-114621838D01*
X150695243Y-114542387D01*
X151033815Y-114203815D01*
X151078512Y-114149401D01*
X151123736Y-114095505D01*
X151125664Y-114091997D01*
X151128211Y-114088897D01*
X151161509Y-114026796D01*
X151195381Y-113965184D01*
X151196591Y-113961368D01*
X151198487Y-113957833D01*
X151219075Y-113890490D01*
X151240348Y-113823429D01*
X151240795Y-113819446D01*
X151241966Y-113815615D01*
X151249075Y-113745627D01*
X151256926Y-113675639D01*
X151256981Y-113667803D01*
X151256995Y-113667660D01*
X151256982Y-113667527D01*
X151257000Y-113665000D01*
X151257000Y-113023072D01*
X151315442Y-113023072D01*
X151999269Y-113706899D01*
X151998639Y-113752026D01*
X152035280Y-113951665D01*
X152110000Y-114140386D01*
X152219953Y-114310999D01*
X152360950Y-114457006D01*
X152527622Y-114572846D01*
X152713620Y-114654106D01*
X152911859Y-114697692D01*
X153114788Y-114701943D01*
X153314679Y-114666697D01*
X153503916Y-114593296D01*
X153602105Y-114530983D01*
X156188936Y-114530983D01*
X156188936Y-114755490D01*
X156455368Y-115021922D01*
X156559372Y-115091415D01*
X156674934Y-115139282D01*
X156797615Y-115163685D01*
X156922699Y-115163685D01*
X157045380Y-115139282D01*
X157160942Y-115091415D01*
X157264946Y-115021922D01*
X157531378Y-114755490D01*
X157531378Y-114530983D01*
X156860157Y-113859762D01*
X156188936Y-114530983D01*
X153602105Y-114530983D01*
X153675293Y-114484537D01*
X153822281Y-114344563D01*
X153939282Y-114178703D01*
X154021839Y-113993278D01*
X154066807Y-113795348D01*
X154070044Y-113563513D01*
X154030620Y-113364405D01*
X153953273Y-113176746D01*
X153840948Y-113007684D01*
X153697926Y-112863660D01*
X153529653Y-112750158D01*
X153342539Y-112671503D01*
X153143710Y-112630689D01*
X153077859Y-112630229D01*
X152633072Y-112185442D01*
X152633072Y-111165702D01*
X153895428Y-112428059D01*
X153896976Y-112432148D01*
X154004810Y-112575708D01*
X154853338Y-113424236D01*
X154930544Y-113490038D01*
X155089379Y-113573758D01*
X155265249Y-113609913D01*
X155379981Y-113600764D01*
X155376629Y-113617615D01*
X155376629Y-113742699D01*
X155401032Y-113865380D01*
X155448899Y-113980942D01*
X155518392Y-114084946D01*
X155784824Y-114351378D01*
X156009331Y-114351378D01*
X156680552Y-113680157D01*
X157039762Y-113680157D01*
X157710983Y-114351378D01*
X157935490Y-114351378D01*
X158201922Y-114084946D01*
X158271415Y-113980942D01*
X158319282Y-113865380D01*
X158343685Y-113742699D01*
X158343685Y-113617615D01*
X158319282Y-113494934D01*
X158271415Y-113379372D01*
X158201922Y-113275368D01*
X157935490Y-113008936D01*
X157710983Y-113008936D01*
X157039762Y-113680157D01*
X156680552Y-113680157D01*
X156666410Y-113666015D01*
X156846015Y-113486410D01*
X156860157Y-113500552D01*
X157531378Y-112829331D01*
X157531378Y-112604824D01*
X157264946Y-112338392D01*
X157160942Y-112268899D01*
X157045380Y-112221032D01*
X156922699Y-112196629D01*
X156797615Y-112196629D01*
X156782547Y-112199626D01*
X156789913Y-112163797D01*
X156775641Y-111984816D01*
X156712070Y-111816898D01*
X156604236Y-111673338D01*
X155755708Y-110824810D01*
X155678502Y-110759008D01*
X155552139Y-110692404D01*
X155580293Y-110674537D01*
X155727281Y-110534563D01*
X155844282Y-110368703D01*
X155926839Y-110183278D01*
X155971807Y-109985348D01*
X155975044Y-109753513D01*
X155935620Y-109554405D01*
X155862000Y-109375788D01*
X155862000Y-108597979D01*
X160658298Y-108597979D01*
X160744213Y-108805396D01*
X161092323Y-108949588D01*
X161215004Y-108973991D01*
X161340087Y-108973991D01*
X161462768Y-108949588D01*
X161578331Y-108901721D01*
X161682335Y-108832227D01*
X161770782Y-108743780D01*
X161840275Y-108639776D01*
X161888143Y-108524213D01*
X161984467Y-108291666D01*
X161898553Y-108084249D01*
X161021560Y-107720986D01*
X160658298Y-108597979D01*
X155862000Y-108597979D01*
X155862000Y-105712115D01*
X155951121Y-105705008D01*
X156122634Y-105651894D01*
X156272559Y-105553100D01*
X156389025Y-105416450D01*
X156448510Y-105284486D01*
X156446473Y-105294071D01*
X156443639Y-105497026D01*
X156480280Y-105696665D01*
X156555000Y-105885386D01*
X156664953Y-106055999D01*
X156805950Y-106202006D01*
X156972622Y-106317846D01*
X157158620Y-106399106D01*
X157356859Y-106442692D01*
X157436735Y-106444365D01*
X157616915Y-106624545D01*
X157546854Y-106793688D01*
X157515607Y-106890197D01*
X157499043Y-107068980D01*
X157532943Y-107245300D01*
X157614622Y-107405194D01*
X157737613Y-107536003D01*
X157892177Y-107627369D01*
X159000833Y-108086589D01*
X159097342Y-108117836D01*
X159276125Y-108134400D01*
X159452445Y-108100500D01*
X159554941Y-108048142D01*
X159558293Y-108064993D01*
X159606160Y-108180556D01*
X159675654Y-108284560D01*
X159764101Y-108373007D01*
X159868105Y-108442500D01*
X160216215Y-108586692D01*
X160423632Y-108500778D01*
X160786895Y-107623785D01*
X160768417Y-107616131D01*
X160822185Y-107486321D01*
X161118761Y-107486321D01*
X161995754Y-107849583D01*
X162203171Y-107763668D01*
X162299495Y-107531121D01*
X162347363Y-107415558D01*
X162371766Y-107292877D01*
X162371766Y-107167794D01*
X162347363Y-107045113D01*
X162299496Y-106929550D01*
X162230002Y-106825546D01*
X162141555Y-106737099D01*
X162037551Y-106667606D01*
X161689441Y-106523414D01*
X161482024Y-106609328D01*
X161118761Y-107486321D01*
X160822185Y-107486321D01*
X160865618Y-107381466D01*
X160884096Y-107389120D01*
X161247358Y-106512127D01*
X161161443Y-106304710D01*
X160813333Y-106160518D01*
X160690652Y-106136115D01*
X160565569Y-106136115D01*
X160442888Y-106160518D01*
X160327325Y-106208385D01*
X160314552Y-106216920D01*
X160307645Y-106180998D01*
X160225966Y-106021104D01*
X160102975Y-105890295D01*
X159948411Y-105798929D01*
X158839755Y-105339709D01*
X158743246Y-105308462D01*
X158564463Y-105291898D01*
X158513687Y-105301660D01*
X158475620Y-105109405D01*
X158398273Y-104921746D01*
X158285948Y-104752684D01*
X158142926Y-104608660D01*
X157974653Y-104495158D01*
X157787539Y-104416503D01*
X157588710Y-104375689D01*
X157385741Y-104374272D01*
X157186363Y-104412306D01*
X156998168Y-104488341D01*
X156828327Y-104599482D01*
X156683308Y-104741496D01*
X156568634Y-104908972D01*
X156488674Y-105095533D01*
X156478053Y-105145498D01*
X156488072Y-105075000D01*
X156488072Y-104475000D01*
X156480008Y-104373879D01*
X156446910Y-104267000D01*
X157015000Y-104267000D01*
X157085114Y-104260125D01*
X157155170Y-104253996D01*
X157159013Y-104252880D01*
X157163007Y-104252488D01*
X157230460Y-104232123D01*
X157297982Y-104212506D01*
X157301538Y-104210663D01*
X157305376Y-104209504D01*
X157367553Y-104176444D01*
X157430014Y-104144067D01*
X157433144Y-104141568D01*
X157436684Y-104139686D01*
X157491231Y-104095199D01*
X157546240Y-104051286D01*
X157551815Y-104045788D01*
X157551931Y-104045693D01*
X157552020Y-104045585D01*
X157553815Y-104043815D01*
X160029558Y-101568072D01*
X160790000Y-101568072D01*
X160891121Y-101560008D01*
X161062634Y-101506894D01*
X161212559Y-101408100D01*
X161287217Y-101320503D01*
X161296763Y-101334789D01*
X161385211Y-101423237D01*
X161489215Y-101492730D01*
X161604777Y-101540597D01*
X161727458Y-101565000D01*
X162104250Y-101565000D01*
X162263000Y-101406250D01*
X162263000Y-100457000D01*
X162517000Y-100457000D01*
X162517000Y-101406250D01*
X162675750Y-101565000D01*
X163052542Y-101565000D01*
X163175223Y-101540597D01*
X163290785Y-101492730D01*
X163394789Y-101423237D01*
X163483237Y-101334789D01*
X163552730Y-101230785D01*
X163600597Y-101115223D01*
X163625000Y-100992542D01*
X163625000Y-100615750D01*
X163466250Y-100457000D01*
X162517000Y-100457000D01*
X162263000Y-100457000D01*
X162243000Y-100457000D01*
X162243000Y-100203000D01*
X162263000Y-100203000D01*
X162263000Y-99253750D01*
X162517000Y-99253750D01*
X162517000Y-100203000D01*
X163466250Y-100203000D01*
X163625000Y-100044250D01*
X163625000Y-99667458D01*
X163600597Y-99544777D01*
X163552730Y-99429215D01*
X163483237Y-99325211D01*
X163394789Y-99236763D01*
X163290785Y-99167270D01*
X163175223Y-99119403D01*
X163052542Y-99095000D01*
X162675750Y-99095000D01*
X162517000Y-99253750D01*
X162263000Y-99253750D01*
X162104250Y-99095000D01*
X161727458Y-99095000D01*
X161604777Y-99119403D01*
X161489215Y-99167270D01*
X161385211Y-99236763D01*
X161296763Y-99325211D01*
X161288227Y-99337985D01*
X161268100Y-99307441D01*
X161131450Y-99190975D01*
X160967763Y-99117190D01*
X160790000Y-99091928D01*
X159590000Y-99091928D01*
X159488879Y-99099992D01*
X159317366Y-99153106D01*
X159167441Y-99251900D01*
X159050975Y-99388550D01*
X158977190Y-99552237D01*
X158951928Y-99730000D01*
X158951928Y-100490442D01*
X156699370Y-102743000D01*
X156449180Y-102743000D01*
X156462810Y-102712763D01*
X156488072Y-102535000D01*
X156488072Y-101935000D01*
X156480008Y-101833879D01*
X156426894Y-101662366D01*
X156389440Y-101605528D01*
X156462810Y-101442763D01*
X156488072Y-101265000D01*
X156488072Y-100665000D01*
X156480008Y-100563879D01*
X156426894Y-100392366D01*
X156389440Y-100335528D01*
X156462810Y-100172763D01*
X156488072Y-99995000D01*
X156488072Y-99395000D01*
X156480008Y-99293879D01*
X156446910Y-99187000D01*
X157480000Y-99187000D01*
X157550114Y-99180125D01*
X157620170Y-99173996D01*
X157624013Y-99172880D01*
X157628007Y-99172488D01*
X157695460Y-99152123D01*
X157762982Y-99132506D01*
X157766538Y-99130663D01*
X157770376Y-99129504D01*
X157832553Y-99096444D01*
X157895014Y-99064067D01*
X157898144Y-99061568D01*
X157901684Y-99059686D01*
X157956231Y-99015199D01*
X158011240Y-98971286D01*
X158016815Y-98965788D01*
X158016931Y-98965693D01*
X158017020Y-98965585D01*
X158018815Y-98963815D01*
X158653816Y-98328815D01*
X158698537Y-98274371D01*
X158743736Y-98220505D01*
X158745664Y-98216997D01*
X158748211Y-98213897D01*
X158781499Y-98151815D01*
X158815381Y-98090184D01*
X158816592Y-98086366D01*
X158818487Y-98082832D01*
X158839084Y-98015463D01*
X158860348Y-97948429D01*
X158860794Y-97944451D01*
X158861967Y-97940615D01*
X158869086Y-97870533D01*
X158876926Y-97800639D01*
X158876980Y-97792813D01*
X158876996Y-97792660D01*
X158876982Y-97792517D01*
X158877000Y-97790000D01*
X158877000Y-97223638D01*
X158902281Y-97199563D01*
X159019282Y-97033703D01*
X159101839Y-96848278D01*
X159146807Y-96650348D01*
X159150044Y-96418513D01*
X159110620Y-96219405D01*
X159033273Y-96031746D01*
X158920948Y-95862684D01*
X158777926Y-95718660D01*
X158609653Y-95605158D01*
X158422539Y-95526503D01*
X158223710Y-95485689D01*
X158020741Y-95484272D01*
X157821363Y-95522306D01*
X157633168Y-95598341D01*
X157463327Y-95709482D01*
X157318308Y-95851496D01*
X157203634Y-96018972D01*
X157143353Y-96159617D01*
X156953710Y-96120689D01*
X156750741Y-96119272D01*
X156551363Y-96157306D01*
X156488072Y-96182877D01*
X156488072Y-95585000D01*
X156480008Y-95483879D01*
X156426894Y-95312366D01*
X156328100Y-95162441D01*
X156191450Y-95045975D01*
X156119113Y-95013368D01*
X156289788Y-95016943D01*
X156489679Y-94981697D01*
X156678916Y-94908296D01*
X156850293Y-94799537D01*
X156997281Y-94659563D01*
X157054556Y-94578370D01*
X157076130Y-94590230D01*
X157100902Y-94607857D01*
X157141146Y-94625973D01*
X157179816Y-94647232D01*
X157208791Y-94656423D01*
X157236512Y-94668902D01*
X157279511Y-94678857D01*
X157321571Y-94692199D01*
X157351775Y-94695587D01*
X157381397Y-94702445D01*
X157425512Y-94703858D01*
X157469361Y-94708777D01*
X157480000Y-94708851D01*
X157895845Y-94708851D01*
X158006074Y-94974968D01*
X158052222Y-95065307D01*
X158166928Y-95203438D01*
X158315575Y-95304144D01*
X158486393Y-95359450D01*
X158665857Y-95364979D01*
X158839755Y-95320291D01*
X159948411Y-94861071D01*
X160038750Y-94814923D01*
X160176881Y-94700217D01*
X160277587Y-94551570D01*
X160313040Y-94442070D01*
X160327325Y-94451615D01*
X160442888Y-94499482D01*
X160565569Y-94523885D01*
X160690652Y-94523885D01*
X160813333Y-94499482D01*
X161161443Y-94355290D01*
X161247358Y-94147873D01*
X160884096Y-93270880D01*
X160865618Y-93278534D01*
X160822186Y-93173679D01*
X161118761Y-93173679D01*
X161482024Y-94050672D01*
X161689441Y-94136586D01*
X162037551Y-93992394D01*
X162141555Y-93922901D01*
X162230002Y-93834454D01*
X162299496Y-93730450D01*
X162347363Y-93614887D01*
X162371766Y-93492206D01*
X162371766Y-93367123D01*
X162347363Y-93244442D01*
X162299495Y-93128879D01*
X162203171Y-92896332D01*
X161995754Y-92810417D01*
X161118761Y-93173679D01*
X160822186Y-93173679D01*
X160768417Y-93043869D01*
X160786895Y-93036215D01*
X160423632Y-92159222D01*
X160216215Y-92073308D01*
X159868105Y-92217500D01*
X159764101Y-92286993D01*
X159675654Y-92375440D01*
X159606160Y-92479444D01*
X159558293Y-92595007D01*
X159555296Y-92610074D01*
X159525013Y-92589558D01*
X159354195Y-92534252D01*
X159174731Y-92528723D01*
X159000833Y-92573411D01*
X157892177Y-93032631D01*
X157878361Y-93039689D01*
X157526554Y-92336074D01*
X157503055Y-92298708D01*
X157482614Y-92259608D01*
X157463570Y-92235922D01*
X157447383Y-92210183D01*
X157417076Y-92178096D01*
X157389428Y-92143708D01*
X157366143Y-92124169D01*
X157345267Y-92102067D01*
X157309308Y-92076479D01*
X157292078Y-92062021D01*
X160658298Y-92062021D01*
X161021560Y-92939014D01*
X161898553Y-92575751D01*
X161984467Y-92368334D01*
X161888143Y-92135787D01*
X161840275Y-92020224D01*
X161770782Y-91916220D01*
X161682335Y-91827773D01*
X161578331Y-91758279D01*
X161462768Y-91710412D01*
X161340087Y-91686009D01*
X161215004Y-91686009D01*
X161092323Y-91710412D01*
X160744213Y-91854604D01*
X160658298Y-92062021D01*
X157292078Y-92062021D01*
X157275505Y-92048115D01*
X157248869Y-92033472D01*
X157224098Y-92015845D01*
X157183854Y-91997729D01*
X157145184Y-91976470D01*
X157116209Y-91967279D01*
X157088488Y-91954800D01*
X157045489Y-91944845D01*
X157003429Y-91931503D01*
X156973225Y-91928115D01*
X156943603Y-91921257D01*
X156899488Y-91919844D01*
X156855639Y-91914925D01*
X156845000Y-91914851D01*
X153035000Y-91914851D01*
X153029306Y-91915409D01*
X153023601Y-91914936D01*
X153000026Y-91917604D01*
X154986922Y-89930708D01*
X155089379Y-89984712D01*
X155265249Y-90020867D01*
X155444230Y-90006595D01*
X155612148Y-89943024D01*
X155755708Y-89835190D01*
X156604236Y-88986662D01*
X156670038Y-88909456D01*
X156753758Y-88750621D01*
X156789913Y-88574751D01*
X156780764Y-88460019D01*
X156797615Y-88463371D01*
X156922699Y-88463371D01*
X157045380Y-88438968D01*
X157160942Y-88391101D01*
X157264946Y-88321608D01*
X157531378Y-88055176D01*
X157531378Y-87830669D01*
X156860157Y-87159448D01*
X156846015Y-87173591D01*
X156666410Y-86993986D01*
X156680552Y-86979843D01*
X157039762Y-86979843D01*
X157710983Y-87651064D01*
X157935490Y-87651064D01*
X158201922Y-87384632D01*
X158271415Y-87280628D01*
X158319282Y-87165066D01*
X158343685Y-87042385D01*
X158343685Y-86917301D01*
X158319282Y-86794620D01*
X158271415Y-86679058D01*
X158201922Y-86575054D01*
X157935490Y-86308622D01*
X157710983Y-86308622D01*
X157039762Y-86979843D01*
X156680552Y-86979843D01*
X156009331Y-86308622D01*
X155784824Y-86308622D01*
X155518392Y-86575054D01*
X155448899Y-86679058D01*
X155401032Y-86794620D01*
X155376629Y-86917301D01*
X155376629Y-87042385D01*
X155379626Y-87057453D01*
X155343797Y-87050087D01*
X155164816Y-87064359D01*
X154996898Y-87127930D01*
X154853338Y-87235764D01*
X154004810Y-88084292D01*
X153939008Y-88161498D01*
X153855288Y-88320333D01*
X153819133Y-88496203D01*
X153833405Y-88675184D01*
X153896976Y-88843102D01*
X153906538Y-88855832D01*
X151226185Y-91536185D01*
X151181488Y-91590599D01*
X151136264Y-91644495D01*
X151134336Y-91648003D01*
X151131789Y-91651103D01*
X151098510Y-91713169D01*
X151064619Y-91774816D01*
X151063407Y-91778636D01*
X151061514Y-91782167D01*
X151040939Y-91849464D01*
X151019652Y-91916571D01*
X151019205Y-91920554D01*
X151018034Y-91924385D01*
X151010925Y-91994373D01*
X151003074Y-92064361D01*
X151003019Y-92072197D01*
X151003005Y-92072340D01*
X151003018Y-92072473D01*
X151003000Y-92075000D01*
X151003000Y-93074161D01*
X150989653Y-93065158D01*
X150802539Y-92986503D01*
X150603710Y-92945689D01*
X150400741Y-92944272D01*
X150201363Y-92982306D01*
X150013168Y-93058341D01*
X149843327Y-93169482D01*
X149698308Y-93311496D01*
X149583634Y-93478972D01*
X149503674Y-93665533D01*
X149461473Y-93864071D01*
X149458639Y-94067026D01*
X149495280Y-94266665D01*
X149570000Y-94455386D01*
X149679953Y-94625999D01*
X149733000Y-94680931D01*
X149733000Y-94883404D01*
X149653470Y-94946928D01*
X148950000Y-94946928D01*
X148848879Y-94954992D01*
X148717000Y-94995832D01*
X148717000Y-89215630D01*
X150431965Y-87500666D01*
X150476686Y-87446222D01*
X150521885Y-87392356D01*
X150523813Y-87388848D01*
X150526360Y-87385748D01*
X150559648Y-87323666D01*
X150593530Y-87262035D01*
X150594741Y-87258217D01*
X150596636Y-87254683D01*
X150617233Y-87187314D01*
X150638497Y-87120280D01*
X150638943Y-87116302D01*
X150640116Y-87112466D01*
X150647235Y-87042384D01*
X150655075Y-86972490D01*
X150655129Y-86964664D01*
X150655145Y-86964511D01*
X150655131Y-86964368D01*
X150655149Y-86961851D01*
X150655149Y-86159604D01*
X150716003Y-86102387D01*
X150807369Y-85947823D01*
X150825309Y-85904510D01*
X156188936Y-85904510D01*
X156188936Y-86129017D01*
X156860157Y-86800238D01*
X157531378Y-86129017D01*
X157531378Y-85904510D01*
X157264946Y-85638078D01*
X157160942Y-85568585D01*
X157045380Y-85520718D01*
X156922699Y-85496315D01*
X156797615Y-85496315D01*
X156674934Y-85520718D01*
X156559372Y-85568585D01*
X156455368Y-85638078D01*
X156188936Y-85904510D01*
X150825309Y-85904510D01*
X151266589Y-84839167D01*
X151297836Y-84742658D01*
X151314400Y-84563875D01*
X151280500Y-84387555D01*
X151228142Y-84285059D01*
X151244993Y-84281707D01*
X151360556Y-84233840D01*
X151464560Y-84164346D01*
X151553007Y-84075899D01*
X151622500Y-83971895D01*
X151766692Y-83623785D01*
X151680778Y-83416368D01*
X150803785Y-83053105D01*
X150796131Y-83071583D01*
X150561466Y-82974382D01*
X150569120Y-82955904D01*
X150237253Y-82818440D01*
X150900986Y-82818440D01*
X151777979Y-83181702D01*
X151985396Y-83095787D01*
X152129588Y-82747677D01*
X152153991Y-82624996D01*
X152153991Y-82499913D01*
X152129588Y-82377232D01*
X152081721Y-82261669D01*
X152012227Y-82157665D01*
X151923780Y-82069218D01*
X151819776Y-81999725D01*
X151704213Y-81951857D01*
X151471666Y-81855533D01*
X151264249Y-81941447D01*
X150900986Y-82818440D01*
X150237253Y-82818440D01*
X149692127Y-82592642D01*
X149484710Y-82678557D01*
X149340518Y-83026667D01*
X149316115Y-83149348D01*
X149316115Y-83274431D01*
X149340518Y-83397112D01*
X149388385Y-83512675D01*
X149396920Y-83525448D01*
X149360998Y-83532355D01*
X149201104Y-83614034D01*
X149070295Y-83737025D01*
X148978929Y-83891589D01*
X148519709Y-85000245D01*
X148488462Y-85096754D01*
X148471898Y-85275537D01*
X148505798Y-85451857D01*
X148587477Y-85611751D01*
X148710468Y-85742560D01*
X148865032Y-85833926D01*
X149131149Y-85944155D01*
X149131149Y-86646220D01*
X147508407Y-88268962D01*
X147490948Y-88242684D01*
X147347926Y-88098660D01*
X147179653Y-87985158D01*
X146992539Y-87906503D01*
X146793710Y-87865689D01*
X146611693Y-87864418D01*
X146690293Y-87814537D01*
X146837281Y-87674563D01*
X146954282Y-87508703D01*
X147036839Y-87323278D01*
X147081807Y-87125348D01*
X147085044Y-86893513D01*
X147045620Y-86694405D01*
X146968273Y-86506746D01*
X146855948Y-86337684D01*
X146712926Y-86193660D01*
X146544653Y-86080158D01*
X146357539Y-86001503D01*
X146158710Y-85960689D01*
X145955741Y-85959272D01*
X145756363Y-85997306D01*
X145568168Y-86073341D01*
X145417690Y-86171811D01*
X145386894Y-86072366D01*
X145288100Y-85922441D01*
X145151450Y-85805975D01*
X144987763Y-85732190D01*
X144810000Y-85706928D01*
X144110000Y-85706928D01*
X144008879Y-85714992D01*
X143837366Y-85768106D01*
X143687441Y-85866900D01*
X143570975Y-86003550D01*
X143510998Y-86136604D01*
X143472730Y-86044215D01*
X143403237Y-85940211D01*
X143314789Y-85851763D01*
X143210785Y-85782270D01*
X143095223Y-85734403D01*
X142972542Y-85710000D01*
X142845750Y-85710000D01*
X142687000Y-85868750D01*
X142687000Y-86868000D01*
X142707000Y-86868000D01*
X142707000Y-87122000D01*
X142687000Y-87122000D01*
X142687000Y-87142000D01*
X142433000Y-87142000D01*
X142433000Y-87122000D01*
X141733750Y-87122000D01*
X141575000Y-87280750D01*
X141575000Y-87707542D01*
X141599403Y-87830223D01*
X141647270Y-87945785D01*
X141716763Y-88049789D01*
X141805211Y-88138237D01*
X141909215Y-88207730D01*
X141918996Y-88211781D01*
X141887447Y-88228556D01*
X141824986Y-88260933D01*
X141821856Y-88263432D01*
X141818316Y-88265314D01*
X141763769Y-88309801D01*
X141708760Y-88353714D01*
X141703185Y-88359212D01*
X141703069Y-88359307D01*
X141702980Y-88359415D01*
X141701185Y-88361185D01*
X137117735Y-92944635D01*
X137065741Y-92944272D01*
X136866363Y-92982306D01*
X136678168Y-93058341D01*
X136652000Y-93075465D01*
X136652000Y-92305715D01*
X137794022Y-90592682D01*
X137826833Y-90531207D01*
X137860381Y-90470184D01*
X137861814Y-90465667D01*
X137864047Y-90461483D01*
X137884291Y-90394811D01*
X137905348Y-90328429D01*
X137905876Y-90323718D01*
X137907254Y-90319181D01*
X137914160Y-90249873D01*
X137921926Y-90180639D01*
X137921991Y-90171277D01*
X137921999Y-90171198D01*
X137921992Y-90171127D01*
X137922000Y-90170000D01*
X137922000Y-88580630D01*
X140220172Y-86282458D01*
X141575000Y-86282458D01*
X141575000Y-86709250D01*
X141733750Y-86868000D01*
X142433000Y-86868000D01*
X142433000Y-85868750D01*
X142274250Y-85710000D01*
X142147458Y-85710000D01*
X142024777Y-85734403D01*
X141909215Y-85782270D01*
X141805211Y-85851763D01*
X141716763Y-85940211D01*
X141647270Y-86044215D01*
X141599403Y-86159777D01*
X141575000Y-86282458D01*
X140220172Y-86282458D01*
X142090631Y-84412000D01*
X142298845Y-84412000D01*
X142333106Y-84522634D01*
X142431900Y-84672559D01*
X142568550Y-84789025D01*
X142732237Y-84862810D01*
X142910000Y-84888072D01*
X144110000Y-84888072D01*
X144211121Y-84880008D01*
X144382634Y-84826894D01*
X144532559Y-84728100D01*
X144649025Y-84591450D01*
X144722810Y-84427763D01*
X144748072Y-84250000D01*
X144748072Y-83050000D01*
X144740008Y-82948879D01*
X144686894Y-82777366D01*
X144588100Y-82627441D01*
X144500503Y-82552783D01*
X144514789Y-82543237D01*
X144603237Y-82454789D01*
X144672730Y-82350785D01*
X144720597Y-82235223D01*
X144737437Y-82150559D01*
X149703414Y-82150559D01*
X149789328Y-82357976D01*
X150666321Y-82721239D01*
X151029583Y-81844246D01*
X150943668Y-81636829D01*
X150711121Y-81540505D01*
X150595558Y-81492637D01*
X150472877Y-81468234D01*
X150347794Y-81468234D01*
X150225113Y-81492637D01*
X150109550Y-81540504D01*
X150005546Y-81609998D01*
X149917099Y-81698445D01*
X149847606Y-81802449D01*
X149703414Y-82150559D01*
X144737437Y-82150559D01*
X144745000Y-82112542D01*
X144745000Y-81735750D01*
X144586250Y-81577000D01*
X143637000Y-81577000D01*
X143637000Y-81597000D01*
X143383000Y-81597000D01*
X143383000Y-81577000D01*
X142433750Y-81577000D01*
X142275000Y-81735750D01*
X142275000Y-82112542D01*
X142299403Y-82235223D01*
X142347270Y-82350785D01*
X142416763Y-82454789D01*
X142505211Y-82543237D01*
X142517985Y-82551773D01*
X142487441Y-82571900D01*
X142370975Y-82708550D01*
X142297190Y-82872237D01*
X142294950Y-82888000D01*
X141775000Y-82888000D01*
X141704936Y-82894870D01*
X141634830Y-82901003D01*
X141630982Y-82902121D01*
X141626993Y-82902512D01*
X141559628Y-82922851D01*
X141492018Y-82942493D01*
X141488458Y-82944339D01*
X141484624Y-82945496D01*
X141422482Y-82978537D01*
X141359986Y-83010933D01*
X141356856Y-83013432D01*
X141353316Y-83015314D01*
X141298769Y-83059801D01*
X141243760Y-83103714D01*
X141238181Y-83109216D01*
X141238069Y-83109307D01*
X141237983Y-83109411D01*
X141236185Y-83111184D01*
X136652000Y-87695370D01*
X136652000Y-86472187D01*
X136788925Y-86335262D01*
X136872414Y-86337834D01*
X137046312Y-86293146D01*
X138154968Y-85833926D01*
X138245307Y-85787778D01*
X138383438Y-85673072D01*
X138484144Y-85524425D01*
X138539450Y-85353607D01*
X138544979Y-85174143D01*
X138500291Y-85000245D01*
X138041071Y-83891589D01*
X137994923Y-83801250D01*
X137880217Y-83663119D01*
X137731570Y-83562413D01*
X137622070Y-83526960D01*
X137631615Y-83512675D01*
X137679482Y-83397112D01*
X137703885Y-83274431D01*
X137703885Y-83149348D01*
X137679482Y-83026667D01*
X137535290Y-82678557D01*
X137327873Y-82592642D01*
X136450880Y-82955904D01*
X136458534Y-82974382D01*
X136223869Y-83071583D01*
X136216215Y-83053105D01*
X135339222Y-83416368D01*
X135253308Y-83623785D01*
X135397500Y-83971895D01*
X135466993Y-84075899D01*
X135555440Y-84164346D01*
X135659444Y-84233840D01*
X135775007Y-84281707D01*
X135790074Y-84284704D01*
X135769558Y-84314987D01*
X135714252Y-84485805D01*
X135708723Y-84665269D01*
X135753411Y-84839167D01*
X135863641Y-85105286D01*
X135351185Y-85617742D01*
X135306488Y-85672156D01*
X135261264Y-85726052D01*
X135259336Y-85729560D01*
X135256789Y-85732660D01*
X135223510Y-85794726D01*
X135189619Y-85856373D01*
X135188407Y-85860193D01*
X135186514Y-85863724D01*
X135165939Y-85931021D01*
X135144652Y-85998128D01*
X135144205Y-86002111D01*
X135143034Y-86005942D01*
X135135925Y-86075930D01*
X135128074Y-86145918D01*
X135128019Y-86153754D01*
X135128005Y-86153897D01*
X135128018Y-86154030D01*
X135128000Y-86156557D01*
X135128000Y-87949370D01*
X133667500Y-89409870D01*
X133110708Y-88853078D01*
X133164712Y-88750621D01*
X133200867Y-88574751D01*
X133186595Y-88395770D01*
X133123024Y-88227852D01*
X133015190Y-88084292D01*
X132166662Y-87235764D01*
X132089456Y-87169962D01*
X131930621Y-87086242D01*
X131754751Y-87050087D01*
X131640019Y-87059236D01*
X131643371Y-87042385D01*
X131643371Y-86917301D01*
X131618968Y-86794620D01*
X131571101Y-86679058D01*
X131501608Y-86575054D01*
X131235176Y-86308622D01*
X131010669Y-86308622D01*
X130339448Y-86979843D01*
X130353591Y-86993986D01*
X130173986Y-87173591D01*
X130159843Y-87159448D01*
X129488622Y-87830669D01*
X129488622Y-88055176D01*
X129755054Y-88321608D01*
X129859058Y-88391101D01*
X129974620Y-88438968D01*
X130097301Y-88463371D01*
X130222385Y-88463371D01*
X130237453Y-88460374D01*
X130230087Y-88496203D01*
X130244359Y-88675184D01*
X130307930Y-88843102D01*
X130415764Y-88986662D01*
X131264292Y-89835190D01*
X131341498Y-89900992D01*
X131500333Y-89984712D01*
X131676203Y-90020867D01*
X131855184Y-90006595D01*
X132023102Y-89943024D01*
X132035832Y-89933462D01*
X132588000Y-90485631D01*
X132588000Y-94946928D01*
X131170000Y-94946928D01*
X131068879Y-94954992D01*
X130897366Y-95008106D01*
X130747441Y-95106900D01*
X130733719Y-95123000D01*
X130353486Y-95123000D01*
X129362916Y-94132431D01*
X129473146Y-93866312D01*
X129504393Y-93769803D01*
X129520957Y-93591020D01*
X129487057Y-93414700D01*
X129405378Y-93254806D01*
X129282387Y-93123997D01*
X129127823Y-93032631D01*
X128019167Y-92573411D01*
X127922658Y-92542164D01*
X127743875Y-92525600D01*
X127567555Y-92559500D01*
X127465059Y-92611858D01*
X127461707Y-92595007D01*
X127413840Y-92479444D01*
X127344346Y-92375440D01*
X127255899Y-92286993D01*
X127151895Y-92217500D01*
X126803785Y-92073308D01*
X126596368Y-92159222D01*
X126233105Y-93036215D01*
X126251583Y-93043869D01*
X126154382Y-93278534D01*
X126135904Y-93270880D01*
X125772642Y-94147873D01*
X125858557Y-94355290D01*
X126206667Y-94499482D01*
X126329348Y-94523885D01*
X126454431Y-94523885D01*
X126577112Y-94499482D01*
X126692675Y-94451615D01*
X126705448Y-94443080D01*
X126712355Y-94479002D01*
X126794034Y-94638896D01*
X126917025Y-94769705D01*
X127071589Y-94861071D01*
X128180245Y-95320291D01*
X128276754Y-95351538D01*
X128442080Y-95366855D01*
X129470974Y-96395750D01*
X129378308Y-96486496D01*
X129263634Y-96653972D01*
X129183674Y-96840533D01*
X129141473Y-97039071D01*
X129138639Y-97242026D01*
X129175280Y-97441665D01*
X129250000Y-97630386D01*
X129359953Y-97800999D01*
X129500950Y-97947006D01*
X129667622Y-98062846D01*
X129853620Y-98144106D01*
X130051859Y-98187692D01*
X130254788Y-98191943D01*
X130454679Y-98156697D01*
X130531928Y-98126734D01*
X130531928Y-98725000D01*
X130539992Y-98826121D01*
X130573090Y-98933000D01*
X130175000Y-98933000D01*
X130104850Y-98939878D01*
X130034829Y-98946004D01*
X130030986Y-98947120D01*
X130026993Y-98947512D01*
X129959552Y-98967874D01*
X129892018Y-98987494D01*
X129888462Y-98989337D01*
X129884624Y-98990496D01*
X129822467Y-99023545D01*
X129759985Y-99055933D01*
X129756853Y-99058434D01*
X129753316Y-99060314D01*
X129698791Y-99104783D01*
X129643760Y-99148714D01*
X129638181Y-99154216D01*
X129638069Y-99154307D01*
X129637983Y-99154411D01*
X129636184Y-99156185D01*
X128068072Y-100724298D01*
X128068072Y-99730000D01*
X128060008Y-99628879D01*
X128006894Y-99457366D01*
X127908100Y-99307441D01*
X127771450Y-99190975D01*
X127762000Y-99186715D01*
X127762000Y-98493638D01*
X127787281Y-98469563D01*
X127904282Y-98303703D01*
X127986839Y-98118278D01*
X128031807Y-97920348D01*
X128035044Y-97688513D01*
X127995620Y-97489405D01*
X127918273Y-97301746D01*
X127805948Y-97132684D01*
X127662926Y-96988660D01*
X127494653Y-96875158D01*
X127307539Y-96796503D01*
X127108710Y-96755689D01*
X126905741Y-96754272D01*
X126706363Y-96792306D01*
X126518168Y-96868341D01*
X126348327Y-96979482D01*
X126203308Y-97121496D01*
X126088634Y-97288972D01*
X126008674Y-97475533D01*
X125966473Y-97674071D01*
X125963639Y-97877026D01*
X126000280Y-98076665D01*
X126075000Y-98265386D01*
X126184953Y-98435999D01*
X126238000Y-98490931D01*
X126238000Y-99091928D01*
X126230000Y-99091928D01*
X126128879Y-99099992D01*
X125957366Y-99153106D01*
X125807441Y-99251900D01*
X125732783Y-99339497D01*
X125723237Y-99325211D01*
X125634789Y-99236763D01*
X125530785Y-99167270D01*
X125415223Y-99119403D01*
X125292542Y-99095000D01*
X124915750Y-99095000D01*
X124757000Y-99253750D01*
X124503000Y-99253750D01*
X124344250Y-99095000D01*
X123967458Y-99095000D01*
X123844777Y-99119403D01*
X123729215Y-99167270D01*
X123625211Y-99236763D01*
X123536763Y-99325211D01*
X123467270Y-99429215D01*
X123419403Y-99544777D01*
X123395000Y-99667458D01*
X122698366Y-99667458D01*
X123030995Y-96275051D01*
X123908950Y-93367123D01*
X124648234Y-93367123D01*
X124648234Y-93492206D01*
X124672637Y-93614887D01*
X124720504Y-93730450D01*
X124789998Y-93834454D01*
X124878445Y-93922901D01*
X124982449Y-93992394D01*
X125330559Y-94136586D01*
X125537976Y-94050672D01*
X125901239Y-93173679D01*
X125024246Y-92810417D01*
X124816829Y-92896332D01*
X124720505Y-93128879D01*
X124672637Y-93244442D01*
X124648234Y-93367123D01*
X123908950Y-93367123D01*
X124208627Y-92374549D01*
X124211931Y-92368334D01*
X125035533Y-92368334D01*
X125121447Y-92575751D01*
X125998440Y-92939014D01*
X126361702Y-92062021D01*
X126275787Y-91854604D01*
X125927677Y-91710412D01*
X125804996Y-91686009D01*
X125679913Y-91686009D01*
X125557232Y-91710412D01*
X125441669Y-91758279D01*
X125337665Y-91827773D01*
X125249218Y-91916220D01*
X125179725Y-92020224D01*
X125131857Y-92135787D01*
X125035533Y-92368334D01*
X124211931Y-92368334D01*
X126121440Y-88777069D01*
X127638230Y-86917301D01*
X128676315Y-86917301D01*
X128676315Y-87042385D01*
X128700718Y-87165066D01*
X128748585Y-87280628D01*
X128818078Y-87384632D01*
X129084510Y-87651064D01*
X129309017Y-87651064D01*
X129980238Y-86979843D01*
X129309017Y-86308622D01*
X129084510Y-86308622D01*
X128818078Y-86575054D01*
X128748585Y-86679058D01*
X128700718Y-86794620D01*
X128676315Y-86917301D01*
X127638230Y-86917301D01*
X128464242Y-85904510D01*
X129488622Y-85904510D01*
X129488622Y-86129017D01*
X130159843Y-86800238D01*
X130831064Y-86129017D01*
X130831064Y-85904510D01*
X130564632Y-85638078D01*
X130460628Y-85568585D01*
X130345066Y-85520718D01*
X130222385Y-85496315D01*
X130097301Y-85496315D01*
X129974620Y-85520718D01*
X129859058Y-85568585D01*
X129755054Y-85638078D01*
X129488622Y-85904510D01*
X128464242Y-85904510D01*
X128696582Y-85619634D01*
X131835956Y-83022518D01*
X132802494Y-82499913D01*
X134866009Y-82499913D01*
X134866009Y-82624996D01*
X134890412Y-82747677D01*
X135034604Y-83095787D01*
X135242021Y-83181702D01*
X136119014Y-82818440D01*
X135755751Y-81941447D01*
X135548334Y-81855533D01*
X135315787Y-81951857D01*
X135200224Y-81999725D01*
X135096220Y-82069218D01*
X135007773Y-82157665D01*
X134938279Y-82261669D01*
X134890412Y-82377232D01*
X134866009Y-82499913D01*
X132802494Y-82499913D01*
X134015125Y-81844246D01*
X135990417Y-81844246D01*
X136353679Y-82721239D01*
X137230672Y-82357976D01*
X137316586Y-82150559D01*
X137172394Y-81802449D01*
X137102901Y-81698445D01*
X137014454Y-81609998D01*
X136910450Y-81540504D01*
X136794887Y-81492637D01*
X136672206Y-81468234D01*
X136547123Y-81468234D01*
X136424442Y-81492637D01*
X136308879Y-81540505D01*
X136076332Y-81636829D01*
X135990417Y-81844246D01*
X134015125Y-81844246D01*
X135419993Y-81084637D01*
X136380022Y-80787458D01*
X142275000Y-80787458D01*
X142275000Y-81164250D01*
X142433750Y-81323000D01*
X143383000Y-81323000D01*
X143383000Y-80373750D01*
X143637000Y-80373750D01*
X143637000Y-81323000D01*
X144586250Y-81323000D01*
X144745000Y-81164250D01*
X144745000Y-80787458D01*
X144720597Y-80664777D01*
X144672730Y-80549215D01*
X144603237Y-80445211D01*
X144514789Y-80356763D01*
X144410785Y-80287270D01*
X144295223Y-80239403D01*
X144172542Y-80215000D01*
X143795750Y-80215000D01*
X143637000Y-80373750D01*
X143383000Y-80373750D01*
X143224250Y-80215000D01*
X142847458Y-80215000D01*
X142724777Y-80239403D01*
X142609215Y-80287270D01*
X142505211Y-80356763D01*
X142416763Y-80445211D01*
X142347270Y-80549215D01*
X142299403Y-80664777D01*
X142275000Y-80787458D01*
X136380022Y-80787458D01*
X139312173Y-79879805D01*
X143397721Y-79450396D01*
X143476519Y-79450121D01*
X147564949Y-79850995D01*
X147564949Y-79850995D01*
G37*
X147564949Y-79850995D02*
X151465451Y-81028627D01*
X155062931Y-82941440D01*
X158220366Y-85516582D01*
X160817482Y-88655956D01*
X162755363Y-92239993D01*
X163960195Y-96132173D01*
X164389604Y-100217721D01*
X164389879Y-100296519D01*
X163989005Y-104384949D01*
X162811372Y-108285454D01*
X160898560Y-111882931D01*
X158323418Y-115040366D01*
X155184044Y-117637482D01*
X151600010Y-119575362D01*
X147707822Y-120780196D01*
X143622279Y-121209604D01*
X143543481Y-121209879D01*
X139455051Y-120809005D01*
X135554546Y-119631372D01*
X135299479Y-119495750D01*
X142275000Y-119495750D01*
X142275000Y-119872542D01*
X142299403Y-119995223D01*
X142347270Y-120110785D01*
X142416763Y-120214789D01*
X142505211Y-120303237D01*
X142609215Y-120372730D01*
X142724777Y-120420597D01*
X142847458Y-120445000D01*
X143224250Y-120445000D01*
X143383000Y-120286250D01*
X143383000Y-119337000D01*
X143637000Y-119337000D01*
X143637000Y-120286250D01*
X143795750Y-120445000D01*
X144172542Y-120445000D01*
X144295223Y-120420597D01*
X144410785Y-120372730D01*
X144514789Y-120303237D01*
X144603237Y-120214789D01*
X144672730Y-120110785D01*
X144720597Y-119995223D01*
X144745000Y-119872542D01*
X144745000Y-119495750D01*
X144586250Y-119337000D01*
X143637000Y-119337000D01*
X143383000Y-119337000D01*
X142433750Y-119337000D01*
X142275000Y-119495750D01*
X135299479Y-119495750D01*
X134020592Y-118815754D01*
X135990417Y-118815754D01*
X136076332Y-119023171D01*
X136308879Y-119119495D01*
X136424442Y-119167363D01*
X136547123Y-119191766D01*
X136672206Y-119191766D01*
X136794887Y-119167363D01*
X136910450Y-119119496D01*
X137014454Y-119050002D01*
X137102901Y-118961555D01*
X137172394Y-118857551D01*
X137316586Y-118509441D01*
X137230672Y-118302024D01*
X136353679Y-117938761D01*
X135990417Y-118815754D01*
X134020592Y-118815754D01*
X132552214Y-118035004D01*
X134866009Y-118035004D01*
X134866009Y-118160087D01*
X134890412Y-118282768D01*
X134938279Y-118398331D01*
X135007773Y-118502335D01*
X135096220Y-118590782D01*
X135200224Y-118660275D01*
X135315787Y-118708143D01*
X135548334Y-118804467D01*
X135755751Y-118718553D01*
X136119014Y-117841560D01*
X135242021Y-117478298D01*
X135034604Y-117564213D01*
X134890412Y-117912323D01*
X134866009Y-118035004D01*
X132552214Y-118035004D01*
X131957069Y-117718560D01*
X128799634Y-115143418D01*
X128292985Y-114530983D01*
X129488622Y-114530983D01*
X129488622Y-114755490D01*
X129755054Y-115021922D01*
X129859058Y-115091415D01*
X129974620Y-115139282D01*
X130097301Y-115163685D01*
X130222385Y-115163685D01*
X130345066Y-115139282D01*
X130460628Y-115091415D01*
X130564632Y-115021922D01*
X130831064Y-114755490D01*
X130831064Y-114530983D01*
X130159843Y-113859762D01*
X129488622Y-114530983D01*
X128292985Y-114530983D01*
X127537381Y-113617615D01*
X128676315Y-113617615D01*
X128676315Y-113742699D01*
X128700718Y-113865380D01*
X128748585Y-113980942D01*
X128818078Y-114084946D01*
X129084510Y-114351378D01*
X129309017Y-114351378D01*
X129980238Y-113680157D01*
X129309017Y-113008936D01*
X129084510Y-113008936D01*
X128818078Y-113275368D01*
X128748585Y-113379372D01*
X128700718Y-113494934D01*
X128676315Y-113617615D01*
X127537381Y-113617615D01*
X126202518Y-112004044D01*
X124264638Y-108420010D01*
X124224909Y-108291666D01*
X125035533Y-108291666D01*
X125131857Y-108524213D01*
X125179725Y-108639776D01*
X125249218Y-108743780D01*
X125337665Y-108832227D01*
X125441669Y-108901721D01*
X125557232Y-108949588D01*
X125679913Y-108973991D01*
X125804996Y-108973991D01*
X125927677Y-108949588D01*
X126275787Y-108805396D01*
X126361702Y-108597979D01*
X125998440Y-107720986D01*
X125121447Y-108084249D01*
X125035533Y-108291666D01*
X124224909Y-108291666D01*
X123877013Y-107167794D01*
X124648234Y-107167794D01*
X124648234Y-107292877D01*
X124672637Y-107415558D01*
X124720505Y-107531121D01*
X124816829Y-107763668D01*
X125024246Y-107849583D01*
X125901239Y-107486321D01*
X125537976Y-106609328D01*
X125330559Y-106523414D01*
X124982449Y-106667606D01*
X124878445Y-106737099D01*
X124789998Y-106825546D01*
X124720504Y-106929550D01*
X124672637Y-107045113D01*
X124648234Y-107167794D01*
X123877013Y-107167794D01*
X123059804Y-104527822D01*
X122648629Y-100615750D01*
X123395000Y-100615750D01*
X123395000Y-100992542D01*
X123419403Y-101115223D01*
X123467270Y-101230785D01*
X123536763Y-101334789D01*
X123625211Y-101423237D01*
X123729215Y-101492730D01*
X123844777Y-101540597D01*
X123967458Y-101565000D01*
X124344250Y-101565000D01*
X124503000Y-101406250D01*
X124503000Y-100457000D01*
X123553750Y-100457000D01*
X123395000Y-100615750D01*
X122648629Y-100615750D01*
X122630396Y-100442279D01*
X122630121Y-100363481D01*
X122698366Y-99667458D01*
X123395000Y-99667458D01*
X123395000Y-100044250D01*
X123553750Y-100203000D01*
X124503000Y-100203000D01*
X124503000Y-99253750D01*
X124757000Y-99253750D01*
X124757000Y-100203000D01*
X124777000Y-100203000D01*
X124777000Y-100457000D01*
X124757000Y-100457000D01*
X124757000Y-101406250D01*
X124915750Y-101565000D01*
X125292542Y-101565000D01*
X125415223Y-101540597D01*
X125530785Y-101492730D01*
X125634789Y-101423237D01*
X125723237Y-101334789D01*
X125731773Y-101322015D01*
X125751900Y-101352559D01*
X125888550Y-101469025D01*
X126052237Y-101542810D01*
X126230000Y-101568072D01*
X127224298Y-101568072D01*
X127096185Y-101696185D01*
X127051488Y-101750599D01*
X127006264Y-101804495D01*
X127004336Y-101808003D01*
X127001789Y-101811103D01*
X126968510Y-101873169D01*
X126934619Y-101934816D01*
X126933407Y-101938636D01*
X126931514Y-101942167D01*
X126910939Y-102009464D01*
X126889652Y-102076571D01*
X126889205Y-102080554D01*
X126888034Y-102084385D01*
X126880925Y-102154373D01*
X126873074Y-102224361D01*
X126873019Y-102232197D01*
X126873005Y-102232340D01*
X126873018Y-102232473D01*
X126873000Y-102235000D01*
X126873000Y-102802523D01*
X126838308Y-102836496D01*
X126723634Y-103003972D01*
X126643674Y-103190533D01*
X126601473Y-103389071D01*
X126598639Y-103592026D01*
X126635280Y-103791665D01*
X126710000Y-103980386D01*
X126819953Y-104150999D01*
X126960950Y-104297006D01*
X127127622Y-104412846D01*
X127313620Y-104494106D01*
X127511859Y-104537692D01*
X127714788Y-104541943D01*
X127914679Y-104506697D01*
X128103916Y-104433296D01*
X128275293Y-104324537D01*
X128328522Y-104273848D01*
X127560891Y-105041479D01*
X127516194Y-105095893D01*
X127470970Y-105149789D01*
X127469042Y-105153297D01*
X127466495Y-105156397D01*
X127433216Y-105218463D01*
X127399325Y-105280110D01*
X127398113Y-105283930D01*
X127396220Y-105287461D01*
X127375645Y-105354758D01*
X127354358Y-105421865D01*
X127353911Y-105425848D01*
X127352740Y-105429679D01*
X127345631Y-105499667D01*
X127337780Y-105569655D01*
X127337725Y-105577491D01*
X127337711Y-105577634D01*
X127337724Y-105577767D01*
X127337706Y-105580294D01*
X127337706Y-105688700D01*
X127071589Y-105798929D01*
X126981250Y-105845077D01*
X126843119Y-105959783D01*
X126742413Y-106108430D01*
X126706960Y-106217930D01*
X126692675Y-106208385D01*
X126577112Y-106160518D01*
X126454431Y-106136115D01*
X126329348Y-106136115D01*
X126206667Y-106160518D01*
X125858557Y-106304710D01*
X125772642Y-106512127D01*
X126135904Y-107389120D01*
X126154382Y-107381466D01*
X126251583Y-107616131D01*
X126233105Y-107623785D01*
X126596368Y-108500778D01*
X126803785Y-108586692D01*
X127151895Y-108442500D01*
X127255899Y-108373007D01*
X127344346Y-108284560D01*
X127413840Y-108180556D01*
X127461707Y-108064993D01*
X127464704Y-108049926D01*
X127494987Y-108070442D01*
X127665805Y-108125748D01*
X127845269Y-108131277D01*
X128019167Y-108086589D01*
X129127823Y-107627369D01*
X129218162Y-107581221D01*
X129356293Y-107466515D01*
X129456999Y-107317868D01*
X129512305Y-107147050D01*
X129517834Y-106967586D01*
X129478232Y-106813481D01*
X129500950Y-106837006D01*
X129667622Y-106952846D01*
X129853620Y-107034106D01*
X130051859Y-107077692D01*
X130131735Y-107079365D01*
X130953477Y-107901108D01*
X130953477Y-111135625D01*
X130415764Y-111673338D01*
X130349962Y-111750544D01*
X130266242Y-111909379D01*
X130230087Y-112085249D01*
X130239236Y-112199981D01*
X130222385Y-112196629D01*
X130097301Y-112196629D01*
X129974620Y-112221032D01*
X129859058Y-112268899D01*
X129755054Y-112338392D01*
X129488622Y-112604824D01*
X129488622Y-112829331D01*
X130159843Y-113500552D01*
X130173986Y-113486410D01*
X130353591Y-113666015D01*
X130339448Y-113680157D01*
X131010669Y-114351378D01*
X131235176Y-114351378D01*
X131501608Y-114084946D01*
X131571101Y-113980942D01*
X131618968Y-113865380D01*
X131643371Y-113742699D01*
X131643371Y-113617615D01*
X131640374Y-113602547D01*
X131676203Y-113609913D01*
X131855184Y-113595641D01*
X132023102Y-113532070D01*
X132166662Y-113424236D01*
X133015190Y-112575708D01*
X133080992Y-112498502D01*
X133164712Y-112339667D01*
X133200867Y-112163797D01*
X133191310Y-112043940D01*
X133223000Y-112075631D01*
X133223000Y-112598443D01*
X133229875Y-112668557D01*
X133236004Y-112738613D01*
X133237120Y-112742456D01*
X133237512Y-112746450D01*
X133257877Y-112813903D01*
X133277494Y-112881425D01*
X133279337Y-112884981D01*
X133280496Y-112888819D01*
X133313556Y-112950996D01*
X133345933Y-113013457D01*
X133348432Y-113016587D01*
X133350314Y-113020127D01*
X133394801Y-113074674D01*
X133438714Y-113129683D01*
X133444212Y-113135258D01*
X133444307Y-113135374D01*
X133444415Y-113135463D01*
X133446185Y-113137258D01*
X135863641Y-115554715D01*
X135753411Y-115820833D01*
X135722164Y-115917342D01*
X135705600Y-116096125D01*
X135739500Y-116272445D01*
X135791858Y-116374941D01*
X135775007Y-116378293D01*
X135659444Y-116426160D01*
X135555440Y-116495654D01*
X135466993Y-116584101D01*
X135397500Y-116688105D01*
X135253308Y-117036215D01*
X135339222Y-117243632D01*
X136216215Y-117606895D01*
X136223869Y-117588417D01*
X136458534Y-117685618D01*
X136450880Y-117704096D01*
X137327873Y-118067358D01*
X137535290Y-117981443D01*
X137679482Y-117633333D01*
X137703885Y-117510652D01*
X137703885Y-117385569D01*
X137679482Y-117262888D01*
X137631615Y-117147325D01*
X137623080Y-117134552D01*
X137659002Y-117127645D01*
X137818896Y-117045966D01*
X137949705Y-116922975D01*
X138041071Y-116768411D01*
X138500291Y-115659755D01*
X138531538Y-115563246D01*
X138548102Y-115384463D01*
X138514202Y-115208143D01*
X138432523Y-115048249D01*
X138309532Y-114917440D01*
X138154968Y-114826074D01*
X137046312Y-114366854D01*
X136949803Y-114335607D01*
X136784478Y-114320290D01*
X135487259Y-113023072D01*
X136025000Y-113023072D01*
X136126121Y-113015008D01*
X136297634Y-112961894D01*
X136447559Y-112863100D01*
X136524225Y-112773148D01*
X136546900Y-112807559D01*
X136683550Y-112924025D01*
X136847237Y-112997810D01*
X137025000Y-113023072D01*
X138025000Y-113023072D01*
X138126121Y-113015008D01*
X138297634Y-112961894D01*
X138447559Y-112863100D01*
X138564025Y-112726450D01*
X138585042Y-112679825D01*
X138743620Y-112749106D01*
X138941859Y-112792692D01*
X139144788Y-112796943D01*
X139344679Y-112761697D01*
X139533916Y-112688296D01*
X139705293Y-112579537D01*
X139852281Y-112439563D01*
X139894218Y-112380113D01*
X139904495Y-112388736D01*
X139906834Y-112390022D01*
X139908895Y-112391727D01*
X139972036Y-112425867D01*
X140034816Y-112460381D01*
X140037361Y-112461188D01*
X140039713Y-112462460D01*
X140108238Y-112483672D01*
X140176571Y-112505348D01*
X140179226Y-112505646D01*
X140181779Y-112506436D01*
X140253053Y-112513927D01*
X140324361Y-112521926D01*
X140329497Y-112521962D01*
X140329680Y-112521981D01*
X140329864Y-112521964D01*
X140335000Y-112522000D01*
X140666928Y-112522000D01*
X140666928Y-113965000D01*
X140674992Y-114066121D01*
X140728106Y-114237634D01*
X140777130Y-114312030D01*
X140693634Y-114433972D01*
X140613674Y-114620533D01*
X140571473Y-114819071D01*
X140568639Y-115022026D01*
X140605280Y-115221665D01*
X140680000Y-115410386D01*
X140789953Y-115580999D01*
X140930950Y-115727006D01*
X141097622Y-115842846D01*
X141283620Y-115924106D01*
X141481859Y-115967692D01*
X141684788Y-115971943D01*
X141884679Y-115936697D01*
X142073916Y-115863296D01*
X142245293Y-115754537D01*
X142392281Y-115614563D01*
X142509282Y-115448703D01*
X142591839Y-115263278D01*
X142636807Y-115065348D01*
X142640044Y-114833513D01*
X142600620Y-114634405D01*
X142587706Y-114603072D01*
X143175000Y-114603072D01*
X143276121Y-114595008D01*
X143447634Y-114541894D01*
X143504472Y-114504440D01*
X143667237Y-114577810D01*
X143845000Y-114603072D01*
X144445000Y-114603072D01*
X144546121Y-114595008D01*
X144717634Y-114541894D01*
X144774472Y-114504440D01*
X144937237Y-114577810D01*
X145115000Y-114603072D01*
X145715000Y-114603072D01*
X145816121Y-114595008D01*
X145987634Y-114541894D01*
X146137559Y-114443100D01*
X146254025Y-114306450D01*
X146327810Y-114142763D01*
X146353072Y-113965000D01*
X146353072Y-112415000D01*
X146345008Y-112313879D01*
X146291894Y-112142366D01*
X146193100Y-111992441D01*
X146177000Y-111978719D01*
X146177000Y-111689044D01*
X146200061Y-111708061D01*
X146254495Y-111753736D01*
X146257362Y-111755312D01*
X146259889Y-111757396D01*
X146322535Y-111791142D01*
X146384816Y-111825381D01*
X146387934Y-111826370D01*
X146390817Y-111827923D01*
X146458808Y-111848852D01*
X146526571Y-111870348D01*
X146529823Y-111870713D01*
X146532952Y-111871676D01*
X146603691Y-111878999D01*
X146674361Y-111886926D01*
X146680695Y-111886970D01*
X146680878Y-111886989D01*
X146681056Y-111886973D01*
X146685000Y-111887000D01*
X147251974Y-111887000D01*
X147280950Y-111917006D01*
X147447622Y-112032846D01*
X147633620Y-112114106D01*
X147831859Y-112157692D01*
X148034788Y-112161943D01*
X148234679Y-112126697D01*
X148356928Y-112079279D01*
X148356928Y-112385000D01*
X148364992Y-112486121D01*
X148418106Y-112657634D01*
X148516900Y-112807559D01*
X148653550Y-112924025D01*
X148817237Y-112997810D01*
X148995000Y-113023072D01*
X149733000Y-113023072D01*
X149733000Y-113349370D01*
X149413407Y-113668963D01*
X149395948Y-113642684D01*
X149252926Y-113498660D01*
X149084653Y-113385158D01*
X148897539Y-113306503D01*
X148698710Y-113265689D01*
X148495741Y-113264272D01*
X148296363Y-113302306D01*
X148108168Y-113378341D01*
X147938327Y-113489482D01*
X147793308Y-113631496D01*
X147678634Y-113798972D01*
X147598674Y-113985533D01*
X147556473Y-114184071D01*
X147555456Y-114256913D01*
X145564370Y-116248000D01*
X144721155Y-116248000D01*
X144686894Y-116137366D01*
X144588100Y-115987441D01*
X144451450Y-115870975D01*
X144287763Y-115797190D01*
X144110000Y-115771928D01*
X142910000Y-115771928D01*
X142808879Y-115779992D01*
X142637366Y-115833106D01*
X142487441Y-115931900D01*
X142370975Y-116068550D01*
X142297190Y-116232237D01*
X142271928Y-116410000D01*
X142271928Y-117610000D01*
X142279992Y-117711121D01*
X142333106Y-117882634D01*
X142431900Y-118032559D01*
X142519497Y-118107217D01*
X142505211Y-118116763D01*
X142416763Y-118205211D01*
X142347270Y-118309215D01*
X142299403Y-118424777D01*
X142275000Y-118547458D01*
X142275000Y-118924250D01*
X142433750Y-119083000D01*
X143383000Y-119083000D01*
X143383000Y-119063000D01*
X143637000Y-119063000D01*
X143637000Y-119083000D01*
X144586250Y-119083000D01*
X144745000Y-118924250D01*
X144745000Y-118547458D01*
X144737438Y-118509441D01*
X149703414Y-118509441D01*
X149847606Y-118857551D01*
X149917099Y-118961555D01*
X150005546Y-119050002D01*
X150109550Y-119119496D01*
X150225113Y-119167363D01*
X150347794Y-119191766D01*
X150472877Y-119191766D01*
X150595558Y-119167363D01*
X150711121Y-119119495D01*
X150943668Y-119023171D01*
X151029583Y-118815754D01*
X150666321Y-117938761D01*
X149789328Y-118302024D01*
X149703414Y-118509441D01*
X144737438Y-118509441D01*
X144720597Y-118424777D01*
X144672730Y-118309215D01*
X144603237Y-118205211D01*
X144514789Y-118116763D01*
X144502015Y-118108227D01*
X144532559Y-118088100D01*
X144649025Y-117951450D01*
X144722810Y-117787763D01*
X144725050Y-117772000D01*
X145880000Y-117772000D01*
X145950114Y-117765125D01*
X146020170Y-117758996D01*
X146024013Y-117757880D01*
X146028007Y-117757488D01*
X146095460Y-117737123D01*
X146162982Y-117717506D01*
X146166538Y-117715663D01*
X146170376Y-117714504D01*
X146232553Y-117681444D01*
X146295014Y-117649067D01*
X146298144Y-117646568D01*
X146301684Y-117644686D01*
X146356231Y-117600199D01*
X146411240Y-117556286D01*
X146416815Y-117550788D01*
X146416931Y-117550693D01*
X146417020Y-117550585D01*
X146418815Y-117548815D01*
X148476402Y-115491229D01*
X148519709Y-115659755D01*
X148978929Y-116768411D01*
X149025077Y-116858750D01*
X149139783Y-116996881D01*
X149288430Y-117097587D01*
X149397930Y-117133040D01*
X149388385Y-117147325D01*
X149340518Y-117262888D01*
X149316115Y-117385569D01*
X149316115Y-117510652D01*
X149340518Y-117633333D01*
X149484710Y-117981443D01*
X149692127Y-118067358D01*
X150237252Y-117841560D01*
X150900986Y-117841560D01*
X151264249Y-118718553D01*
X151471666Y-118804467D01*
X151704213Y-118708143D01*
X151819776Y-118660275D01*
X151923780Y-118590782D01*
X152012227Y-118502335D01*
X152081721Y-118398331D01*
X152129588Y-118282768D01*
X152153991Y-118160087D01*
X152153991Y-118035004D01*
X152129588Y-117912323D01*
X151985396Y-117564213D01*
X151777979Y-117478298D01*
X150900986Y-117841560D01*
X150237252Y-117841560D01*
X150569120Y-117704096D01*
X150561466Y-117685618D01*
X150796131Y-117588417D01*
X150803785Y-117606895D01*
X151680778Y-117243632D01*
X151766692Y-117036215D01*
X151622500Y-116688105D01*
X151553007Y-116584101D01*
X151464560Y-116495654D01*
X151360556Y-116426160D01*
X151244993Y-116378293D01*
X151229926Y-116375296D01*
X151250442Y-116345013D01*
X151305748Y-116174195D01*
X151311277Y-115994731D01*
X151266589Y-115820833D01*
X150807369Y-114712177D01*
X150761221Y-114621838D01*
X150695243Y-114542387D01*
X151033815Y-114203815D01*
X151078512Y-114149401D01*
X151123736Y-114095505D01*
X151125664Y-114091997D01*
X151128211Y-114088897D01*
X151161509Y-114026796D01*
X151195381Y-113965184D01*
X151196591Y-113961368D01*
X151198487Y-113957833D01*
X151219075Y-113890490D01*
X151240348Y-113823429D01*
X151240795Y-113819446D01*
X151241966Y-113815615D01*
X151249075Y-113745627D01*
X151256926Y-113675639D01*
X151256981Y-113667803D01*
X151256995Y-113667660D01*
X151256982Y-113667527D01*
X151257000Y-113665000D01*
X151257000Y-113023072D01*
X151315442Y-113023072D01*
X151999269Y-113706899D01*
X151998639Y-113752026D01*
X152035280Y-113951665D01*
X152110000Y-114140386D01*
X152219953Y-114310999D01*
X152360950Y-114457006D01*
X152527622Y-114572846D01*
X152713620Y-114654106D01*
X152911859Y-114697692D01*
X153114788Y-114701943D01*
X153314679Y-114666697D01*
X153503916Y-114593296D01*
X153602105Y-114530983D01*
X156188936Y-114530983D01*
X156188936Y-114755490D01*
X156455368Y-115021922D01*
X156559372Y-115091415D01*
X156674934Y-115139282D01*
X156797615Y-115163685D01*
X156922699Y-115163685D01*
X157045380Y-115139282D01*
X157160942Y-115091415D01*
X157264946Y-115021922D01*
X157531378Y-114755490D01*
X157531378Y-114530983D01*
X156860157Y-113859762D01*
X156188936Y-114530983D01*
X153602105Y-114530983D01*
X153675293Y-114484537D01*
X153822281Y-114344563D01*
X153939282Y-114178703D01*
X154021839Y-113993278D01*
X154066807Y-113795348D01*
X154070044Y-113563513D01*
X154030620Y-113364405D01*
X153953273Y-113176746D01*
X153840948Y-113007684D01*
X153697926Y-112863660D01*
X153529653Y-112750158D01*
X153342539Y-112671503D01*
X153143710Y-112630689D01*
X153077859Y-112630229D01*
X152633072Y-112185442D01*
X152633072Y-111165702D01*
X153895428Y-112428059D01*
X153896976Y-112432148D01*
X154004810Y-112575708D01*
X154853338Y-113424236D01*
X154930544Y-113490038D01*
X155089379Y-113573758D01*
X155265249Y-113609913D01*
X155379981Y-113600764D01*
X155376629Y-113617615D01*
X155376629Y-113742699D01*
X155401032Y-113865380D01*
X155448899Y-113980942D01*
X155518392Y-114084946D01*
X155784824Y-114351378D01*
X156009331Y-114351378D01*
X156680552Y-113680157D01*
X157039762Y-113680157D01*
X157710983Y-114351378D01*
X157935490Y-114351378D01*
X158201922Y-114084946D01*
X158271415Y-113980942D01*
X158319282Y-113865380D01*
X158343685Y-113742699D01*
X158343685Y-113617615D01*
X158319282Y-113494934D01*
X158271415Y-113379372D01*
X158201922Y-113275368D01*
X157935490Y-113008936D01*
X157710983Y-113008936D01*
X157039762Y-113680157D01*
X156680552Y-113680157D01*
X156666410Y-113666015D01*
X156846015Y-113486410D01*
X156860157Y-113500552D01*
X157531378Y-112829331D01*
X157531378Y-112604824D01*
X157264946Y-112338392D01*
X157160942Y-112268899D01*
X157045380Y-112221032D01*
X156922699Y-112196629D01*
X156797615Y-112196629D01*
X156782547Y-112199626D01*
X156789913Y-112163797D01*
X156775641Y-111984816D01*
X156712070Y-111816898D01*
X156604236Y-111673338D01*
X155755708Y-110824810D01*
X155678502Y-110759008D01*
X155552139Y-110692404D01*
X155580293Y-110674537D01*
X155727281Y-110534563D01*
X155844282Y-110368703D01*
X155926839Y-110183278D01*
X155971807Y-109985348D01*
X155975044Y-109753513D01*
X155935620Y-109554405D01*
X155862000Y-109375788D01*
X155862000Y-108597979D01*
X160658298Y-108597979D01*
X160744213Y-108805396D01*
X161092323Y-108949588D01*
X161215004Y-108973991D01*
X161340087Y-108973991D01*
X161462768Y-108949588D01*
X161578331Y-108901721D01*
X161682335Y-108832227D01*
X161770782Y-108743780D01*
X161840275Y-108639776D01*
X161888143Y-108524213D01*
X161984467Y-108291666D01*
X161898553Y-108084249D01*
X161021560Y-107720986D01*
X160658298Y-108597979D01*
X155862000Y-108597979D01*
X155862000Y-105712115D01*
X155951121Y-105705008D01*
X156122634Y-105651894D01*
X156272559Y-105553100D01*
X156389025Y-105416450D01*
X156448510Y-105284486D01*
X156446473Y-105294071D01*
X156443639Y-105497026D01*
X156480280Y-105696665D01*
X156555000Y-105885386D01*
X156664953Y-106055999D01*
X156805950Y-106202006D01*
X156972622Y-106317846D01*
X157158620Y-106399106D01*
X157356859Y-106442692D01*
X157436735Y-106444365D01*
X157616915Y-106624545D01*
X157546854Y-106793688D01*
X157515607Y-106890197D01*
X157499043Y-107068980D01*
X157532943Y-107245300D01*
X157614622Y-107405194D01*
X157737613Y-107536003D01*
X157892177Y-107627369D01*
X159000833Y-108086589D01*
X159097342Y-108117836D01*
X159276125Y-108134400D01*
X159452445Y-108100500D01*
X159554941Y-108048142D01*
X159558293Y-108064993D01*
X159606160Y-108180556D01*
X159675654Y-108284560D01*
X159764101Y-108373007D01*
X159868105Y-108442500D01*
X160216215Y-108586692D01*
X160423632Y-108500778D01*
X160786895Y-107623785D01*
X160768417Y-107616131D01*
X160822185Y-107486321D01*
X161118761Y-107486321D01*
X161995754Y-107849583D01*
X162203171Y-107763668D01*
X162299495Y-107531121D01*
X162347363Y-107415558D01*
X162371766Y-107292877D01*
X162371766Y-107167794D01*
X162347363Y-107045113D01*
X162299496Y-106929550D01*
X162230002Y-106825546D01*
X162141555Y-106737099D01*
X162037551Y-106667606D01*
X161689441Y-106523414D01*
X161482024Y-106609328D01*
X161118761Y-107486321D01*
X160822185Y-107486321D01*
X160865618Y-107381466D01*
X160884096Y-107389120D01*
X161247358Y-106512127D01*
X161161443Y-106304710D01*
X160813333Y-106160518D01*
X160690652Y-106136115D01*
X160565569Y-106136115D01*
X160442888Y-106160518D01*
X160327325Y-106208385D01*
X160314552Y-106216920D01*
X160307645Y-106180998D01*
X160225966Y-106021104D01*
X160102975Y-105890295D01*
X159948411Y-105798929D01*
X158839755Y-105339709D01*
X158743246Y-105308462D01*
X158564463Y-105291898D01*
X158513687Y-105301660D01*
X158475620Y-105109405D01*
X158398273Y-104921746D01*
X158285948Y-104752684D01*
X158142926Y-104608660D01*
X157974653Y-104495158D01*
X157787539Y-104416503D01*
X157588710Y-104375689D01*
X157385741Y-104374272D01*
X157186363Y-104412306D01*
X156998168Y-104488341D01*
X156828327Y-104599482D01*
X156683308Y-104741496D01*
X156568634Y-104908972D01*
X156488674Y-105095533D01*
X156478053Y-105145498D01*
X156488072Y-105075000D01*
X156488072Y-104475000D01*
X156480008Y-104373879D01*
X156446910Y-104267000D01*
X157015000Y-104267000D01*
X157085114Y-104260125D01*
X157155170Y-104253996D01*
X157159013Y-104252880D01*
X157163007Y-104252488D01*
X157230460Y-104232123D01*
X157297982Y-104212506D01*
X157301538Y-104210663D01*
X157305376Y-104209504D01*
X157367553Y-104176444D01*
X157430014Y-104144067D01*
X157433144Y-104141568D01*
X157436684Y-104139686D01*
X157491231Y-104095199D01*
X157546240Y-104051286D01*
X157551815Y-104045788D01*
X157551931Y-104045693D01*
X157552020Y-104045585D01*
X157553815Y-104043815D01*
X160029558Y-101568072D01*
X160790000Y-101568072D01*
X160891121Y-101560008D01*
X161062634Y-101506894D01*
X161212559Y-101408100D01*
X161287217Y-101320503D01*
X161296763Y-101334789D01*
X161385211Y-101423237D01*
X161489215Y-101492730D01*
X161604777Y-101540597D01*
X161727458Y-101565000D01*
X162104250Y-101565000D01*
X162263000Y-101406250D01*
X162263000Y-100457000D01*
X162517000Y-100457000D01*
X162517000Y-101406250D01*
X162675750Y-101565000D01*
X163052542Y-101565000D01*
X163175223Y-101540597D01*
X163290785Y-101492730D01*
X163394789Y-101423237D01*
X163483237Y-101334789D01*
X163552730Y-101230785D01*
X163600597Y-101115223D01*
X163625000Y-100992542D01*
X163625000Y-100615750D01*
X163466250Y-100457000D01*
X162517000Y-100457000D01*
X162263000Y-100457000D01*
X162243000Y-100457000D01*
X162243000Y-100203000D01*
X162263000Y-100203000D01*
X162263000Y-99253750D01*
X162517000Y-99253750D01*
X162517000Y-100203000D01*
X163466250Y-100203000D01*
X163625000Y-100044250D01*
X163625000Y-99667458D01*
X163600597Y-99544777D01*
X163552730Y-99429215D01*
X163483237Y-99325211D01*
X163394789Y-99236763D01*
X163290785Y-99167270D01*
X163175223Y-99119403D01*
X163052542Y-99095000D01*
X162675750Y-99095000D01*
X162517000Y-99253750D01*
X162263000Y-99253750D01*
X162104250Y-99095000D01*
X161727458Y-99095000D01*
X161604777Y-99119403D01*
X161489215Y-99167270D01*
X161385211Y-99236763D01*
X161296763Y-99325211D01*
X161288227Y-99337985D01*
X161268100Y-99307441D01*
X161131450Y-99190975D01*
X160967763Y-99117190D01*
X160790000Y-99091928D01*
X159590000Y-99091928D01*
X159488879Y-99099992D01*
X159317366Y-99153106D01*
X159167441Y-99251900D01*
X159050975Y-99388550D01*
X158977190Y-99552237D01*
X158951928Y-99730000D01*
X158951928Y-100490442D01*
X156699370Y-102743000D01*
X156449180Y-102743000D01*
X156462810Y-102712763D01*
X156488072Y-102535000D01*
X156488072Y-101935000D01*
X156480008Y-101833879D01*
X156426894Y-101662366D01*
X156389440Y-101605528D01*
X156462810Y-101442763D01*
X156488072Y-101265000D01*
X156488072Y-100665000D01*
X156480008Y-100563879D01*
X156426894Y-100392366D01*
X156389440Y-100335528D01*
X156462810Y-100172763D01*
X156488072Y-99995000D01*
X156488072Y-99395000D01*
X156480008Y-99293879D01*
X156446910Y-99187000D01*
X157480000Y-99187000D01*
X157550114Y-99180125D01*
X157620170Y-99173996D01*
X157624013Y-99172880D01*
X157628007Y-99172488D01*
X157695460Y-99152123D01*
X157762982Y-99132506D01*
X157766538Y-99130663D01*
X157770376Y-99129504D01*
X157832553Y-99096444D01*
X157895014Y-99064067D01*
X157898144Y-99061568D01*
X157901684Y-99059686D01*
X157956231Y-99015199D01*
X158011240Y-98971286D01*
X158016815Y-98965788D01*
X158016931Y-98965693D01*
X158017020Y-98965585D01*
X158018815Y-98963815D01*
X158653816Y-98328815D01*
X158698537Y-98274371D01*
X158743736Y-98220505D01*
X158745664Y-98216997D01*
X158748211Y-98213897D01*
X158781499Y-98151815D01*
X158815381Y-98090184D01*
X158816592Y-98086366D01*
X158818487Y-98082832D01*
X158839084Y-98015463D01*
X158860348Y-97948429D01*
X158860794Y-97944451D01*
X158861967Y-97940615D01*
X158869086Y-97870533D01*
X158876926Y-97800639D01*
X158876980Y-97792813D01*
X158876996Y-97792660D01*
X158876982Y-97792517D01*
X158877000Y-97790000D01*
X158877000Y-97223638D01*
X158902281Y-97199563D01*
X159019282Y-97033703D01*
X159101839Y-96848278D01*
X159146807Y-96650348D01*
X159150044Y-96418513D01*
X159110620Y-96219405D01*
X159033273Y-96031746D01*
X158920948Y-95862684D01*
X158777926Y-95718660D01*
X158609653Y-95605158D01*
X158422539Y-95526503D01*
X158223710Y-95485689D01*
X158020741Y-95484272D01*
X157821363Y-95522306D01*
X157633168Y-95598341D01*
X157463327Y-95709482D01*
X157318308Y-95851496D01*
X157203634Y-96018972D01*
X157143353Y-96159617D01*
X156953710Y-96120689D01*
X156750741Y-96119272D01*
X156551363Y-96157306D01*
X156488072Y-96182877D01*
X156488072Y-95585000D01*
X156480008Y-95483879D01*
X156426894Y-95312366D01*
X156328100Y-95162441D01*
X156191450Y-95045975D01*
X156119113Y-95013368D01*
X156289788Y-95016943D01*
X156489679Y-94981697D01*
X156678916Y-94908296D01*
X156850293Y-94799537D01*
X156997281Y-94659563D01*
X157054556Y-94578370D01*
X157076130Y-94590230D01*
X157100902Y-94607857D01*
X157141146Y-94625973D01*
X157179816Y-94647232D01*
X157208791Y-94656423D01*
X157236512Y-94668902D01*
X157279511Y-94678857D01*
X157321571Y-94692199D01*
X157351775Y-94695587D01*
X157381397Y-94702445D01*
X157425512Y-94703858D01*
X157469361Y-94708777D01*
X157480000Y-94708851D01*
X157895845Y-94708851D01*
X158006074Y-94974968D01*
X158052222Y-95065307D01*
X158166928Y-95203438D01*
X158315575Y-95304144D01*
X158486393Y-95359450D01*
X158665857Y-95364979D01*
X158839755Y-95320291D01*
X159948411Y-94861071D01*
X160038750Y-94814923D01*
X160176881Y-94700217D01*
X160277587Y-94551570D01*
X160313040Y-94442070D01*
X160327325Y-94451615D01*
X160442888Y-94499482D01*
X160565569Y-94523885D01*
X160690652Y-94523885D01*
X160813333Y-94499482D01*
X161161443Y-94355290D01*
X161247358Y-94147873D01*
X160884096Y-93270880D01*
X160865618Y-93278534D01*
X160822186Y-93173679D01*
X161118761Y-93173679D01*
X161482024Y-94050672D01*
X161689441Y-94136586D01*
X162037551Y-93992394D01*
X162141555Y-93922901D01*
X162230002Y-93834454D01*
X162299496Y-93730450D01*
X162347363Y-93614887D01*
X162371766Y-93492206D01*
X162371766Y-93367123D01*
X162347363Y-93244442D01*
X162299495Y-93128879D01*
X162203171Y-92896332D01*
X161995754Y-92810417D01*
X161118761Y-93173679D01*
X160822186Y-93173679D01*
X160768417Y-93043869D01*
X160786895Y-93036215D01*
X160423632Y-92159222D01*
X160216215Y-92073308D01*
X159868105Y-92217500D01*
X159764101Y-92286993D01*
X159675654Y-92375440D01*
X159606160Y-92479444D01*
X159558293Y-92595007D01*
X159555296Y-92610074D01*
X159525013Y-92589558D01*
X159354195Y-92534252D01*
X159174731Y-92528723D01*
X159000833Y-92573411D01*
X157892177Y-93032631D01*
X157878361Y-93039689D01*
X157526554Y-92336074D01*
X157503055Y-92298708D01*
X157482614Y-92259608D01*
X157463570Y-92235922D01*
X157447383Y-92210183D01*
X157417076Y-92178096D01*
X157389428Y-92143708D01*
X157366143Y-92124169D01*
X157345267Y-92102067D01*
X157309308Y-92076479D01*
X157292078Y-92062021D01*
X160658298Y-92062021D01*
X161021560Y-92939014D01*
X161898553Y-92575751D01*
X161984467Y-92368334D01*
X161888143Y-92135787D01*
X161840275Y-92020224D01*
X161770782Y-91916220D01*
X161682335Y-91827773D01*
X161578331Y-91758279D01*
X161462768Y-91710412D01*
X161340087Y-91686009D01*
X161215004Y-91686009D01*
X161092323Y-91710412D01*
X160744213Y-91854604D01*
X160658298Y-92062021D01*
X157292078Y-92062021D01*
X157275505Y-92048115D01*
X157248869Y-92033472D01*
X157224098Y-92015845D01*
X157183854Y-91997729D01*
X157145184Y-91976470D01*
X157116209Y-91967279D01*
X157088488Y-91954800D01*
X157045489Y-91944845D01*
X157003429Y-91931503D01*
X156973225Y-91928115D01*
X156943603Y-91921257D01*
X156899488Y-91919844D01*
X156855639Y-91914925D01*
X156845000Y-91914851D01*
X153035000Y-91914851D01*
X153029306Y-91915409D01*
X153023601Y-91914936D01*
X153000026Y-91917604D01*
X154986922Y-89930708D01*
X155089379Y-89984712D01*
X155265249Y-90020867D01*
X155444230Y-90006595D01*
X155612148Y-89943024D01*
X155755708Y-89835190D01*
X156604236Y-88986662D01*
X156670038Y-88909456D01*
X156753758Y-88750621D01*
X156789913Y-88574751D01*
X156780764Y-88460019D01*
X156797615Y-88463371D01*
X156922699Y-88463371D01*
X157045380Y-88438968D01*
X157160942Y-88391101D01*
X157264946Y-88321608D01*
X157531378Y-88055176D01*
X157531378Y-87830669D01*
X156860157Y-87159448D01*
X156846015Y-87173591D01*
X156666410Y-86993986D01*
X156680552Y-86979843D01*
X157039762Y-86979843D01*
X157710983Y-87651064D01*
X157935490Y-87651064D01*
X158201922Y-87384632D01*
X158271415Y-87280628D01*
X158319282Y-87165066D01*
X158343685Y-87042385D01*
X158343685Y-86917301D01*
X158319282Y-86794620D01*
X158271415Y-86679058D01*
X158201922Y-86575054D01*
X157935490Y-86308622D01*
X157710983Y-86308622D01*
X157039762Y-86979843D01*
X156680552Y-86979843D01*
X156009331Y-86308622D01*
X155784824Y-86308622D01*
X155518392Y-86575054D01*
X155448899Y-86679058D01*
X155401032Y-86794620D01*
X155376629Y-86917301D01*
X155376629Y-87042385D01*
X155379626Y-87057453D01*
X155343797Y-87050087D01*
X155164816Y-87064359D01*
X154996898Y-87127930D01*
X154853338Y-87235764D01*
X154004810Y-88084292D01*
X153939008Y-88161498D01*
X153855288Y-88320333D01*
X153819133Y-88496203D01*
X153833405Y-88675184D01*
X153896976Y-88843102D01*
X153906538Y-88855832D01*
X151226185Y-91536185D01*
X151181488Y-91590599D01*
X151136264Y-91644495D01*
X151134336Y-91648003D01*
X151131789Y-91651103D01*
X151098510Y-91713169D01*
X151064619Y-91774816D01*
X151063407Y-91778636D01*
X151061514Y-91782167D01*
X151040939Y-91849464D01*
X151019652Y-91916571D01*
X151019205Y-91920554D01*
X151018034Y-91924385D01*
X151010925Y-91994373D01*
X151003074Y-92064361D01*
X151003019Y-92072197D01*
X151003005Y-92072340D01*
X151003018Y-92072473D01*
X151003000Y-92075000D01*
X151003000Y-93074161D01*
X150989653Y-93065158D01*
X150802539Y-92986503D01*
X150603710Y-92945689D01*
X150400741Y-92944272D01*
X150201363Y-92982306D01*
X150013168Y-93058341D01*
X149843327Y-93169482D01*
X149698308Y-93311496D01*
X149583634Y-93478972D01*
X149503674Y-93665533D01*
X149461473Y-93864071D01*
X149458639Y-94067026D01*
X149495280Y-94266665D01*
X149570000Y-94455386D01*
X149679953Y-94625999D01*
X149733000Y-94680931D01*
X149733000Y-94883404D01*
X149653470Y-94946928D01*
X148950000Y-94946928D01*
X148848879Y-94954992D01*
X148717000Y-94995832D01*
X148717000Y-89215630D01*
X150431965Y-87500666D01*
X150476686Y-87446222D01*
X150521885Y-87392356D01*
X150523813Y-87388848D01*
X150526360Y-87385748D01*
X150559648Y-87323666D01*
X150593530Y-87262035D01*
X150594741Y-87258217D01*
X150596636Y-87254683D01*
X150617233Y-87187314D01*
X150638497Y-87120280D01*
X150638943Y-87116302D01*
X150640116Y-87112466D01*
X150647235Y-87042384D01*
X150655075Y-86972490D01*
X150655129Y-86964664D01*
X150655145Y-86964511D01*
X150655131Y-86964368D01*
X150655149Y-86961851D01*
X150655149Y-86159604D01*
X150716003Y-86102387D01*
X150807369Y-85947823D01*
X150825309Y-85904510D01*
X156188936Y-85904510D01*
X156188936Y-86129017D01*
X156860157Y-86800238D01*
X157531378Y-86129017D01*
X157531378Y-85904510D01*
X157264946Y-85638078D01*
X157160942Y-85568585D01*
X157045380Y-85520718D01*
X156922699Y-85496315D01*
X156797615Y-85496315D01*
X156674934Y-85520718D01*
X156559372Y-85568585D01*
X156455368Y-85638078D01*
X156188936Y-85904510D01*
X150825309Y-85904510D01*
X151266589Y-84839167D01*
X151297836Y-84742658D01*
X151314400Y-84563875D01*
X151280500Y-84387555D01*
X151228142Y-84285059D01*
X151244993Y-84281707D01*
X151360556Y-84233840D01*
X151464560Y-84164346D01*
X151553007Y-84075899D01*
X151622500Y-83971895D01*
X151766692Y-83623785D01*
X151680778Y-83416368D01*
X150803785Y-83053105D01*
X150796131Y-83071583D01*
X150561466Y-82974382D01*
X150569120Y-82955904D01*
X150237253Y-82818440D01*
X150900986Y-82818440D01*
X151777979Y-83181702D01*
X151985396Y-83095787D01*
X152129588Y-82747677D01*
X152153991Y-82624996D01*
X152153991Y-82499913D01*
X152129588Y-82377232D01*
X152081721Y-82261669D01*
X152012227Y-82157665D01*
X151923780Y-82069218D01*
X151819776Y-81999725D01*
X151704213Y-81951857D01*
X151471666Y-81855533D01*
X151264249Y-81941447D01*
X150900986Y-82818440D01*
X150237253Y-82818440D01*
X149692127Y-82592642D01*
X149484710Y-82678557D01*
X149340518Y-83026667D01*
X149316115Y-83149348D01*
X149316115Y-83274431D01*
X149340518Y-83397112D01*
X149388385Y-83512675D01*
X149396920Y-83525448D01*
X149360998Y-83532355D01*
X149201104Y-83614034D01*
X149070295Y-83737025D01*
X148978929Y-83891589D01*
X148519709Y-85000245D01*
X148488462Y-85096754D01*
X148471898Y-85275537D01*
X148505798Y-85451857D01*
X148587477Y-85611751D01*
X148710468Y-85742560D01*
X148865032Y-85833926D01*
X149131149Y-85944155D01*
X149131149Y-86646220D01*
X147508407Y-88268962D01*
X147490948Y-88242684D01*
X147347926Y-88098660D01*
X147179653Y-87985158D01*
X146992539Y-87906503D01*
X146793710Y-87865689D01*
X146611693Y-87864418D01*
X146690293Y-87814537D01*
X146837281Y-87674563D01*
X146954282Y-87508703D01*
X147036839Y-87323278D01*
X147081807Y-87125348D01*
X147085044Y-86893513D01*
X147045620Y-86694405D01*
X146968273Y-86506746D01*
X146855948Y-86337684D01*
X146712926Y-86193660D01*
X146544653Y-86080158D01*
X146357539Y-86001503D01*
X146158710Y-85960689D01*
X145955741Y-85959272D01*
X145756363Y-85997306D01*
X145568168Y-86073341D01*
X145417690Y-86171811D01*
X145386894Y-86072366D01*
X145288100Y-85922441D01*
X145151450Y-85805975D01*
X144987763Y-85732190D01*
X144810000Y-85706928D01*
X144110000Y-85706928D01*
X144008879Y-85714992D01*
X143837366Y-85768106D01*
X143687441Y-85866900D01*
X143570975Y-86003550D01*
X143510998Y-86136604D01*
X143472730Y-86044215D01*
X143403237Y-85940211D01*
X143314789Y-85851763D01*
X143210785Y-85782270D01*
X143095223Y-85734403D01*
X142972542Y-85710000D01*
X142845750Y-85710000D01*
X142687000Y-85868750D01*
X142687000Y-86868000D01*
X142707000Y-86868000D01*
X142707000Y-87122000D01*
X142687000Y-87122000D01*
X142687000Y-87142000D01*
X142433000Y-87142000D01*
X142433000Y-87122000D01*
X141733750Y-87122000D01*
X141575000Y-87280750D01*
X141575000Y-87707542D01*
X141599403Y-87830223D01*
X141647270Y-87945785D01*
X141716763Y-88049789D01*
X141805211Y-88138237D01*
X141909215Y-88207730D01*
X141918996Y-88211781D01*
X141887447Y-88228556D01*
X141824986Y-88260933D01*
X141821856Y-88263432D01*
X141818316Y-88265314D01*
X141763769Y-88309801D01*
X141708760Y-88353714D01*
X141703185Y-88359212D01*
X141703069Y-88359307D01*
X141702980Y-88359415D01*
X141701185Y-88361185D01*
X137117735Y-92944635D01*
X137065741Y-92944272D01*
X136866363Y-92982306D01*
X136678168Y-93058341D01*
X136652000Y-93075465D01*
X136652000Y-92305715D01*
X137794022Y-90592682D01*
X137826833Y-90531207D01*
X137860381Y-90470184D01*
X137861814Y-90465667D01*
X137864047Y-90461483D01*
X137884291Y-90394811D01*
X137905348Y-90328429D01*
X137905876Y-90323718D01*
X137907254Y-90319181D01*
X137914160Y-90249873D01*
X137921926Y-90180639D01*
X137921991Y-90171277D01*
X137921999Y-90171198D01*
X137921992Y-90171127D01*
X137922000Y-90170000D01*
X137922000Y-88580630D01*
X140220172Y-86282458D01*
X141575000Y-86282458D01*
X141575000Y-86709250D01*
X141733750Y-86868000D01*
X142433000Y-86868000D01*
X142433000Y-85868750D01*
X142274250Y-85710000D01*
X142147458Y-85710000D01*
X142024777Y-85734403D01*
X141909215Y-85782270D01*
X141805211Y-85851763D01*
X141716763Y-85940211D01*
X141647270Y-86044215D01*
X141599403Y-86159777D01*
X141575000Y-86282458D01*
X140220172Y-86282458D01*
X142090631Y-84412000D01*
X142298845Y-84412000D01*
X142333106Y-84522634D01*
X142431900Y-84672559D01*
X142568550Y-84789025D01*
X142732237Y-84862810D01*
X142910000Y-84888072D01*
X144110000Y-84888072D01*
X144211121Y-84880008D01*
X144382634Y-84826894D01*
X144532559Y-84728100D01*
X144649025Y-84591450D01*
X144722810Y-84427763D01*
X144748072Y-84250000D01*
X144748072Y-83050000D01*
X144740008Y-82948879D01*
X144686894Y-82777366D01*
X144588100Y-82627441D01*
X144500503Y-82552783D01*
X144514789Y-82543237D01*
X144603237Y-82454789D01*
X144672730Y-82350785D01*
X144720597Y-82235223D01*
X144737437Y-82150559D01*
X149703414Y-82150559D01*
X149789328Y-82357976D01*
X150666321Y-82721239D01*
X151029583Y-81844246D01*
X150943668Y-81636829D01*
X150711121Y-81540505D01*
X150595558Y-81492637D01*
X150472877Y-81468234D01*
X150347794Y-81468234D01*
X150225113Y-81492637D01*
X150109550Y-81540504D01*
X150005546Y-81609998D01*
X149917099Y-81698445D01*
X149847606Y-81802449D01*
X149703414Y-82150559D01*
X144737437Y-82150559D01*
X144745000Y-82112542D01*
X144745000Y-81735750D01*
X144586250Y-81577000D01*
X143637000Y-81577000D01*
X143637000Y-81597000D01*
X143383000Y-81597000D01*
X143383000Y-81577000D01*
X142433750Y-81577000D01*
X142275000Y-81735750D01*
X142275000Y-82112542D01*
X142299403Y-82235223D01*
X142347270Y-82350785D01*
X142416763Y-82454789D01*
X142505211Y-82543237D01*
X142517985Y-82551773D01*
X142487441Y-82571900D01*
X142370975Y-82708550D01*
X142297190Y-82872237D01*
X142294950Y-82888000D01*
X141775000Y-82888000D01*
X141704936Y-82894870D01*
X141634830Y-82901003D01*
X141630982Y-82902121D01*
X141626993Y-82902512D01*
X141559628Y-82922851D01*
X141492018Y-82942493D01*
X141488458Y-82944339D01*
X141484624Y-82945496D01*
X141422482Y-82978537D01*
X141359986Y-83010933D01*
X141356856Y-83013432D01*
X141353316Y-83015314D01*
X141298769Y-83059801D01*
X141243760Y-83103714D01*
X141238181Y-83109216D01*
X141238069Y-83109307D01*
X141237983Y-83109411D01*
X141236185Y-83111184D01*
X136652000Y-87695370D01*
X136652000Y-86472187D01*
X136788925Y-86335262D01*
X136872414Y-86337834D01*
X137046312Y-86293146D01*
X138154968Y-85833926D01*
X138245307Y-85787778D01*
X138383438Y-85673072D01*
X138484144Y-85524425D01*
X138539450Y-85353607D01*
X138544979Y-85174143D01*
X138500291Y-85000245D01*
X138041071Y-83891589D01*
X137994923Y-83801250D01*
X137880217Y-83663119D01*
X137731570Y-83562413D01*
X137622070Y-83526960D01*
X137631615Y-83512675D01*
X137679482Y-83397112D01*
X137703885Y-83274431D01*
X137703885Y-83149348D01*
X137679482Y-83026667D01*
X137535290Y-82678557D01*
X137327873Y-82592642D01*
X136450880Y-82955904D01*
X136458534Y-82974382D01*
X136223869Y-83071583D01*
X136216215Y-83053105D01*
X135339222Y-83416368D01*
X135253308Y-83623785D01*
X135397500Y-83971895D01*
X135466993Y-84075899D01*
X135555440Y-84164346D01*
X135659444Y-84233840D01*
X135775007Y-84281707D01*
X135790074Y-84284704D01*
X135769558Y-84314987D01*
X135714252Y-84485805D01*
X135708723Y-84665269D01*
X135753411Y-84839167D01*
X135863641Y-85105286D01*
X135351185Y-85617742D01*
X135306488Y-85672156D01*
X135261264Y-85726052D01*
X135259336Y-85729560D01*
X135256789Y-85732660D01*
X135223510Y-85794726D01*
X135189619Y-85856373D01*
X135188407Y-85860193D01*
X135186514Y-85863724D01*
X135165939Y-85931021D01*
X135144652Y-85998128D01*
X135144205Y-86002111D01*
X135143034Y-86005942D01*
X135135925Y-86075930D01*
X135128074Y-86145918D01*
X135128019Y-86153754D01*
X135128005Y-86153897D01*
X135128018Y-86154030D01*
X135128000Y-86156557D01*
X135128000Y-87949370D01*
X133667500Y-89409870D01*
X133110708Y-88853078D01*
X133164712Y-88750621D01*
X133200867Y-88574751D01*
X133186595Y-88395770D01*
X133123024Y-88227852D01*
X133015190Y-88084292D01*
X132166662Y-87235764D01*
X132089456Y-87169962D01*
X131930621Y-87086242D01*
X131754751Y-87050087D01*
X131640019Y-87059236D01*
X131643371Y-87042385D01*
X131643371Y-86917301D01*
X131618968Y-86794620D01*
X131571101Y-86679058D01*
X131501608Y-86575054D01*
X131235176Y-86308622D01*
X131010669Y-86308622D01*
X130339448Y-86979843D01*
X130353591Y-86993986D01*
X130173986Y-87173591D01*
X130159843Y-87159448D01*
X129488622Y-87830669D01*
X129488622Y-88055176D01*
X129755054Y-88321608D01*
X129859058Y-88391101D01*
X129974620Y-88438968D01*
X130097301Y-88463371D01*
X130222385Y-88463371D01*
X130237453Y-88460374D01*
X130230087Y-88496203D01*
X130244359Y-88675184D01*
X130307930Y-88843102D01*
X130415764Y-88986662D01*
X131264292Y-89835190D01*
X131341498Y-89900992D01*
X131500333Y-89984712D01*
X131676203Y-90020867D01*
X131855184Y-90006595D01*
X132023102Y-89943024D01*
X132035832Y-89933462D01*
X132588000Y-90485631D01*
X132588000Y-94946928D01*
X131170000Y-94946928D01*
X131068879Y-94954992D01*
X130897366Y-95008106D01*
X130747441Y-95106900D01*
X130733719Y-95123000D01*
X130353486Y-95123000D01*
X129362916Y-94132431D01*
X129473146Y-93866312D01*
X129504393Y-93769803D01*
X129520957Y-93591020D01*
X129487057Y-93414700D01*
X129405378Y-93254806D01*
X129282387Y-93123997D01*
X129127823Y-93032631D01*
X128019167Y-92573411D01*
X127922658Y-92542164D01*
X127743875Y-92525600D01*
X127567555Y-92559500D01*
X127465059Y-92611858D01*
X127461707Y-92595007D01*
X127413840Y-92479444D01*
X127344346Y-92375440D01*
X127255899Y-92286993D01*
X127151895Y-92217500D01*
X126803785Y-92073308D01*
X126596368Y-92159222D01*
X126233105Y-93036215D01*
X126251583Y-93043869D01*
X126154382Y-93278534D01*
X126135904Y-93270880D01*
X125772642Y-94147873D01*
X125858557Y-94355290D01*
X126206667Y-94499482D01*
X126329348Y-94523885D01*
X126454431Y-94523885D01*
X126577112Y-94499482D01*
X126692675Y-94451615D01*
X126705448Y-94443080D01*
X126712355Y-94479002D01*
X126794034Y-94638896D01*
X126917025Y-94769705D01*
X127071589Y-94861071D01*
X128180245Y-95320291D01*
X128276754Y-95351538D01*
X128442080Y-95366855D01*
X129470974Y-96395750D01*
X129378308Y-96486496D01*
X129263634Y-96653972D01*
X129183674Y-96840533D01*
X129141473Y-97039071D01*
X129138639Y-97242026D01*
X129175280Y-97441665D01*
X129250000Y-97630386D01*
X129359953Y-97800999D01*
X129500950Y-97947006D01*
X129667622Y-98062846D01*
X129853620Y-98144106D01*
X130051859Y-98187692D01*
X130254788Y-98191943D01*
X130454679Y-98156697D01*
X130531928Y-98126734D01*
X130531928Y-98725000D01*
X130539992Y-98826121D01*
X130573090Y-98933000D01*
X130175000Y-98933000D01*
X130104850Y-98939878D01*
X130034829Y-98946004D01*
X130030986Y-98947120D01*
X130026993Y-98947512D01*
X129959552Y-98967874D01*
X129892018Y-98987494D01*
X129888462Y-98989337D01*
X129884624Y-98990496D01*
X129822467Y-99023545D01*
X129759985Y-99055933D01*
X129756853Y-99058434D01*
X129753316Y-99060314D01*
X129698791Y-99104783D01*
X129643760Y-99148714D01*
X129638181Y-99154216D01*
X129638069Y-99154307D01*
X129637983Y-99154411D01*
X129636184Y-99156185D01*
X128068072Y-100724298D01*
X128068072Y-99730000D01*
X128060008Y-99628879D01*
X128006894Y-99457366D01*
X127908100Y-99307441D01*
X127771450Y-99190975D01*
X127762000Y-99186715D01*
X127762000Y-98493638D01*
X127787281Y-98469563D01*
X127904282Y-98303703D01*
X127986839Y-98118278D01*
X128031807Y-97920348D01*
X128035044Y-97688513D01*
X127995620Y-97489405D01*
X127918273Y-97301746D01*
X127805948Y-97132684D01*
X127662926Y-96988660D01*
X127494653Y-96875158D01*
X127307539Y-96796503D01*
X127108710Y-96755689D01*
X126905741Y-96754272D01*
X126706363Y-96792306D01*
X126518168Y-96868341D01*
X126348327Y-96979482D01*
X126203308Y-97121496D01*
X126088634Y-97288972D01*
X126008674Y-97475533D01*
X125966473Y-97674071D01*
X125963639Y-97877026D01*
X126000280Y-98076665D01*
X126075000Y-98265386D01*
X126184953Y-98435999D01*
X126238000Y-98490931D01*
X126238000Y-99091928D01*
X126230000Y-99091928D01*
X126128879Y-99099992D01*
X125957366Y-99153106D01*
X125807441Y-99251900D01*
X125732783Y-99339497D01*
X125723237Y-99325211D01*
X125634789Y-99236763D01*
X125530785Y-99167270D01*
X125415223Y-99119403D01*
X125292542Y-99095000D01*
X124915750Y-99095000D01*
X124757000Y-99253750D01*
X124503000Y-99253750D01*
X124344250Y-99095000D01*
X123967458Y-99095000D01*
X123844777Y-99119403D01*
X123729215Y-99167270D01*
X123625211Y-99236763D01*
X123536763Y-99325211D01*
X123467270Y-99429215D01*
X123419403Y-99544777D01*
X123395000Y-99667458D01*
X122698366Y-99667458D01*
X123030995Y-96275051D01*
X123908950Y-93367123D01*
X124648234Y-93367123D01*
X124648234Y-93492206D01*
X124672637Y-93614887D01*
X124720504Y-93730450D01*
X124789998Y-93834454D01*
X124878445Y-93922901D01*
X124982449Y-93992394D01*
X125330559Y-94136586D01*
X125537976Y-94050672D01*
X125901239Y-93173679D01*
X125024246Y-92810417D01*
X124816829Y-92896332D01*
X124720505Y-93128879D01*
X124672637Y-93244442D01*
X124648234Y-93367123D01*
X123908950Y-93367123D01*
X124208627Y-92374549D01*
X124211931Y-92368334D01*
X125035533Y-92368334D01*
X125121447Y-92575751D01*
X125998440Y-92939014D01*
X126361702Y-92062021D01*
X126275787Y-91854604D01*
X125927677Y-91710412D01*
X125804996Y-91686009D01*
X125679913Y-91686009D01*
X125557232Y-91710412D01*
X125441669Y-91758279D01*
X125337665Y-91827773D01*
X125249218Y-91916220D01*
X125179725Y-92020224D01*
X125131857Y-92135787D01*
X125035533Y-92368334D01*
X124211931Y-92368334D01*
X126121440Y-88777069D01*
X127638230Y-86917301D01*
X128676315Y-86917301D01*
X128676315Y-87042385D01*
X128700718Y-87165066D01*
X128748585Y-87280628D01*
X128818078Y-87384632D01*
X129084510Y-87651064D01*
X129309017Y-87651064D01*
X129980238Y-86979843D01*
X129309017Y-86308622D01*
X129084510Y-86308622D01*
X128818078Y-86575054D01*
X128748585Y-86679058D01*
X128700718Y-86794620D01*
X128676315Y-86917301D01*
X127638230Y-86917301D01*
X128464242Y-85904510D01*
X129488622Y-85904510D01*
X129488622Y-86129017D01*
X130159843Y-86800238D01*
X130831064Y-86129017D01*
X130831064Y-85904510D01*
X130564632Y-85638078D01*
X130460628Y-85568585D01*
X130345066Y-85520718D01*
X130222385Y-85496315D01*
X130097301Y-85496315D01*
X129974620Y-85520718D01*
X129859058Y-85568585D01*
X129755054Y-85638078D01*
X129488622Y-85904510D01*
X128464242Y-85904510D01*
X128696582Y-85619634D01*
X131835956Y-83022518D01*
X132802494Y-82499913D01*
X134866009Y-82499913D01*
X134866009Y-82624996D01*
X134890412Y-82747677D01*
X135034604Y-83095787D01*
X135242021Y-83181702D01*
X136119014Y-82818440D01*
X135755751Y-81941447D01*
X135548334Y-81855533D01*
X135315787Y-81951857D01*
X135200224Y-81999725D01*
X135096220Y-82069218D01*
X135007773Y-82157665D01*
X134938279Y-82261669D01*
X134890412Y-82377232D01*
X134866009Y-82499913D01*
X132802494Y-82499913D01*
X134015125Y-81844246D01*
X135990417Y-81844246D01*
X136353679Y-82721239D01*
X137230672Y-82357976D01*
X137316586Y-82150559D01*
X137172394Y-81802449D01*
X137102901Y-81698445D01*
X137014454Y-81609998D01*
X136910450Y-81540504D01*
X136794887Y-81492637D01*
X136672206Y-81468234D01*
X136547123Y-81468234D01*
X136424442Y-81492637D01*
X136308879Y-81540505D01*
X136076332Y-81636829D01*
X135990417Y-81844246D01*
X134015125Y-81844246D01*
X135419993Y-81084637D01*
X136380022Y-80787458D01*
X142275000Y-80787458D01*
X142275000Y-81164250D01*
X142433750Y-81323000D01*
X143383000Y-81323000D01*
X143383000Y-80373750D01*
X143637000Y-80373750D01*
X143637000Y-81323000D01*
X144586250Y-81323000D01*
X144745000Y-81164250D01*
X144745000Y-80787458D01*
X144720597Y-80664777D01*
X144672730Y-80549215D01*
X144603237Y-80445211D01*
X144514789Y-80356763D01*
X144410785Y-80287270D01*
X144295223Y-80239403D01*
X144172542Y-80215000D01*
X143795750Y-80215000D01*
X143637000Y-80373750D01*
X143383000Y-80373750D01*
X143224250Y-80215000D01*
X142847458Y-80215000D01*
X142724777Y-80239403D01*
X142609215Y-80287270D01*
X142505211Y-80356763D01*
X142416763Y-80445211D01*
X142347270Y-80549215D01*
X142299403Y-80664777D01*
X142275000Y-80787458D01*
X136380022Y-80787458D01*
X139312173Y-79879805D01*
X143397721Y-79450396D01*
X143476519Y-79450121D01*
X147564949Y-79850995D01*
M02*
