M48
;DRILL file {KiCad 4.0.7} date 06/15/18 16:24:22
;FORMAT={-:-/ absolute / inch / decimal}
FMAT,2
INCH,TZ
T1C0.016
%
G90
G05
M72
T1
X5.Y-3.85
X5.025Y-4.075
X5.125Y-3.825
X5.125Y-4.175
X5.225Y-4.175
X5.275Y-4.15
X5.3Y-4.1
X5.325Y-3.875
X5.4Y-3.7
X5.4Y-4.25
X5.475Y-3.95
X5.475Y-4.4
X5.5Y-3.875
X5.525Y-4.325
X5.575Y-4.525
X5.6Y-3.675
X5.625Y-4.325
X5.65Y-3.85
X5.65Y-4.05
X5.65Y-4.1
X5.675Y-3.725
X5.675Y-4.4
X5.725Y-4.175
X5.75Y-3.425
X5.75Y-3.6
X5.75Y-3.675
X5.775Y-3.5
X5.825Y-3.875
X5.825Y-4.275
X5.825Y-4.375
X5.85Y-4.5
X5.9Y-4.2
X5.925Y-3.7
X5.95Y-4.175
X5.975Y-4.025
X6.Y-3.85
X6.025Y-4.475
X6.05Y-3.7
X6.05Y-4.325
X6.1Y-4.325
X6.15Y-3.7
X6.175Y-3.825
X6.2Y-4.15
X6.225Y-3.8
T0
M30
