G04 #@! TF.FileFunction,Legend,Top*
%FSLAX46Y46*%
G04 Gerber Fmt 4.6, Leading zero omitted, Abs format (unit mm)*
G04 Created by KiCad (PCBNEW 4.0.7) date 06/15/18 16:22:59*
%MOMM*%
%LPD*%
G01*
G04 APERTURE LIST*
%ADD10C,0.100000*%
%ADD11C,0.150000*%
%ADD12C,0.120000*%
%ADD13R,1.900000X1.000000*%
%ADD14R,1.600000X1.600000*%
%ADD15R,1.100000X1.700000*%
%ADD16R,1.000000X1.950000*%
%ADD17R,0.800000X1.050000*%
%ADD18R,1.700000X1.950000*%
%ADD19R,1.400000X1.650000*%
G04 APERTURE END LIST*
D10*
D11*
X132545000Y-95255000D02*
X132545000Y-95280000D01*
X136695000Y-95255000D02*
X136695000Y-95360000D01*
X136695000Y-105405000D02*
X136695000Y-105300000D01*
X132545000Y-105405000D02*
X132545000Y-105300000D01*
X132545000Y-95255000D02*
X136695000Y-95255000D01*
X132545000Y-105405000D02*
X136695000Y-105405000D01*
X132545000Y-95280000D02*
X131170000Y-95280000D01*
D12*
X144210000Y-80750000D02*
X142810000Y-80750000D01*
X142810000Y-80750000D02*
X142810000Y-83550000D01*
X144210000Y-80750000D02*
X144210000Y-83550000D01*
X151649647Y-82508334D02*
X150356216Y-81972577D01*
X150356216Y-81972577D02*
X149284702Y-84559440D01*
X151649647Y-82508334D02*
X150578133Y-85095197D01*
X157850107Y-86979843D02*
X156860157Y-85989893D01*
X156860157Y-85989893D02*
X154880258Y-87969792D01*
X157850107Y-86979843D02*
X155870208Y-88959742D01*
X161867423Y-93483784D02*
X161331666Y-92190353D01*
X161331666Y-92190353D02*
X158744803Y-93261867D01*
X161867423Y-93483784D02*
X159280560Y-94555298D01*
X163090000Y-101030000D02*
X163090000Y-99630000D01*
X163090000Y-99630000D02*
X160290000Y-99630000D01*
X163090000Y-101030000D02*
X160290000Y-101030000D01*
X161331666Y-108469647D02*
X161867423Y-107176216D01*
X161867423Y-107176216D02*
X159280560Y-106104702D01*
X161331666Y-108469647D02*
X158744803Y-107398133D01*
X156860157Y-114670107D02*
X157850107Y-113680157D01*
X157850107Y-113680157D02*
X155870208Y-111700258D01*
X156860157Y-114670107D02*
X154880258Y-112690208D01*
X150356216Y-118687423D02*
X151649647Y-118151666D01*
X151649647Y-118151666D02*
X150578133Y-115564803D01*
X150356216Y-118687423D02*
X149284702Y-116100560D01*
X142810000Y-119910000D02*
X144210000Y-119910000D01*
X144210000Y-119910000D02*
X144210000Y-117110000D01*
X142810000Y-119910000D02*
X142810000Y-117110000D01*
X135370353Y-118151666D02*
X136663784Y-118687423D01*
X136663784Y-118687423D02*
X137735298Y-116100560D01*
X135370353Y-118151666D02*
X136441867Y-115564803D01*
X129169893Y-113680157D02*
X130159843Y-114670107D01*
X130159843Y-114670107D02*
X132139742Y-112690208D01*
X129169893Y-113680157D02*
X131149792Y-111700258D01*
X125152577Y-107176216D02*
X125688334Y-108469647D01*
X125688334Y-108469647D02*
X128275197Y-107398133D01*
X125152577Y-107176216D02*
X127739440Y-106104702D01*
X123930000Y-99630000D02*
X123930000Y-101030000D01*
X123930000Y-101030000D02*
X126730000Y-101030000D01*
X123930000Y-99630000D02*
X126730000Y-99630000D01*
X125688334Y-92190353D02*
X125152577Y-93483784D01*
X125152577Y-93483784D02*
X127739440Y-94555298D01*
X125688334Y-92190353D02*
X128275197Y-93261867D01*
X130159843Y-85989893D02*
X129169893Y-86979843D01*
X129169893Y-86979843D02*
X131149792Y-88959742D01*
X130159843Y-85989893D02*
X132139742Y-87969792D01*
X136663784Y-81972577D02*
X135370353Y-82508334D01*
X135370353Y-82508334D02*
X136441867Y-85095197D01*
X136663784Y-81972577D02*
X137735298Y-84559440D01*
X144110000Y-87875000D02*
X142910000Y-87875000D01*
X142910000Y-86115000D02*
X144110000Y-86115000D01*
D11*
X140935000Y-112565000D02*
X140985000Y-112565000D01*
X140935000Y-108415000D02*
X141080000Y-108415000D01*
X146085000Y-108415000D02*
X145940000Y-108415000D01*
X146085000Y-112565000D02*
X145940000Y-112565000D01*
X140935000Y-112565000D02*
X140935000Y-108415000D01*
X146085000Y-112565000D02*
X146085000Y-108415000D01*
X140985000Y-112565000D02*
X140985000Y-113965000D01*
D12*
X142350000Y-90105000D02*
X142350000Y-92005000D01*
X144670000Y-91505000D02*
X144670000Y-90105000D01*
D11*
X150325000Y-95255000D02*
X150325000Y-95280000D01*
X154475000Y-95255000D02*
X154475000Y-95360000D01*
X154475000Y-105405000D02*
X154475000Y-105300000D01*
X150325000Y-105405000D02*
X150325000Y-105300000D01*
X150325000Y-95255000D02*
X154475000Y-95255000D01*
X150325000Y-105405000D02*
X154475000Y-105405000D01*
X150325000Y-95280000D02*
X148950000Y-95280000D01*
D12*
X140280000Y-97100000D02*
X140310000Y-97100000D01*
X146740000Y-97100000D02*
X146710000Y-97100000D01*
X146740000Y-103560000D02*
X146710000Y-103560000D01*
X140310000Y-103560000D02*
X140280000Y-103560000D01*
X142210000Y-97100000D02*
X144810000Y-97100000D01*
X140280000Y-103560000D02*
X140280000Y-97100000D01*
X142210000Y-103560000D02*
X144810000Y-103560000D01*
X146740000Y-103560000D02*
X146740000Y-97100000D01*
X137025000Y-110910000D02*
X136025000Y-110910000D01*
X136025000Y-112610000D02*
X137025000Y-112610000D01*
X150995000Y-110910000D02*
X149995000Y-110910000D01*
X149995000Y-112610000D02*
X150995000Y-112610000D01*
X135220000Y-108830000D02*
X134020000Y-108830000D01*
X134020000Y-107070000D02*
X135220000Y-107070000D01*
X153000000Y-108830000D02*
X151800000Y-108830000D01*
X151800000Y-107070000D02*
X153000000Y-107070000D01*
D11*
X133858095Y-93782381D02*
X133858095Y-94591905D01*
X133905714Y-94687143D01*
X133953333Y-94734762D01*
X134048571Y-94782381D01*
X134239048Y-94782381D01*
X134334286Y-94734762D01*
X134381905Y-94687143D01*
X134429524Y-94591905D01*
X134429524Y-93782381D01*
X135334286Y-94115714D02*
X135334286Y-94782381D01*
X135096190Y-93734762D02*
X134858095Y-94449048D01*
X135477143Y-94449048D01*
X145412381Y-83288095D02*
X144412381Y-83288095D01*
X144412381Y-83050000D01*
X144460000Y-82907142D01*
X144555238Y-82811904D01*
X144650476Y-82764285D01*
X144840952Y-82716666D01*
X144983810Y-82716666D01*
X145174286Y-82764285D01*
X145269524Y-82811904D01*
X145364762Y-82907142D01*
X145412381Y-83050000D01*
X145412381Y-83288095D01*
X145412381Y-81764285D02*
X145412381Y-82335714D01*
X145412381Y-82050000D02*
X144412381Y-82050000D01*
X144555238Y-82145238D01*
X144650476Y-82240476D01*
X144698095Y-82335714D01*
X151789215Y-85313360D02*
X150865335Y-84930676D01*
X150956450Y-84710705D01*
X151055114Y-84596944D01*
X151179548Y-84545402D01*
X151285760Y-84537854D01*
X151479960Y-84566752D01*
X151611943Y-84621421D01*
X151769697Y-84738307D01*
X151839463Y-84818747D01*
X151891005Y-84943182D01*
X151880330Y-85093388D01*
X151789215Y-85313360D01*
X151317784Y-84087237D02*
X151292013Y-84025020D01*
X151284465Y-83918808D01*
X151375580Y-83698836D01*
X151456020Y-83629071D01*
X151518238Y-83603299D01*
X151624449Y-83595751D01*
X151712437Y-83632197D01*
X151826197Y-83730861D01*
X152135452Y-84477468D01*
X152372352Y-83905543D01*
X156905615Y-89624759D02*
X156198508Y-88917652D01*
X156366867Y-88749293D01*
X156501554Y-88681949D01*
X156636241Y-88681949D01*
X156737256Y-88715621D01*
X156905615Y-88816636D01*
X157006631Y-88917652D01*
X157107646Y-89086010D01*
X157141317Y-89187026D01*
X157141317Y-89321712D01*
X157073973Y-89456400D01*
X156905615Y-89624759D01*
X156838271Y-88277889D02*
X157276004Y-87840155D01*
X157309675Y-88345232D01*
X157410691Y-88244216D01*
X157511706Y-88210544D01*
X157579050Y-88210544D01*
X157680066Y-88244217D01*
X157848424Y-88412575D01*
X157882096Y-88513591D01*
X157882096Y-88580934D01*
X157848424Y-88681949D01*
X157646393Y-88883980D01*
X157545378Y-88917652D01*
X157478035Y-88917652D01*
X159982660Y-95565926D02*
X159599976Y-94642047D01*
X159819948Y-94550932D01*
X159970154Y-94540257D01*
X160094589Y-94591799D01*
X160175029Y-94661564D01*
X160291915Y-94819318D01*
X160346584Y-94951302D01*
X160375482Y-95145502D01*
X160367934Y-95251713D01*
X160316392Y-95376148D01*
X160202631Y-95474811D01*
X159982660Y-95565926D01*
X161047366Y-94403315D02*
X161302488Y-95019235D01*
X160681610Y-94142477D02*
X160734984Y-94893506D01*
X161306910Y-94656607D01*
X160551905Y-102232381D02*
X160551905Y-101232381D01*
X160790000Y-101232381D01*
X160932858Y-101280000D01*
X161028096Y-101375238D01*
X161075715Y-101470476D01*
X161123334Y-101660952D01*
X161123334Y-101803810D01*
X161075715Y-101994286D01*
X161028096Y-102089524D01*
X160932858Y-102184762D01*
X160790000Y-102232381D01*
X160551905Y-102232381D01*
X162028096Y-101232381D02*
X161551905Y-101232381D01*
X161504286Y-101708571D01*
X161551905Y-101660952D01*
X161647143Y-101613333D01*
X161885239Y-101613333D01*
X161980477Y-101660952D01*
X162028096Y-101708571D01*
X162075715Y-101803810D01*
X162075715Y-102041905D01*
X162028096Y-102137143D01*
X161980477Y-102184762D01*
X161885239Y-102232381D01*
X161647143Y-102232381D01*
X161551905Y-102184762D01*
X161504286Y-102137143D01*
X158526640Y-108609215D02*
X158909324Y-107685335D01*
X159129295Y-107776450D01*
X159243056Y-107875114D01*
X159294598Y-107999548D01*
X159302146Y-108105760D01*
X159273248Y-108299960D01*
X159218579Y-108431943D01*
X159101693Y-108589697D01*
X159021253Y-108659463D01*
X158896818Y-108711005D01*
X158746612Y-108700330D01*
X158526640Y-108609215D01*
X160229152Y-108232026D02*
X160053174Y-108159134D01*
X159946963Y-108166682D01*
X159884746Y-108192453D01*
X159742088Y-108287990D01*
X159625202Y-108445744D01*
X159479418Y-108797698D01*
X159486966Y-108903910D01*
X159512737Y-108966127D01*
X159582503Y-109046567D01*
X159758480Y-109119460D01*
X159864692Y-109111911D01*
X159926909Y-109086140D01*
X160007349Y-109016375D01*
X160098464Y-108796404D01*
X160090916Y-108690191D01*
X160065145Y-108627974D01*
X159995380Y-108547534D01*
X159819402Y-108474641D01*
X159713191Y-108482190D01*
X159650973Y-108507961D01*
X159570533Y-108577727D01*
X154215241Y-113725615D02*
X154922348Y-113018508D01*
X155090707Y-113186867D01*
X155158051Y-113321554D01*
X155158051Y-113456241D01*
X155124379Y-113557256D01*
X155023364Y-113725615D01*
X154922348Y-113826631D01*
X154753990Y-113927646D01*
X154652974Y-113961317D01*
X154518288Y-113961317D01*
X154383600Y-113893973D01*
X154215241Y-113725615D01*
X155562111Y-113658271D02*
X156033516Y-114129676D01*
X155023363Y-114533737D01*
X148274074Y-116802660D02*
X149197953Y-116419976D01*
X149289068Y-116639948D01*
X149299743Y-116790154D01*
X149248201Y-116914589D01*
X149178436Y-116995029D01*
X149020682Y-117111915D01*
X148888698Y-117166584D01*
X148694498Y-117195482D01*
X148588287Y-117187934D01*
X148463852Y-117136392D01*
X148365189Y-117022631D01*
X148274074Y-116802660D01*
X149239358Y-117639846D02*
X149246906Y-117533634D01*
X149272677Y-117471417D01*
X149342443Y-117390977D01*
X149386437Y-117372754D01*
X149492648Y-117380302D01*
X149554865Y-117406073D01*
X149635306Y-117475839D01*
X149708198Y-117651816D01*
X149700650Y-117758028D01*
X149674879Y-117820245D01*
X149605113Y-117900685D01*
X149561119Y-117918908D01*
X149454908Y-117911360D01*
X149392690Y-117885589D01*
X149312250Y-117815823D01*
X149239358Y-117639846D01*
X149158917Y-117570080D01*
X149096700Y-117544309D01*
X148990488Y-117536761D01*
X148814511Y-117609653D01*
X148744746Y-117690093D01*
X148718974Y-117752311D01*
X148711426Y-117858522D01*
X148784319Y-118034500D01*
X148864759Y-118104265D01*
X148926976Y-118130036D01*
X149033187Y-118137585D01*
X149209164Y-118064693D01*
X149278931Y-117984252D01*
X149304702Y-117922035D01*
X149312250Y-117815823D01*
X142512381Y-118848095D02*
X141512381Y-118848095D01*
X141512381Y-118610000D01*
X141560000Y-118467142D01*
X141655238Y-118371904D01*
X141750476Y-118324285D01*
X141940952Y-118276666D01*
X142083810Y-118276666D01*
X142274286Y-118324285D01*
X142369524Y-118371904D01*
X142464762Y-118467142D01*
X142512381Y-118610000D01*
X142512381Y-118848095D01*
X142512381Y-117800476D02*
X142512381Y-117610000D01*
X142464762Y-117514761D01*
X142417143Y-117467142D01*
X142274286Y-117371904D01*
X142083810Y-117324285D01*
X141702857Y-117324285D01*
X141607619Y-117371904D01*
X141560000Y-117419523D01*
X141512381Y-117514761D01*
X141512381Y-117705238D01*
X141560000Y-117800476D01*
X141607619Y-117848095D01*
X141702857Y-117895714D01*
X141940952Y-117895714D01*
X142036190Y-117848095D01*
X142083810Y-117800476D01*
X142131429Y-117705238D01*
X142131429Y-117514761D01*
X142083810Y-117419523D01*
X142036190Y-117371904D01*
X141940952Y-117324285D01*
X135319532Y-117496643D02*
X134395653Y-117113959D01*
X134486768Y-116893988D01*
X134585432Y-116780228D01*
X134709866Y-116728685D01*
X134816077Y-116721137D01*
X135010277Y-116750035D01*
X135142261Y-116804704D01*
X135300015Y-116921590D01*
X135369780Y-117002031D01*
X135421323Y-117126465D01*
X135410647Y-117276672D01*
X135319532Y-117496643D01*
X135902669Y-116088826D02*
X135683993Y-116616757D01*
X135793331Y-116352792D02*
X134869451Y-115970109D01*
X134964988Y-116112766D01*
X135016530Y-116237201D01*
X135024079Y-116343412D01*
X135215689Y-115134218D02*
X135252135Y-115046228D01*
X135332575Y-114976463D01*
X135394793Y-114950692D01*
X135501004Y-114943143D01*
X135695204Y-114972041D01*
X135915176Y-115063156D01*
X136072930Y-115180043D01*
X136142695Y-115260483D01*
X136168466Y-115322700D01*
X136176015Y-115428912D01*
X136139568Y-115516901D01*
X136059128Y-115586666D01*
X135996911Y-115612438D01*
X135890699Y-115619986D01*
X135696500Y-115591088D01*
X135476527Y-115499973D01*
X135318774Y-115383086D01*
X135249008Y-115302646D01*
X135223237Y-115240429D01*
X135215689Y-115134218D01*
X129373607Y-113055547D02*
X128666500Y-112348440D01*
X128834859Y-112180081D01*
X128969546Y-112112737D01*
X129104233Y-112112737D01*
X129205248Y-112146409D01*
X129373607Y-112247424D01*
X129474623Y-112348440D01*
X129575638Y-112516798D01*
X129609310Y-112617813D01*
X129609310Y-112752500D01*
X129541965Y-112887188D01*
X129373607Y-113055547D01*
X130451103Y-111978050D02*
X130047042Y-112382111D01*
X130249072Y-112180081D02*
X129541965Y-111472974D01*
X129575637Y-111641333D01*
X129575637Y-111776020D01*
X129541965Y-111877035D01*
X131124538Y-111304615D02*
X130720477Y-111708676D01*
X130922507Y-111506646D02*
X130215400Y-110799539D01*
X130249072Y-110967898D01*
X130249072Y-111102585D01*
X130215400Y-111203600D01*
X125579813Y-106677109D02*
X125197129Y-105753229D01*
X125417100Y-105662114D01*
X125567307Y-105651439D01*
X125691741Y-105702981D01*
X125772182Y-105772747D01*
X125889068Y-105930501D01*
X125943737Y-106062484D01*
X125972635Y-106256684D01*
X125965087Y-106362896D01*
X125913544Y-106487330D01*
X125799784Y-106585994D01*
X125579813Y-106677109D01*
X126987630Y-106093972D02*
X126459698Y-106312648D01*
X126723663Y-106203310D02*
X126340980Y-105279431D01*
X126307660Y-105447859D01*
X126256118Y-105572294D01*
X126186353Y-105652734D01*
X126993346Y-105112297D02*
X127019117Y-105050080D01*
X127088883Y-104969639D01*
X127308855Y-104878524D01*
X127415066Y-104886072D01*
X127477283Y-104911843D01*
X127557723Y-104981609D01*
X127594169Y-105069597D01*
X127604844Y-105219803D01*
X127295589Y-105966411D01*
X127867515Y-105729511D01*
X124515714Y-99332381D02*
X124515714Y-98332381D01*
X124753809Y-98332381D01*
X124896667Y-98380000D01*
X124991905Y-98475238D01*
X125039524Y-98570476D01*
X125087143Y-98760952D01*
X125087143Y-98903810D01*
X125039524Y-99094286D01*
X124991905Y-99189524D01*
X124896667Y-99284762D01*
X124753809Y-99332381D01*
X124515714Y-99332381D01*
X126039524Y-99332381D02*
X125468095Y-99332381D01*
X125753809Y-99332381D02*
X125753809Y-98332381D01*
X125658571Y-98475238D01*
X125563333Y-98570476D01*
X125468095Y-98618095D01*
X126372857Y-98332381D02*
X126991905Y-98332381D01*
X126658571Y-98713333D01*
X126801429Y-98713333D01*
X126896667Y-98760952D01*
X126944286Y-98808571D01*
X126991905Y-98903810D01*
X126991905Y-99141905D01*
X126944286Y-99237143D01*
X126896667Y-99284762D01*
X126801429Y-99332381D01*
X126515714Y-99332381D01*
X126420476Y-99284762D01*
X126372857Y-99237143D01*
X126343357Y-92139532D02*
X126726041Y-91215653D01*
X126946012Y-91306768D01*
X127059772Y-91405432D01*
X127111315Y-91529866D01*
X127118863Y-91636077D01*
X127089965Y-91830277D01*
X127035296Y-91962261D01*
X126918410Y-92120015D01*
X126837969Y-92189780D01*
X126713535Y-92241323D01*
X126563328Y-92230647D01*
X126343357Y-92139532D01*
X127751174Y-92722669D02*
X127223243Y-92503993D01*
X127487208Y-92613331D02*
X127869891Y-91689451D01*
X127727234Y-91784988D01*
X127602799Y-91836530D01*
X127496588Y-91844079D01*
X128798193Y-92434764D02*
X128543071Y-93050684D01*
X128724005Y-91991695D02*
X128230689Y-92560494D01*
X128802615Y-92797393D01*
X130784453Y-86193607D02*
X131491560Y-85486500D01*
X131659919Y-85654859D01*
X131727263Y-85789546D01*
X131727263Y-85924233D01*
X131693591Y-86025248D01*
X131592576Y-86193607D01*
X131491560Y-86294623D01*
X131323202Y-86395638D01*
X131222187Y-86429310D01*
X131087500Y-86429310D01*
X130952812Y-86361965D01*
X130784453Y-86193607D01*
X131861950Y-87271103D02*
X131457889Y-86867042D01*
X131659919Y-87069072D02*
X132367026Y-86361965D01*
X132198667Y-86395637D01*
X132063980Y-86395637D01*
X131962965Y-86361965D01*
X133208820Y-87203760D02*
X132872102Y-86867042D01*
X132501713Y-87170087D01*
X132569057Y-87170087D01*
X132670072Y-87203759D01*
X132838431Y-87372118D01*
X132872103Y-87473133D01*
X132872103Y-87540477D01*
X132838430Y-87641493D01*
X132670072Y-87809851D01*
X132569057Y-87843523D01*
X132501713Y-87843523D01*
X132400698Y-87809851D01*
X132232339Y-87641492D01*
X132198667Y-87540477D01*
X132198667Y-87473133D01*
X137162891Y-82399813D02*
X138086771Y-82017129D01*
X138177886Y-82237100D01*
X138188561Y-82387307D01*
X138137019Y-82511741D01*
X138067253Y-82592182D01*
X137909499Y-82709068D01*
X137777516Y-82763737D01*
X137583316Y-82792635D01*
X137477104Y-82785087D01*
X137352670Y-82733544D01*
X137254006Y-82619784D01*
X137162891Y-82399813D01*
X137746028Y-83807630D02*
X137527352Y-83279698D01*
X137636690Y-83543663D02*
X138560569Y-83160980D01*
X138392141Y-83127660D01*
X138267706Y-83076118D01*
X138187266Y-83006353D01*
X138997922Y-84216843D02*
X138925030Y-84040865D01*
X138844590Y-83971100D01*
X138782372Y-83945329D01*
X138613944Y-83912009D01*
X138419744Y-83940907D01*
X138067789Y-84086691D01*
X137998024Y-84167132D01*
X137972252Y-84229349D01*
X137964704Y-84335560D01*
X138037597Y-84511538D01*
X138118037Y-84581303D01*
X138180254Y-84607075D01*
X138286465Y-84614623D01*
X138506437Y-84523508D01*
X138576203Y-84443067D01*
X138601974Y-84380850D01*
X138609522Y-84274639D01*
X138536630Y-84098661D01*
X138456190Y-84028895D01*
X138393973Y-84003124D01*
X138287760Y-83995576D01*
X143343334Y-85797381D02*
X143010000Y-85321190D01*
X142771905Y-85797381D02*
X142771905Y-84797381D01*
X143152858Y-84797381D01*
X143248096Y-84845000D01*
X143295715Y-84892619D01*
X143343334Y-84987857D01*
X143343334Y-85130714D01*
X143295715Y-85225952D01*
X143248096Y-85273571D01*
X143152858Y-85321190D01*
X142771905Y-85321190D01*
X144295715Y-85797381D02*
X143724286Y-85797381D01*
X144010000Y-85797381D02*
X144010000Y-84797381D01*
X143914762Y-84940238D01*
X143819524Y-85035476D01*
X143724286Y-85083095D01*
X139462381Y-111251905D02*
X140271905Y-111251905D01*
X140367143Y-111204286D01*
X140414762Y-111156667D01*
X140462381Y-111061429D01*
X140462381Y-110870952D01*
X140414762Y-110775714D01*
X140367143Y-110728095D01*
X140271905Y-110680476D01*
X139462381Y-110680476D01*
X140462381Y-109680476D02*
X140462381Y-110251905D01*
X140462381Y-109966191D02*
X139462381Y-109966191D01*
X139605238Y-110061429D01*
X139700476Y-110156667D01*
X139748095Y-110251905D01*
X140962381Y-91566905D02*
X141771905Y-91566905D01*
X141867143Y-91519286D01*
X141914762Y-91471667D01*
X141962381Y-91376429D01*
X141962381Y-91185952D01*
X141914762Y-91090714D01*
X141867143Y-91043095D01*
X141771905Y-90995476D01*
X140962381Y-90995476D01*
X141057619Y-90566905D02*
X141010000Y-90519286D01*
X140962381Y-90424048D01*
X140962381Y-90185952D01*
X141010000Y-90090714D01*
X141057619Y-90043095D01*
X141152857Y-89995476D01*
X141248095Y-89995476D01*
X141390952Y-90043095D01*
X141962381Y-90614524D01*
X141962381Y-89995476D01*
X151638095Y-93782381D02*
X151638095Y-94591905D01*
X151685714Y-94687143D01*
X151733333Y-94734762D01*
X151828571Y-94782381D01*
X152019048Y-94782381D01*
X152114286Y-94734762D01*
X152161905Y-94687143D01*
X152209524Y-94591905D01*
X152209524Y-93782381D01*
X152590476Y-93782381D02*
X153209524Y-93782381D01*
X152876190Y-94163333D01*
X153019048Y-94163333D01*
X153114286Y-94210952D01*
X153161905Y-94258571D01*
X153209524Y-94353810D01*
X153209524Y-94591905D01*
X153161905Y-94687143D01*
X153114286Y-94734762D01*
X153019048Y-94782381D01*
X152733333Y-94782381D01*
X152638095Y-94734762D01*
X152590476Y-94687143D01*
X139864762Y-101663333D02*
X139912381Y-101520476D01*
X139912381Y-101282380D01*
X139864762Y-101187142D01*
X139817143Y-101139523D01*
X139721905Y-101091904D01*
X139626667Y-101091904D01*
X139531429Y-101139523D01*
X139483810Y-101187142D01*
X139436190Y-101282380D01*
X139388571Y-101472857D01*
X139340952Y-101568095D01*
X139293333Y-101615714D01*
X139198095Y-101663333D01*
X139102857Y-101663333D01*
X139007619Y-101615714D01*
X138960000Y-101568095D01*
X138912381Y-101472857D01*
X138912381Y-101234761D01*
X138960000Y-101091904D01*
X138912381Y-100758571D02*
X139912381Y-100520476D01*
X139198095Y-100329999D01*
X139912381Y-100139523D01*
X138912381Y-99901428D01*
X139912381Y-98996666D02*
X139912381Y-99568095D01*
X139912381Y-99282381D02*
X138912381Y-99282381D01*
X139055238Y-99377619D01*
X139150476Y-99472857D01*
X139198095Y-99568095D01*
X136358334Y-110617143D02*
X136310715Y-110664762D01*
X136167858Y-110712381D01*
X136072620Y-110712381D01*
X135929762Y-110664762D01*
X135834524Y-110569524D01*
X135786905Y-110474286D01*
X135739286Y-110283810D01*
X135739286Y-110140952D01*
X135786905Y-109950476D01*
X135834524Y-109855238D01*
X135929762Y-109760000D01*
X136072620Y-109712381D01*
X136167858Y-109712381D01*
X136310715Y-109760000D01*
X136358334Y-109807619D01*
X137310715Y-110712381D02*
X136739286Y-110712381D01*
X137025000Y-110712381D02*
X137025000Y-109712381D01*
X136929762Y-109855238D01*
X136834524Y-109950476D01*
X136739286Y-109998095D01*
X150328334Y-110617143D02*
X150280715Y-110664762D01*
X150137858Y-110712381D01*
X150042620Y-110712381D01*
X149899762Y-110664762D01*
X149804524Y-110569524D01*
X149756905Y-110474286D01*
X149709286Y-110283810D01*
X149709286Y-110140952D01*
X149756905Y-109950476D01*
X149804524Y-109855238D01*
X149899762Y-109760000D01*
X150042620Y-109712381D01*
X150137858Y-109712381D01*
X150280715Y-109760000D01*
X150328334Y-109807619D01*
X150709286Y-109807619D02*
X150756905Y-109760000D01*
X150852143Y-109712381D01*
X151090239Y-109712381D01*
X151185477Y-109760000D01*
X151233096Y-109807619D01*
X151280715Y-109902857D01*
X151280715Y-109998095D01*
X151233096Y-110140952D01*
X150661667Y-110712381D01*
X151280715Y-110712381D01*
X134453334Y-106752381D02*
X134120000Y-106276190D01*
X133881905Y-106752381D02*
X133881905Y-105752381D01*
X134262858Y-105752381D01*
X134358096Y-105800000D01*
X134405715Y-105847619D01*
X134453334Y-105942857D01*
X134453334Y-106085714D01*
X134405715Y-106180952D01*
X134358096Y-106228571D01*
X134262858Y-106276190D01*
X133881905Y-106276190D01*
X134834286Y-105847619D02*
X134881905Y-105800000D01*
X134977143Y-105752381D01*
X135215239Y-105752381D01*
X135310477Y-105800000D01*
X135358096Y-105847619D01*
X135405715Y-105942857D01*
X135405715Y-106038095D01*
X135358096Y-106180952D01*
X134786667Y-106752381D01*
X135405715Y-106752381D01*
X152233334Y-106752381D02*
X151900000Y-106276190D01*
X151661905Y-106752381D02*
X151661905Y-105752381D01*
X152042858Y-105752381D01*
X152138096Y-105800000D01*
X152185715Y-105847619D01*
X152233334Y-105942857D01*
X152233334Y-106085714D01*
X152185715Y-106180952D01*
X152138096Y-106228571D01*
X152042858Y-106276190D01*
X151661905Y-106276190D01*
X152566667Y-105752381D02*
X153185715Y-105752381D01*
X152852381Y-106133333D01*
X152995239Y-106133333D01*
X153090477Y-106180952D01*
X153138096Y-106228571D01*
X153185715Y-106323810D01*
X153185715Y-106561905D01*
X153138096Y-106657143D01*
X153090477Y-106704762D01*
X152995239Y-106752381D01*
X152709524Y-106752381D01*
X152614286Y-106704762D01*
X152566667Y-106657143D01*
%LPC*%
D13*
X131920000Y-95885000D03*
X131920000Y-97155000D03*
X131920000Y-98425000D03*
X131920000Y-99695000D03*
X131920000Y-100965000D03*
X131920000Y-102235000D03*
X131920000Y-103505000D03*
X131920000Y-104775000D03*
X137320000Y-104775000D03*
X137320000Y-103505000D03*
X137320000Y-102235000D03*
X137320000Y-100965000D03*
X137320000Y-99695000D03*
X137320000Y-98425000D03*
X137320000Y-97155000D03*
X137320000Y-95885000D03*
D14*
X143510000Y-83650000D03*
X143510000Y-81450000D03*
D10*
G36*
X150326106Y-85964956D02*
X148847899Y-85352663D01*
X149460192Y-83874456D01*
X150938399Y-84486749D01*
X150326106Y-85964956D01*
X150326106Y-85964956D01*
G37*
G36*
X151168010Y-83932422D02*
X149689803Y-83320129D01*
X150302096Y-81841922D01*
X151780303Y-82454215D01*
X151168010Y-83932422D01*
X151168010Y-83932422D01*
G37*
G36*
X155304523Y-89666848D02*
X154173152Y-88535477D01*
X155304523Y-87404106D01*
X156435894Y-88535477D01*
X155304523Y-89666848D01*
X155304523Y-89666848D01*
G37*
G36*
X156860157Y-88111214D02*
X155728786Y-86979843D01*
X156860157Y-85848472D01*
X157991528Y-86979843D01*
X156860157Y-88111214D01*
X156860157Y-88111214D01*
G37*
G36*
X158487337Y-94992101D02*
X157875044Y-93513894D01*
X159353251Y-92901601D01*
X159965544Y-94379808D01*
X158487337Y-94992101D01*
X158487337Y-94992101D01*
G37*
G36*
X160519871Y-94150197D02*
X159907578Y-92671990D01*
X161385785Y-92059697D01*
X161998078Y-93537904D01*
X160519871Y-94150197D01*
X160519871Y-94150197D01*
G37*
D14*
X160190000Y-100330000D03*
X162390000Y-100330000D03*
D10*
G36*
X157875044Y-107146106D02*
X158487337Y-105667899D01*
X159965544Y-106280192D01*
X159353251Y-107758399D01*
X157875044Y-107146106D01*
X157875044Y-107146106D01*
G37*
G36*
X159907578Y-107988010D02*
X160519871Y-106509803D01*
X161998078Y-107122096D01*
X161385785Y-108600303D01*
X159907578Y-107988010D01*
X159907578Y-107988010D01*
G37*
G36*
X154173152Y-112124523D02*
X155304523Y-110993152D01*
X156435894Y-112124523D01*
X155304523Y-113255894D01*
X154173152Y-112124523D01*
X154173152Y-112124523D01*
G37*
G36*
X155728786Y-113680157D02*
X156860157Y-112548786D01*
X157991528Y-113680157D01*
X156860157Y-114811528D01*
X155728786Y-113680157D01*
X155728786Y-113680157D01*
G37*
G36*
X148847899Y-115307337D02*
X150326106Y-114695044D01*
X150938399Y-116173251D01*
X149460192Y-116785544D01*
X148847899Y-115307337D01*
X148847899Y-115307337D01*
G37*
G36*
X149689803Y-117339871D02*
X151168010Y-116727578D01*
X151780303Y-118205785D01*
X150302096Y-118818078D01*
X149689803Y-117339871D01*
X149689803Y-117339871D01*
G37*
D14*
X143510000Y-117010000D03*
X143510000Y-119210000D03*
D10*
G36*
X136693894Y-114695044D02*
X138172101Y-115307337D01*
X137559808Y-116785544D01*
X136081601Y-116173251D01*
X136693894Y-114695044D01*
X136693894Y-114695044D01*
G37*
G36*
X135851990Y-116727578D02*
X137330197Y-117339871D01*
X136717904Y-118818078D01*
X135239697Y-118205785D01*
X135851990Y-116727578D01*
X135851990Y-116727578D01*
G37*
G36*
X131715477Y-110993152D02*
X132846848Y-112124523D01*
X131715477Y-113255894D01*
X130584106Y-112124523D01*
X131715477Y-110993152D01*
X131715477Y-110993152D01*
G37*
G36*
X130159843Y-112548786D02*
X131291214Y-113680157D01*
X130159843Y-114811528D01*
X129028472Y-113680157D01*
X130159843Y-112548786D01*
X130159843Y-112548786D01*
G37*
G36*
X128532663Y-105667899D02*
X129144956Y-107146106D01*
X127666749Y-107758399D01*
X127054456Y-106280192D01*
X128532663Y-105667899D01*
X128532663Y-105667899D01*
G37*
G36*
X126500129Y-106509803D02*
X127112422Y-107988010D01*
X125634215Y-108600303D01*
X125021922Y-107122096D01*
X126500129Y-106509803D01*
X126500129Y-106509803D01*
G37*
D14*
X126830000Y-100330000D03*
X124630000Y-100330000D03*
D10*
G36*
X129144956Y-93513894D02*
X128532663Y-94992101D01*
X127054456Y-94379808D01*
X127666749Y-92901601D01*
X129144956Y-93513894D01*
X129144956Y-93513894D01*
G37*
G36*
X127112422Y-92671990D02*
X126500129Y-94150197D01*
X125021922Y-93537904D01*
X125634215Y-92059697D01*
X127112422Y-92671990D01*
X127112422Y-92671990D01*
G37*
G36*
X132846848Y-88535477D02*
X131715477Y-89666848D01*
X130584106Y-88535477D01*
X131715477Y-87404106D01*
X132846848Y-88535477D01*
X132846848Y-88535477D01*
G37*
G36*
X131291214Y-86979843D02*
X130159843Y-88111214D01*
X129028472Y-86979843D01*
X130159843Y-85848472D01*
X131291214Y-86979843D01*
X131291214Y-86979843D01*
G37*
G36*
X138172101Y-85352663D02*
X136693894Y-85964956D01*
X136081601Y-84486749D01*
X137559808Y-83874456D01*
X138172101Y-85352663D01*
X138172101Y-85352663D01*
G37*
G36*
X137330197Y-83320129D02*
X135851990Y-83932422D01*
X135239697Y-82454215D01*
X136717904Y-81841922D01*
X137330197Y-83320129D01*
X137330197Y-83320129D01*
G37*
D15*
X142560000Y-86995000D03*
X144460000Y-86995000D03*
D16*
X141605000Y-113190000D03*
X142875000Y-113190000D03*
X144145000Y-113190000D03*
X145415000Y-113190000D03*
X145415000Y-107790000D03*
X144145000Y-107790000D03*
X142875000Y-107790000D03*
X141605000Y-107790000D03*
D17*
X142860000Y-91755000D03*
X144160000Y-91755000D03*
X143510000Y-91755000D03*
X144160000Y-89855000D03*
X142860000Y-89855000D03*
D13*
X149700000Y-95885000D03*
X149700000Y-97155000D03*
X149700000Y-98425000D03*
X149700000Y-99695000D03*
X149700000Y-100965000D03*
X149700000Y-102235000D03*
X149700000Y-103505000D03*
X149700000Y-104775000D03*
X155100000Y-104775000D03*
X155100000Y-103505000D03*
X155100000Y-102235000D03*
X155100000Y-100965000D03*
X155100000Y-99695000D03*
X155100000Y-98425000D03*
X155100000Y-97155000D03*
X155100000Y-95885000D03*
D18*
X145760000Y-104310000D03*
X141260000Y-104310000D03*
X141260000Y-96350000D03*
X145760000Y-96350000D03*
D19*
X135525000Y-111760000D03*
X137525000Y-111760000D03*
X149495000Y-111760000D03*
X151495000Y-111760000D03*
D15*
X133670000Y-107950000D03*
X135570000Y-107950000D03*
X151450000Y-107950000D03*
X153350000Y-107950000D03*
M02*
